<?xml version="1.0" encoding="UTF-8"?>
<svg version="1.1" xmlns="http://www.w3.org/2000/svg" width="80" height="80">
<path d="M0 0 C3.44186104 0.0383037 4.63382591 0.2432899 7.6875 2.0625 C11.20628316 5.90117254 11.843325 8.16265669 11.75 13.3125 C12.32290771 13.29654785 12.89581543 13.2805957 13.48608398 13.26416016 C22.12440454 13.13790967 30.67537371 13.78724356 39.27807617 14.484375 C41.83771529 14.68952092 44.39819722 14.88010071 46.95898438 15.0703125 C48.58861194 15.19963834 50.21817227 15.32981495 51.84765625 15.4609375 C52.61215591 15.51623627 53.37665558 15.57153503 54.1643219 15.62850952 C59.52116377 16.08366377 59.52116377 16.08366377 61.75 18.3125 C61.51806641 20.46728516 61.51806641 20.46728516 60.8515625 23.1015625 C60.61953125 24.04257812 60.3875 24.98359375 60.1484375 25.953125 C59.76558594 27.43039063 59.76558594 27.43039063 59.375 28.9375 C59.00375 30.42636719 59.00375 30.42636719 58.625 31.9453125 C58.01036469 34.40385374 57.38497771 36.85914832 56.75 39.3125 C57.29849609 39.6437085 57.84699219 39.97491699 58.41210938 40.31616211 C59.13205078 40.75710205 59.85199219 41.19804199 60.59375 41.65234375 C61.30724609 42.08667725 62.02074219 42.52101074 62.75585938 42.96850586 C65.90134862 45.08847627 67.22554372 46.81895437 68.75 50.3125 C69.49032568 55.91892469 69.52623105 60.64061774 67.125 65.8125 C62.55134327 70.6268755 59.4412538 72.56406236 52.75 72.8125 C47.63279006 72.62250458 44.56930172 71.94083663 40.75 68.3125 C38.2738542 65.24989862 36.84308669 63.38299691 36.5 59.4375 C36.5825 58.73625 36.665 58.035 36.75 57.3125 C34.77 57.3125 32.79 57.3125 30.75 57.3125 C30.79125 58.26125 30.8325 59.21 30.875 60.1875 C30.75 63.3125 30.75 63.3125 28.75 65.3125 C25.75 65.5625 25.75 65.5625 22.75 65.3125 C20.75 63.3125 20.75 63.3125 20.625 60.1875 C20.66625 59.23875 20.7075 58.29 20.75 57.3125 C20.13125 57.10625 19.5125 56.9 18.875 56.6875 C15.81834495 54.70966438 15.72231698 52.80706984 14.75 49.3125 C14.11402949 46.26047573 13.59883495 43.19326513 13.09375 40.1171875 C12.79043167 38.33201985 12.48704419 36.54686395 12.18359375 34.76171875 C11.71432737 31.96630925 11.24718018 29.17056052 10.78173828 26.37451172 C10.328598 23.66280238 9.86777191 20.95248089 9.40625 18.2421875 C9.26973022 17.4067038 9.13321045 16.57122009 8.99255371 15.7104187 C8.85901489 14.9292569 8.72547607 14.14809509 8.58789062 13.34326172 C8.47401001 12.65964569 8.36012939 11.97602966 8.24279785 11.271698 C7.68586624 9.05752579 6.91328349 7.27609527 5.75 5.3125 C5.09 4.9825 4.43 4.6525 3.75 4.3125 C3.09 5.6325 2.43 6.9525 1.75 8.3125 C-0.24954746 8.35504356 -2.25041636 8.35330783 -4.25 8.3125 C-5.25 7.3125 -5.25 7.3125 -5.375 4.3125 C-5.18821673 -0.17029841 -4.12067571 0.1296239 0 0 Z M-2.25 3.3125 C-2.25 3.9725 -2.25 4.6325 -2.25 5.3125 C-1.59 5.3125 -0.93 5.3125 -0.25 5.3125 C-0.25 4.6525 -0.25 3.9925 -0.25 3.3125 C-0.91 3.3125 -1.57 3.3125 -2.25 3.3125 Z M12.75 16.3125 C13.03812527 18.58378539 13.33071837 20.85450406 13.625 23.125 C13.78742187 24.38957031 13.94984375 25.65414062 14.1171875 26.95703125 C14.82397163 32.10522718 15.79080024 37.20637954 16.75 42.3125 C21.24994472 42.37095252 25.74979063 42.40624855 30.25 42.4375 C31.5184375 42.45425781 32.786875 42.47101562 34.09375 42.48828125 C40.67726319 42.52257038 46.46371872 42.32855485 52.75 40.3125 C53.58806616 37.37627536 54.42062444 34.43867933 55.25 31.5 C55.48847656 30.66662109 55.72695312 29.83324219 55.97265625 28.97460938 C56.19824219 28.17216797 56.42382812 27.36972656 56.65625 26.54296875 C56.97045898 25.43538208 56.97045898 25.43538208 57.29101562 24.30541992 C57.86221613 22.16610363 57.86221613 22.16610363 57.75 19.3125 C53.10986483 18.87882095 48.46917354 18.45187273 43.82788086 18.03076172 C42.25382378 17.88703717 40.67992434 17.74157397 39.10620117 17.59423828 C30.30263771 16.77126605 21.60432572 16.0508316 12.75 16.3125 Z M40.75 49.3125 C38.87144914 53.06960172 39.08620422 57.23228738 39.75 61.3125 C41.75011167 64.74653788 44.17351494 67.52425747 47.75 69.3125 C52.05212445 69.93383059 56.08395487 70.28286679 59.9296875 68.04296875 C63.00924341 65.41704037 65.45922689 63.32582773 66.05859375 59.17578125 C66.30928861 54.21506166 66.17919359 51.12499103 62.875 47.25 C59.73123549 44.02270551 57.56630798 43.10260439 53.0625 42.875 C47.35897053 42.89979795 44.36666975 45.04328127 40.75 49.3125 Z M17.75 44.3125 C18.1952998 51.48044971 18.1952998 51.48044971 19.75 54.3125 C23.31045177 55.49931726 26.18808337 55.40939832 29.9375 55.375 C31.20980469 55.36597656 32.48210938 55.35695313 33.79296875 55.34765625 C34.76878906 55.33605469 35.74460937 55.32445312 36.75 55.3125 C36.95496094 54.68601562 37.15992187 54.05953125 37.37109375 53.4140625 C37.64050781 52.59679688 37.90992187 51.77953125 38.1875 50.9375 C38.45433594 50.12539063 38.72117187 49.31328125 38.99609375 48.4765625 C39.75 46.3125 39.75 46.3125 40.75 44.3125 C33.16 44.3125 25.57 44.3125 17.75 44.3125 Z M23.75 58.3125 C23.75 59.6325 23.75 60.9525 23.75 62.3125 C25.07 62.3125 26.39 62.3125 27.75 62.3125 C27.75 60.9925 27.75 59.6725 27.75 58.3125 C26.43 58.3125 25.11 58.3125 23.75 58.3125 Z " fill="#000000" transform="translate(11.25,7.6875)"/>
<path d="M0 0 C0.66 0 1.32 0 2 0 C2 1.98 2 3.96 2 6 C3.98 6 5.96 6 8 6 C8 6.66 8 7.32 8 8 C6.02 8 4.04 8 2 8 C2 9.98 2 11.96 2 14 C1.34 14 0.68 14 0 14 C0 12.02 0 10.04 0 8 C-1.98 8 -3.96 8 -6 8 C-6 7.34 -6 6.68 -6 6 C-4.02 6 -2.04 6 0 6 C0 4.02 0 2.04 0 0 Z " fill="#000000" transform="translate(63,57)"/>
<path d="M0 0 C0.66 0 1.32 0 2 0 C2 0.66 2 1.32 2 2 C1.34 2 0.68 2 0 2 C0 1.34 0 0.68 0 0 Z " fill="#000000" transform="translate(36,67)"/>
<path d="M0 0 C0.66 0 1.32 0 2 0 C2 0.66 2 1.32 2 2 C1.34 2 0.68 2 0 2 C0 1.34 0 0.68 0 0 Z " fill="#000000" transform="translate(57,45)"/>
<path d="M0 0 C0.66 0 1.32 0 2 0 C2 0.66 2 1.32 2 2 C1.34 2 0.68 2 0 2 C0 1.34 0 0.68 0 0 Z " fill="#000000" transform="translate(51,45)"/>
<path d="M0 0 C0.66 0 1.32 0 2 0 C2 0.66 2 1.32 2 2 C1.34 2 0.68 2 0 2 C0 1.34 0 0.68 0 0 Z " fill="#000000" transform="translate(45,45)"/>
<path d="M0 0 C0.66 0 1.32 0 2 0 C2 0.66 2 1.32 2 2 C1.34 2 0.68 2 0 2 C0 1.34 0 0.68 0 0 Z " fill="#000000" transform="translate(39,45)"/>
<path d="M0 0 C0.66 0 1.32 0 2 0 C2 0.66 2 1.32 2 2 C1.34 2 0.68 2 0 2 C0 1.34 0 0.68 0 0 Z " fill="#000000" transform="translate(33,45)"/>
<path d="M0 0 C0.66 0 1.32 0 2 0 C2 0.66 2 1.32 2 2 C1.34 2 0.68 2 0 2 C0 1.34 0 0.68 0 0 Z " fill="#000000" transform="translate(57,41)"/>
<path d="M0 0 C0.66 0 1.32 0 2 0 C2 0.66 2 1.32 2 2 C1.34 2 0.68 2 0 2 C0 1.34 0 0.68 0 0 Z " fill="#000000" transform="translate(51,41)"/>
<path d="M0 0 C0.66 0 1.32 0 2 0 C2 0.66 2 1.32 2 2 C1.34 2 0.68 2 0 2 C0 1.34 0 0.68 0 0 Z " fill="#000000" transform="translate(45,41)"/>
<path d="M0 0 C0.66 0 1.32 0 2 0 C2 0.66 2 1.32 2 2 C1.34 2 0.68 2 0 2 C0 1.34 0 0.68 0 0 Z " fill="#000000" transform="translate(39,41)"/>
<path d="M0 0 C0.66 0 1.32 0 2 0 C2 0.66 2 1.32 2 2 C1.34 2 0.68 2 0 2 C0 1.34 0 0.68 0 0 Z " fill="#000000" transform="translate(33,41)"/>
<path d="M0 0 C0.66 0 1.32 0 2 0 C2 0.66 2 1.32 2 2 C1.34 2 0.68 2 0 2 C0 1.34 0 0.68 0 0 Z " fill="#000000" transform="translate(57,37)"/>
<path d="M0 0 C0.66 0 1.32 0 2 0 C2 0.66 2 1.32 2 2 C1.34 2 0.68 2 0 2 C0 1.34 0 0.68 0 0 Z " fill="#000000" transform="translate(51,37)"/>
<path d="M0 0 C0.66 0 1.32 0 2 0 C2 0.66 2 1.32 2 2 C1.34 2 0.68 2 0 2 C0 1.34 0 0.68 0 0 Z " fill="#000000" transform="translate(45,37)"/>
<path d="M0 0 C0.66 0 1.32 0 2 0 C2 0.66 2 1.32 2 2 C1.34 2 0.68 2 0 2 C0 1.34 0 0.68 0 0 Z " fill="#000000" transform="translate(39,37)"/>
<path d="M0 0 C0.66 0 1.32 0 2 0 C2 0.66 2 1.32 2 2 C1.34 2 0.68 2 0 2 C0 1.34 0 0.68 0 0 Z " fill="#000000" transform="translate(33,37)"/>
<path d="M0 0 C0.66 0 1.32 0 2 0 C2 0.66 2 1.32 2 2 C1.34 2 0.68 2 0 2 C0 1.34 0 0.68 0 0 Z " fill="#000000" transform="translate(57,33)"/>
<path d="M0 0 C0.66 0 1.32 0 2 0 C2 0.66 2 1.32 2 2 C1.34 2 0.68 2 0 2 C0 1.34 0 0.68 0 0 Z " fill="#000000" transform="translate(51,33)"/>
<path d="M0 0 C0.66 0 1.32 0 2 0 C2 0.66 2 1.32 2 2 C1.34 2 0.68 2 0 2 C0 1.34 0 0.68 0 0 Z " fill="#000000" transform="translate(45,33)"/>
<path d="M0 0 C0.66 0 1.32 0 2 0 C2 0.66 2 1.32 2 2 C1.34 2 0.68 2 0 2 C0 1.34 0 0.68 0 0 Z " fill="#000000" transform="translate(39,33)"/>
<path d="M0 0 C0.66 0 1.32 0 2 0 C2 0.66 2 1.32 2 2 C1.34 2 0.68 2 0 2 C0 1.34 0 0.68 0 0 Z " fill="#000000" transform="translate(33,33)"/>
<path d="M0 0 C0.66 0 1.32 0 2 0 C2 0.66 2 1.32 2 2 C1.34 2 0.68 2 0 2 C0 1.34 0 0.68 0 0 Z " fill="#000000" transform="translate(57,29)"/>
<path d="M0 0 C0.66 0 1.32 0 2 0 C2 0.66 2 1.32 2 2 C1.34 2 0.68 2 0 2 C0 1.34 0 0.68 0 0 Z " fill="#000000" transform="translate(51,29)"/>
<path d="M0 0 C0.66 0 1.32 0 2 0 C2 0.66 2 1.32 2 2 C1.34 2 0.68 2 0 2 C0 1.34 0 0.68 0 0 Z " fill="#000000" transform="translate(45,29)"/>
<path d="M0 0 C0.66 0 1.32 0 2 0 C2 0.66 2 1.32 2 2 C1.34 2 0.68 2 0 2 C0 1.34 0 0.68 0 0 Z " fill="#000000" transform="translate(39,29)"/>
<path d="M0 0 C0.66 0 1.32 0 2 0 C2 0.66 2 1.32 2 2 C1.34 2 0.68 2 0 2 C0 1.34 0 0.68 0 0 Z " fill="#000000" transform="translate(33,29)"/>
</svg>
