<?xml version="1.0" encoding="UTF-8"?>
<svg version="1.1" xmlns="http://www.w3.org/2000/svg" width="250" height="250">
<path d="M0 0 C82.5 0 165 0 250 0 C250 82.5 250 165 250 250 C167.5 250 85 250 0 250 C0 167.5 0 85 0 0 Z " fill="#1F4ECD" transform="translate(0,0)"/>
<path d="M0 0 C82.5 0 165 0 250 0 C250 82.5 250 165 250 250 C167.5 250 85 250 0 250 C0 167.5 0 85 0 0 Z M45 37 C44.02417969 37.88171875 43.04835937 38.7634375 42.04296875 39.671875 C19.48879604 60.76766305 6.83461165 90.57272864 5.71484375 121.2421875 C5.46963673 132.83149168 5.7750203 143.80384408 9 155 C9.19867676 155.69609375 9.39735352 156.3921875 9.60205078 157.109375 C18.64921586 188.12048167 37.5307684 214.31596908 66.04199219 230.1328125 C74.0486047 234.44319589 82.24476044 238.47271435 91 241 C91.60457031 241.18046875 92.20914063 241.3609375 92.83203125 241.546875 C123.46647357 250.35055939 156.5525753 245.27192123 184.34106445 230.35302734 C212.78913799 214.34068998 232.30473711 187.06458476 241 156 C241.34160156 154.79730469 241.68320313 153.59460938 242.03515625 152.35546875 C246.50970387 133.14613176 246.07918446 110.80121721 240 92 C239.79101074 91.32904297 239.58202148 90.65808594 239.36669922 89.96679688 C229.52793347 59.1018149 207.63919187 34.23092074 179.19921875 19.0703125 C172.38446035 15.60658019 165.31359409 13.17313437 158 11 C157.33403809 10.78972168 156.66807617 10.57944336 155.98193359 10.36279297 C117.79364128 -1.40393384 74.17766148 10.59102172 45 37 Z " fill="#FCFDFD" transform="translate(0,0)"/>
<path d="M0 0 C0.84796143 -0.00064453 1.69592285 -0.00128906 2.56958008 -0.00195312 C9.24849291 0.05385775 15.51177465 0.82631032 22.0625 2.1875 C22.0625 10.1075 22.0625 18.0275 22.0625 26.1875 C12.9375 26.4375 12.9375 26.4375 10.09716797 26.48535156 C4.69933288 26.7037943 1.22375954 27.42810665 -2.9375 31.1875 C-4.64700948 34.67996292 -5.21590509 37.62204512 -5.3515625 41.48828125 C-5.38717285 42.36911377 -5.4227832 43.24994629 -5.45947266 44.1574707 C-5.49347168 45.26050537 -5.5274707 46.36354004 -5.5625 47.5 C-5.748125 52.7903125 -5.748125 52.7903125 -5.9375 58.1875 C2.6425 58.1875 11.2225 58.1875 20.0625 58.1875 C19.50938732 67.31385927 18.56552161 76.16937034 17.0625 85.1875 C9.4725 85.1875 1.8825 85.1875 -5.9375 85.1875 C-5.9375 107.2975 -5.9375 129.4075 -5.9375 152.1875 C-15.8375 152.1875 -25.7375 152.1875 -35.9375 152.1875 C-35.9375 130.0775 -35.9375 107.9675 -35.9375 85.1875 C-43.5275 85.1875 -51.1175 85.1875 -58.9375 85.1875 C-58.9375 76.2775 -58.9375 67.3675 -58.9375 58.1875 C-51.0175 58.1875 -43.0975 58.1875 -34.9375 58.1875 C-34.98390625 56.00511719 -35.0303125 53.82273437 -35.078125 51.57421875 C-35.10946268 49.42279375 -35.13366889 47.27139572 -35.15722656 45.11987305 C-35.17714487 43.64286622 -35.20429007 42.16593616 -35.23925781 40.68920898 C-35.51233448 28.84651647 -34.69477747 18.01421054 -26.140625 8.9765625 C-18.27258927 2.58727107 -9.88100822 -0.00764414 0 0 Z " fill="#FBFDFD" transform="translate(143.9375,49.8125)"/>
<path d="M0 0 C2.30903272 3.98352209 1.86516528 6.50114053 1 11 C2.98 11 4.96 11 7 11 C7 43.67 7 76.34 7 110 C-39.86 110 -86.72 110 -135 110 C-134.505 109.01 -134.505 109.01 -134 108 C-131.71484375 107.3671875 -131.71484375 107.3671875 -128.9375 106.875 C-128.01839844 106.70742187 -127.09929687 106.53984375 -126.15234375 106.3671875 C-125.44207031 106.24601562 -124.73179688 106.12484375 -124 106 C-124 105.67 -124 105.34 -124 105 C-122.73929688 104.98582031 -121.47859375 104.97164063 -120.1796875 104.95703125 C-85.79513987 104.17375391 -55.47828188 92.18497687 -31.26586914 67.68579102 C-13.34909806 48.82999212 -3.94695387 25.41284332 0 0 Z " fill="#D2D1E1" transform="translate(243,140)"/>
<path d="M0 0 C-0.33 0.66 -0.66 1.32 -1 2 C-2.98 1.34 -4.96 0.68 -7 0 C-7.33 0.66 -7.66 1.32 -8 2 C-8 1.34 -8 0.68 -8 0 C-8.66 0 -9.32 0 -10 0 C-10 0.66 -10 1.32 -10 2 C-10.556875 1.814375 -11.11375 1.62875 -11.6875 1.4375 C-14.399133 0.92448835 -16.34371039 1.3359276 -19 2 C-19.35578125 1.1850708 -19.7115625 0.3701416 -20.078125 -0.46948242 C-21.79177807 -3.314366 -21.79177807 -3.314366 -25.046875 -3.56762695 C-26.26890625 -3.54144287 -27.4909375 -3.51525879 -28.75 -3.48828125 C-29.40452148 -3.48120651 -30.05904297 -3.47413177 -30.73339844 -3.46684265 C-32.82343552 -3.4388889 -34.91077752 -3.37622513 -37 -3.3125 C-38.40621083 -3.28741221 -39.81246422 -3.26459986 -41.21875 -3.24414062 C-43.79773356 -3.20330595 -46.37450925 -3.14649716 -48.953125 -3.0793457 C-50.96824034 -3.02686874 -52.98420148 -3 -55 -3 C-56.51315303 -2.56414614 -58.01295891 -2.08048598 -59.5 -1.5625 C-60.66015625 -1.16224609 -60.66015625 -1.16224609 -61.84375 -0.75390625 C-62.5553125 -0.50511719 -63.266875 -0.25632812 -64 0 C-67 1 -67 1 -70 1 C-75.08530824 1.90779056 -80.25937484 2.90530516 -85 5 C-86.74324087 7.50494008 -86.74324087 7.50494008 -87 10 C-89.31 9.67 -91.62 9.34 -94 9 C-94 9.66 -94 10.32 -94 11 C-94.78375 11.12375 -95.5675 11.2475 -96.375 11.375 C-99.14057822 11.79117993 -99.14057822 11.79117993 -101 14 C-100.505 14.99 -100.505 14.99 -100 16 C-100.66 16.99 -101.32 17.98 -102 19 C-102 18.34 -102 17.68 -102 17 C-102.66 17 -103.32 17 -104 17 C-104.28875 17.61875 -104.5775 18.2375 -104.875 18.875 C-106 21 -106 21 -108 23 C-109.32 23 -110.64 23 -112 23 C-111.505 24.485 -111.505 24.485 -111 26 C-113.49064888 26.68707555 -115.37886292 27 -118 27 C-118.061875 27.94875 -118.12375 28.8975 -118.1875 29.875 C-118.455625 30.90625 -118.72375 31.9375 -119 33 C-121.4375 34.125 -121.4375 34.125 -124 35 C-125.48396654 36.80092298 -125.48396654 36.80092298 -126 39 C-125.70194993 41.19747131 -125.70194993 41.19747131 -125 43 C-125.99 43 -126.98 43 -128 43 C-131.2800323 43.73952107 -131.2800323 43.73952107 -132.875 47 C-135 50 -135 50 -137.75 50.875 C-138.4925 50.91625 -139.235 50.9575 -140 51 C-140.33 54.3 -140.66 57.6 -141 61 C-143.475 61.495 -143.475 61.495 -146 62 C-146.12375 62.70125 -146.2475 63.4025 -146.375 64.125 C-147.20605553 67.94785545 -148.26647726 71.57610291 -150.0625 75.0625 C-151.1756604 77.36303148 -151.53255256 79.48746999 -152 82 C-152.309375 83.010625 -152.61875 84.02125 -152.9375 85.0625 C-155.75086332 94.73213394 -156.61689177 105.05339185 -158 115 C-157.34 115.33 -156.68 115.66 -156 116 C-156.309375 117.175625 -156.309375 117.175625 -156.625 118.375 C-157.12558059 123.21394568 -156.13028253 127.30498026 -155 132 C-154.72929687 133.12921875 -154.72929687 133.12921875 -154.453125 134.28125 C-153.80768736 136.90211801 -153.14398214 139.51281514 -152.37890625 142.1015625 C-152 144 -152 144 -153 146 C-153.66 146 -154.32 146 -155 146 C-155.48150942 143.95888458 -155.96010083 141.91708068 -156.4375 139.875 C-156.70433594 138.73804688 -156.97117188 137.60109375 -157.24609375 136.4296875 C-163.74981661 106.84280321 -157.34091616 74.2532035 -141.18701172 48.80664062 C-127.54099944 28.0373089 -109.58883438 13.14852159 -87 3 C-85.93265625 2.51660156 -84.8653125 2.03320312 -83.765625 1.53515625 C-57.25120389 -9.53495104 -27.02101719 -9.00700573 0 0 Z " fill="#2278E4" transform="translate(165,13)"/>
<path d="M0 0 C4.89787874 8.93384386 4.35625469 19.78893999 4.3125 29.6875 C4.31034485 30.35052124 4.3081897 31.01354248 4.30596924 31.69665527 C4.25317508 41.82153704 3.77886243 51.21630698 1 61 C0.80132324 61.70979004 0.60264648 62.41958008 0.39794922 63.15087891 C-5.38857572 83.34520077 -15.56654446 99.72650208 -30 115 C-30.98806641 116.06734375 -30.98806641 116.06734375 -31.99609375 117.15625 C-36.83521786 122.21931748 -42.15139844 126.16485144 -48 130 C-49.33332095 127.3333581 -48.67102033 125.83319697 -48 123 C-47.34 123.33 -46.68 123.66 -46 124 C-45.34 124 -44.68 124 -44 124 C-43.01 123.01 -43.01 123.01 -42 122 C-41.01 122 -40.02 122 -39 122 C-38.67 121.01 -38.34 120.02 -38 119 C-37.01 118.505 -37.01 118.505 -36 118 C-36.495 115.525 -36.495 115.525 -37 113 C-35.35 113 -33.7 113 -32 113 C-32 111.68 -32 110.36 -32 109 C-29.525 108.505 -29.525 108.505 -27 108 C-27 107.34 -27 106.68 -27 106 C-25.515 105.01 -25.515 105.01 -24 104 C-22.80767387 101.94996045 -22.80767387 101.94996045 -22 100 C-22.66 99.67 -23.32 99.34 -24 99 C-21.35261084 97.5393715 -20.10551666 97 -17 97 C-15.80712589 93.12315913 -15 90.08378077 -15 86 C-14.34 85.67 -13.68 85.34 -13 85 C-13.33 84.34 -13.66 83.68 -14 83 C-12.68 83 -11.36 83 -10 83 C-7.78564924 79.67847386 -7.90714097 78.80722039 -8 75 C-7.625 72.75 -7.625 72.75 -7 71 C-6.34 70.67 -5.68 70.34 -5 70 C-5 69.01 -5 68.02 -5 67 C-5.99 67.33 -6.98 67.66 -8 68 C-7.505 66.02 -7.505 66.02 -7 64 C-5.68 64 -4.36 64 -3 64 C-0.61807742 57.71444982 0.62793038 51.81211488 1.1875 45.125 C1.26645508 44.24223389 1.34541016 43.35946777 1.42675781 42.44995117 C2.2796671 32.43380538 2.04500286 23.05298319 0.71191406 13.09887695 C0.13076582 8.68701046 -0.09321221 4.45088281 0 0 Z " fill="#2F2193" transform="translate(240,95)"/>
<path d="M0 0 C0.6484375 1.77734375 0.6484375 1.77734375 1 4 C0.0390625 5.81640625 0.0390625 5.81640625 -1.375 7.5625 C-3.19394974 9.84380847 -4.05350883 11.16052648 -5 14 C-5.66 14 -6.32 14 -7 14 C-7 14.66 -7 15.32 -7 16 C-7.66 16 -8.32 16 -9 16 C-8.938125 16.763125 -8.87625 17.52625 -8.8125 18.3125 C-9.03921515 21.56208376 -9.8008608 21.8008608 -12 24 C-12.25069913 26.62570704 -12.25069913 26.62570704 -12 29 C-12.66 29.33 -13.32 29.66 -14 30 C-14 29.34 -14 28.68 -14 28 C-16.31 28.33 -18.62 28.66 -21 29 C-21.28875 29.78375 -21.5775 30.5675 -21.875 31.375 C-23 34 -23 34 -25 36 C-25.33 35.67 -25.66 35.34 -26 35 C-26.66 35.66 -27.32 36.32 -28 37 C-29.7369119 38.50253343 -31.49145805 39.98306716 -33.24609375 41.46484375 C-35.01880564 42.95670876 -35.01880564 42.95670876 -36.49609375 44.65234375 C-38.93726231 46.83988441 -41.83438026 46.64826447 -45 47 C-45.33 47.33 -45.66 47.66 -46 48 C-45.01 48.495 -45.01 48.495 -44 49 C-44 49.99 -44 50.98 -44 52 C-44.969375 51.979375 -45.93875 51.95875 -46.9375 51.9375 C-49.87465895 51.64381501 -49.87465895 51.64381501 -51 53 C-52.4540625 52.9071875 -52.4540625 52.9071875 -53.9375 52.8125 C-57.36246821 52.73561296 -59.70099414 53.60129469 -62.8125 55 C-67.9844934 57.25629205 -72.42847329 57.42675524 -78 57 C-78 56.67 -78 56.34 -78 56 C-76.89785156 55.731875 -75.79570312 55.46375 -74.66015625 55.1875 C-52.70184109 49.61493069 -35.36525062 39.62541108 -19 24 C-18.40058594 23.46375 -17.80117187 22.9275 -17.18359375 22.375 C-10.29374624 15.98070997 -5.18603194 7.77904791 0 0 Z " fill="#A2A0D0" transform="translate(228,186)"/>
<path d="M0 0 C-0.33 0.66 -0.66 1.32 -1 2 C-2.98 1.34 -4.96 0.68 -7 0 C-7.33 0.66 -7.66 1.32 -8 2 C-8 1.34 -8 0.68 -8 0 C-8.66 0 -9.32 0 -10 0 C-10 0.66 -10 1.32 -10 2 C-10.556875 1.814375 -11.11375 1.62875 -11.6875 1.4375 C-14.399133 0.92448835 -16.34371039 1.3359276 -19 2 C-19.35578125 1.1850708 -19.7115625 0.3701416 -20.078125 -0.46948242 C-21.79177807 -3.314366 -21.79177807 -3.314366 -25.046875 -3.56762695 C-26.26890625 -3.54144287 -27.4909375 -3.51525879 -28.75 -3.48828125 C-29.40452148 -3.48120651 -30.05904297 -3.47413177 -30.73339844 -3.46684265 C-32.82343552 -3.4388889 -34.91077752 -3.37622513 -37 -3.3125 C-38.40621083 -3.28741221 -39.81246422 -3.26459986 -41.21875 -3.24414062 C-43.79773356 -3.20330595 -46.37450925 -3.14649716 -48.953125 -3.0793457 C-50.96824034 -3.02686874 -52.98420148 -3 -55 -3 C-56.51315303 -2.56414614 -58.01295891 -2.08048598 -59.5 -1.5625 C-60.66015625 -1.16224609 -60.66015625 -1.16224609 -61.84375 -0.75390625 C-62.5553125 -0.50511719 -63.266875 -0.25632812 -64 0 C-67 1 -67 1 -70 1 C-75.08530824 1.90779056 -80.25937484 2.90530516 -85 5 C-86.74324087 7.50494008 -86.74324087 7.50494008 -87 10 C-89.31 9.67 -91.62 9.34 -94 9 C-94 9.66 -94 10.32 -94 11 C-94.9075 11.144375 -95.815 11.28875 -96.75 11.4375 C-99.21476956 11.86409473 -101.58847107 12.35074221 -104 13 C-101.20456148 9.60100089 -97.37078256 7.95777141 -93.5 6.0625 C-92.77659424 5.70768555 -92.05318848 5.35287109 -91.30786133 4.98730469 C-85.64201899 2.2467237 -80.06019055 -0.25066665 -74 -2 C-73.09314453 -2.27070313 -73.09314453 -2.27070313 -72.16796875 -2.546875 C-48.63033556 -9.31108803 -23.0788489 -7.69294963 0 0 Z " fill="#3375D1" transform="translate(165,13)"/>
<path d="M0 0 C0.33 0.66 0.66 1.32 1 2 C0.3503125 2.9590625 0.3503125 2.9590625 -0.3125 3.9375 C-2.76148396 8.38195237 -3.25895202 13.02190119 -4 18 C-5.65 18.33 -7.3 18.66 -9 19 C-9.12375 19.70125 -9.2475 20.4025 -9.375 21.125 C-10.20605553 24.94785545 -11.26647726 28.57610291 -13.0625 32.0625 C-14.1756604 34.36303148 -14.53255256 36.48746999 -15 39 C-15.309375 40.010625 -15.61875 41.02125 -15.9375 42.0625 C-18.75086332 51.73213394 -19.61689177 62.05339185 -21 72 C-20.34 72.33 -19.68 72.66 -19 73 C-19.309375 74.175625 -19.309375 74.175625 -19.625 75.375 C-20.12558059 80.21394568 -19.13028253 84.30498026 -18 89 C-17.81953125 89.7528125 -17.6390625 90.505625 -17.453125 91.28125 C-16.80768736 93.90211801 -16.14398214 96.51281514 -15.37890625 99.1015625 C-15 101 -15 101 -16 103 C-16.66 103 -17.32 103 -18 103 C-18.48150942 100.95888458 -18.96010083 98.91708068 -19.4375 96.875 C-19.70433594 95.73804688 -19.97117187 94.60109375 -20.24609375 93.4296875 C-27.017252 62.62618002 -19.6440355 30.32080033 -3 4 C-2.02228793 2.65023821 -1.03316446 1.30780311 0 0 Z " fill="#307BD9" transform="translate(28,56)"/>
<path d="M0 0 C0 0.66 0 1.32 0 2 C-0.64582031 1.9278125 -1.29164063 1.855625 -1.95703125 1.78125 C-25.42381876 -0.69503201 -25.42381876 -0.69503201 -46.5 8.4375 C-56.18853882 18.36825229 -56.48765048 29.53777473 -56.6875 42.5625 C-56.72073316 44.06317975 -56.75522819 45.56383211 -56.79101562 47.06445312 C-56.8775665 50.7096541 -56.93820276 54.35396292 -57 58 C-64.92 58 -72.84 58 -81 58 C-81 66.91 -81 75.82 -81 85 C-73.41 85 -65.82 85 -58 85 C-58 85.33 -58 85.66 -58 86 C-65.92 86 -73.84 86 -82 86 C-82 76.43 -82 66.86 -82 57 C-74.08 57 -66.16 57 -58 57 C-58 44.46 -58 31.92 -58 19 C-57.34 19 -56.68 19 -56 19 C-56.061875 18.236875 -56.12375 17.47375 -56.1875 16.6875 C-56 14 -56 14 -54.4375 12.5 C-53.963125 12.005 -53.48875 11.51 -53 11 C-53.23043864 8.34533951 -53.23043864 8.34533951 -54 6 C-51.69 6 -49.38 6 -47 6 C-46.67 5.34 -46.34 4.68 -46 4 C-37.0324583 -0.63232952 -28.4638025 -1.81481935 -18.5 -1.9375 C-17.26507813 -1.97939453 -16.03015625 -2.02128906 -14.7578125 -2.06445312 C-4.92140731 -2.30449555 -4.92140731 -2.30449555 0 0 Z " fill="#749BE1" transform="translate(166,50)"/>
<path d="M0 0 C7.92 0 15.84 0 24 0 C24 21.78 24 43.56 24 66 C34.23 66 44.46 66 55 66 C55 52.14 55 38.28 55 24 C55.33 24 55.66 24 56 24 C56.495 43.8 56.495 43.8 57 64 C57.99 64.495 57.99 64.495 59 65 C58.01 65.495 58.01 65.495 57 66 C57.99 67.485 57.99 67.485 59 69 C57.6875 70.5 57.6875 70.5 56 72 C55.01 72 54.02 72 53 72 C52.34 70.68 51.68 69.36 51 68 C49.68 68 48.36 68 47 68 C46.67 68.66 46.34 69.32 46 70 C45.34 70 44.68 70 44 70 C44 69.01 44 68.02 44 67 C43.12988281 67.10828125 43.12988281 67.10828125 42.2421875 67.21875 C38.62656849 67.6483285 35.27252513 68.01514028 31.625 67.8125 C28.84423708 67.71256783 28.84423708 67.71256783 27.125 70 C26.568125 70.99 26.568125 70.99 26 72 C25.34 70.68 24.68 69.36 24 68 C23.01 68 22.02 68 21 68 C21.495 66.515 21.495 66.515 22 65 C22.11734984 62.93033536 22.17681627 60.85721666 22.20532227 58.78442383 C22.22526749 57.5033223 22.24521271 56.22222076 22.26576233 54.90229797 C22.2827454 53.50387696 22.29962425 52.10545469 22.31640625 50.70703125 C22.33698166 49.2764171 22.35797829 47.84580895 22.37937927 46.41520691 C22.43453933 42.65219994 22.48397529 38.88913865 22.53222656 35.1260376 C22.58248593 31.28514784 22.63814883 27.44433684 22.69335938 23.60351562 C22.80086675 16.06907528 22.90182869 8.53456884 23 1 C15.41 1 7.82 1 0 1 C0 0.67 0 0.34 0 0 Z " fill="#253AAD" transform="translate(84,136)"/>
<path d="M0 0 C0.96679688 0.00902344 1.93359375 0.01804688 2.9296875 0.02734375 C3.65414062 0.03894531 4.37859375 0.05054688 5.125 0.0625 C3.57143691 2.93794203 2.4835217 4.88354497 0.125 7.0625 C-3.25107314 8.04276748 -6.49672099 7.88077366 -9.98828125 7.74609375 C-10.95783249 7.73618912 -11.92738373 7.72628448 -12.92631531 7.71607971 C-16.0149332 7.67697659 -19.09996157 7.58916298 -22.1875 7.5 C-24.28445378 7.46488084 -26.38146343 7.43294289 -28.47851562 7.40429688 C-33.61205449 7.3272276 -38.74291931 7.20647292 -43.875 7.0625 C-43.545 6.4025 -43.215 5.7425 -42.875 5.0625 C-40.58984375 4.4296875 -40.58984375 4.4296875 -37.8125 3.9375 C-36.89339844 3.76992187 -35.97429687 3.60234375 -35.02734375 3.4296875 C-34.31707031 3.30851563 -33.60679688 3.18734375 -32.875 3.0625 C-32.875 2.7325 -32.875 2.4025 -32.875 2.0625 C-31.96790283 2.02491577 -31.96790283 2.02491577 -31.04248047 1.98657227 C-28.2781438 1.86986994 -25.51408634 1.74748266 -22.75 1.625 C-21.79867187 1.58568359 -20.84734375 1.54636719 -19.8671875 1.50585938 C-13.19602577 1.20473055 -6.66650164 -0.0812988 0 0 Z " fill="#CBCCE1" transform="translate(151.875,242.9375)"/>
<path d="M0 0 C0.33 0 0.66 0 1 0 C1 10.56 1 21.12 1 32 C-6.92 32 -14.84 32 -23 32 C-23 41.57 -23 51.14 -23 61 C-23.33 61 -23.66 61 -24 61 C-24 53.08 -24 45.16 -24 37 C-24.99 37 -25.98 37 -27 37 C-26.01 34.03 -26.01 34.03 -25 31 C-25.66 31 -26.32 31 -27 31 C-27 30.34 -27 29.68 -27 29 C-26.2575 29.185625 -25.515 29.37125 -24.75 29.5625 C-22.05009037 29.99203108 -20.55368923 29.85122974 -18 29 C-18 28.34 -18 27.68 -18 27 C-16.35 27 -14.7 27 -13 27 C-13 26.34 -13 25.68 -13 25 C-10.69 25.33 -8.38 25.66 -6 26 C-6.33 27.65 -6.66 29.3 -7 31 C-3.535 30.505 -3.535 30.505 0 30 C-0.15597656 28.71222656 -0.31195313 27.42445312 -0.47265625 26.09765625 C-0.66955785 24.41930448 -0.86615686 22.74091719 -1.0625 21.0625 C-1.16626953 20.21236328 -1.27003906 19.36222656 -1.37695312 18.48632812 C-1.47041016 17.67744141 -1.56386719 16.86855469 -1.66015625 16.03515625 C-1.74918213 15.2862915 -1.83820801 14.53742676 -1.92993164 13.76586914 C-1.9530542 13.18313232 -1.97617676 12.60039551 -2 12 C-1.67 11.67 -1.34 11.34 -1 11 C-0.95936168 9.33382885 -0.957279 7.66611905 -1 6 C-1.66 5.67 -2.32 5.34 -3 5 C-2 2 -2 2 0 0 Z " fill="#255DC7" transform="translate(107,75)"/>
<path d="M0 0 C2.76223278 2.76223278 2.57856291 5.20706617 3 9 C2.34 9 1.68 9 1 9 C0.96261719 9.75925781 0.92523438 10.51851562 0.88671875 11.30078125 C0.82097656 12.29464844 0.75523437 13.28851563 0.6875 14.3125 C0.62949219 15.29863281 0.57148438 16.28476563 0.51171875 17.30078125 C-0.07091698 20.37407351 -0.56126404 21.12967087 -3 23 C-5.17651367 23.34057617 -5.17651367 23.34057617 -7.66796875 23.29296875 C-8.56064453 23.28330078 -9.45332031 23.27363281 -10.37304688 23.26367188 C-11.76620117 23.2259668 -11.76620117 23.2259668 -13.1875 23.1875 C-14.12787109 23.17396484 -15.06824219 23.16042969 -16.03710938 23.14648438 C-18.35865038 23.11113096 -20.67903653 23.06178674 -23 23 C-22.98839844 24.10085937 -22.97679687 25.20171875 -22.96484375 26.3359375 C-22.83074866 46.56334316 -23.47067564 66.78149875 -24 87 C-24.33 87 -24.66 87 -25 87 C-25 64.89 -25 42.78 -25 20 C-17.41 20 -9.82 20 -2 20 C-1.855625 17.999375 -1.71125 15.99875 -1.5625 13.9375 C-1.20439703 9.2514669 -0.75492631 4.63740446 0 0 Z " fill="#5268C1" transform="translate(163,115)"/>
<path d="M0 0 C-20.75297894 13.15554927 -42.69025683 19.4642292 -67.25 19.4375 C-67.92155121 19.43781219 -68.59310242 19.43812439 -69.28500366 19.43844604 C-80.60165993 19.39834007 -80.60165993 19.39834007 -83 17 C-75.51644177 15.79206122 -68.12770406 15.92284341 -60.5625 16 C-58.02217662 16.02536519 -55.48180554 16.04644692 -52.94140625 16.0625 C-51.82451416 16.07410156 -50.70762207 16.08570313 -49.55688477 16.09765625 C-47.06602093 16.29255574 -47.06602093 16.29255574 -46 15 C-40.69378797 13.63097731 -35.49585235 12.71074461 -30 13 C-30.495 10.03 -30.495 10.03 -31 7 C-28 6 -28 6 -25.8125 6.9375 C-25.214375 7.288125 -24.61625 7.63875 -24 8 C-24.66 8 -25.32 8 -26 8 C-26 8.66 -26 9.32 -26 10 C-24.63875 9.2575 -24.63875 9.2575 -23.25 8.5 C-20 7 -20 7 -16 7 C-15.67 6.01 -15.34 5.02 -15 4 C-11.535 3.505 -11.535 3.505 -8 3 C-8 2.34 -8 1.68 -8 1 C-3.375 -1.125 -3.375 -1.125 0 0 Z " fill="#302898" transform="translate(191,226)"/>
<path d="M0 0 C1.17433594 0.59167969 2.34867187 1.18335938 3.55859375 1.79296875 C23.89876987 11.85763971 43.50416751 15.87590452 66 18 C66 18.33 66 18.66 66 19 C60.06 19.33 54.12 19.66 48 20 C48 19.34 48 18.68 48 18 C45.69 17.67 43.38 17.34 41 17 C40.67 17.66 40.34 18.32 40 19 C38.906875 18.62875 37.81375 18.2575 36.6875 17.875 C35.470625 17.58625 34.25375 17.2975 33 17 C32.01 17.66 31.02 18.32 30 19 C29.67 17.68 29.34 16.36 29 15 C28.46246094 14.88785156 27.92492187 14.77570313 27.37109375 14.66015625 C23.4044128 13.55575908 19.72674145 11.73393139 15.97265625 10.05859375 C13.0404214 9.01439448 11.07577577 8.70579536 8 9 C7.01 9.495 7.01 9.495 6 10 C6 9.34 6 8.68 6 8 C5.34 7.67 4.68 7.34 4 7 C4.66 7 5.32 7 6 7 C6 6.34 6 5.68 6 5 C5.195625 4.731875 4.39125 4.46375 3.5625 4.1875 C2.716875 3.795625 1.87125 3.40375 1 3 C0.67 2.01 0.34 1.02 0 0 Z " fill="#DDE2F8" transform="translate(63,228)"/>
<path d="M0 0 C4.89837961 8.93475746 4.35440656 19.78816888 4.3125 29.6875 C4.31134186 30.34753021 4.31018372 31.00756042 4.30899048 31.68759155 C4.26208311 45.20776854 2.76934976 57.28173396 -2 70 C-2.33 70 -2.66 70 -3 70 C-2.88382356 68.62422639 -2.75654223 67.24938955 -2.625 65.875 C-2.55539063 65.10929687 -2.48578125 64.34359375 -2.4140625 63.5546875 C-2 61 -2 61 -1.03125 58.30078125 C0.31363487 53.9961308 0.71761564 49.79079409 1.125 45.3125 C1.2084668 44.41619873 1.29193359 43.51989746 1.37792969 42.59643555 C2.27396366 32.52153925 2.05317082 23.11397294 0.71191406 13.09887695 C0.13076582 8.68701046 -0.09321221 4.45088281 0 0 Z " fill="#33309A" transform="translate(240,95)"/>
<path d="M0 0 C0.66 0.66 1.32 1.32 2 2 C1.828125 3.890625 1.828125 3.890625 1.25 6.25 C-0.22458927 12.78032391 -1.10193807 19.36962787 -2 26 C-1.34 26.33 -0.68 26.66 0 27 C-0.20625 27.78375 -0.4125 28.5675 -0.625 29.375 C-1.12558059 34.21394568 -0.13028253 38.30498026 1 43 C1.18046875 43.7528125 1.3609375 44.505625 1.546875 45.28125 C2.19231264 47.90211801 2.85601786 50.51281514 3.62109375 53.1015625 C4 55 4 55 3 57 C2.34 57 1.68 57 1 57 C0.51849058 54.95888458 0.03989917 52.91708068 -0.4375 50.875 C-0.70433594 49.73804688 -0.97117187 48.60109375 -1.24609375 47.4296875 C-2.36831601 42.32444841 -3.12665432 37.49573458 -3.1328125 32.26171875 C-3.13410156 31.19373047 -3.13539063 30.12574219 -3.13671875 29.02539062 C-3.13285156 27.92388672 -3.12898437 26.82238281 -3.125 25.6875 C-3.12886719 24.59759766 -3.13273438 23.50769531 -3.13671875 22.38476562 C-3.1166308 5.68163853 -3.1166308 5.68163853 0 0 Z " fill="#2A70D9" transform="translate(9,102)"/>
<path d="M0 0 C0.66 0.33 1.32 0.66 2 1 C2 4 2 4 0 7 C0 6.34 0 5.68 0 5 C-0.66 5 -1.32 5 -2 5 C-2.433125 5.928125 -2.433125 5.928125 -2.875 6.875 C-4 9 -4 9 -6 11 C-7.32 11 -8.64 11 -10 11 C-9.67 11.99 -9.34 12.98 -9 14 C-11.49064888 14.68707555 -13.37886292 15 -16 15 C-16.33 16.98 -16.66 18.96 -17 21 C-18.98 21.33 -20.96 21.66 -23 22 C-23 19 -23 19 -21.27734375 16.87890625 C-10.28836425 6 -10.28836425 6 -5 6 C-4.731875 5.195625 -4.46375 4.39125 -4.1875 3.5625 C-3.795625 2.716875 -3.40375 1.87125 -3 1 C-2.01 0.67 -1.02 0.34 0 0 Z " fill="#1676F1" transform="translate(63,25)"/>
<path d="M0 0 C1.8253125 0.0309375 1.8253125 0.0309375 3.6875 0.0625 C3.6875 0.7225 3.6875 1.3825 3.6875 2.0625 C-1.9375 4.0625 -1.9375 4.0625 -5.3125 4.0625 C-10.39780824 4.97029056 -15.57187484 5.96780516 -20.3125 8.0625 C-22.05574087 10.56744008 -22.05574087 10.56744008 -22.3125 13.0625 C-24.6225 12.7325 -26.9325 12.4025 -29.3125 12.0625 C-29.3125 12.7225 -29.3125 13.3825 -29.3125 14.0625 C-30.22 14.206875 -31.1275 14.35125 -32.0625 14.5 C-34.52726956 14.92659473 -36.90097107 15.41324221 -39.3125 16.0625 C-36.51668379 12.66304165 -32.68292469 11.02182685 -28.8125 9.125 C-28.09924561 8.77236084 -27.38599121 8.41972168 -26.65112305 8.05639648 C-18.26307455 3.97416886 -9.50613916 -0.161121 0 0 Z " fill="#2A78DD" transform="translate(100.3125,9.9375)"/>
<path d="M0 0 C7.92 0 15.84 0 24 0 C24.33 21.78 24.66 43.56 25 66 C26.32 66.66 27.64 67.32 29 68 C28.01 69.32 27.02 70.64 26 72 C25.34 70.68 24.68 69.36 24 68 C23.01 68 22.02 68 21 68 C21.495 66.515 21.495 66.515 22 65 C22.11734984 62.93033536 22.17681627 60.85721666 22.20532227 58.78442383 C22.22526749 57.5033223 22.24521271 56.22222076 22.26576233 54.90229797 C22.2827454 53.50387696 22.29962425 52.10545469 22.31640625 50.70703125 C22.33698166 49.2764171 22.35797829 47.84580895 22.37937927 46.41520691 C22.43453933 42.65219994 22.48397529 38.88913865 22.53222656 35.1260376 C22.58248593 31.28514784 22.63814883 27.44433684 22.69335938 23.60351562 C22.80086675 16.06907528 22.90182869 8.53456884 23 1 C15.41 1 7.82 1 0 1 C0 0.67 0 0.34 0 0 Z " fill="#2A4CB5" transform="translate(84,136)"/>
<path d="M0 0 C6.75 1.875 6.75 1.875 9 3 C9 3.66 9 4.32 9 5 C9.886875 5.12375 10.77375 5.2475 11.6875 5.375 C15 6 15 6 17.5 7.125 C20.65784904 8.23024716 22.74911472 7.56537135 26 7 C26.99 7.66 27.98 8.32 29 9 C29 9.66 29 10.32 29 11 C32.87353588 12.85606927 36.08597321 14.14443602 40.375 14.5625 C42.169375 14.7790625 42.169375 14.7790625 44 15 C44.495 15.99 44.495 15.99 45 17 C39.69846518 17.22061003 35.11138525 16.51891429 30.0625 15 C29.33321289 14.78359863 28.60392578 14.56719727 27.85253906 14.34423828 C18.06416419 11.27721415 8.61518975 6.55712621 0 1 C0 0.67 0 0.34 0 0 Z " fill="#3843A7" transform="translate(61,226)"/>
<path d="M0 0 C7.57774471 2.70824327 13.55080679 8.19924594 19 14 C15.18610442 15.79477439 12.21354337 16.37453719 8 16 C7.34 15.34 6.68 14.68 6 14 C6.03287583 11.27130593 6.56397771 8.7033382 7 6 C6.030625 5.7525 5.06125 5.505 4.0625 5.25 C3.051875 4.8375 2.04125 4.425 1 4 C0.125 1.875 0.125 1.875 0 0 Z M0 4 C0.33 4.66 0.66 5.32 1 6 C0.34 5.67 -0.32 5.34 -1 5 C-0.67 4.67 -0.34 4.34 0 4 Z " fill="#1F59CF" transform="translate(186,24)"/>
<path d="M0 0 C0.33 0 0.66 0 1 0 C1.02505615 0.62044189 1.0501123 1.24088379 1.07592773 1.88012695 C1.19196721 4.69112397 1.31465759 7.50179241 1.4375 10.3125 C1.47681641 11.28896484 1.51613281 12.26542969 1.55664062 13.27148438 C1.59853516 14.20927734 1.64042969 15.14707031 1.68359375 16.11328125 C1.72025146 16.97735596 1.75690918 17.84143066 1.79467773 18.73168945 C1.92747354 21.1647826 1.92747354 21.1647826 3 24 C2.25 26.125 2.25 26.125 1 28 C0.01 28.33 -0.98 28.66 -2 29 C-2 28.34 -2 27.68 -2 27 C-2.66 27 -3.32 27 -4 27 C-4.33 27.66 -4.66 28.32 -5 29 C-5.56203125 28.67257813 -6.1240625 28.34515625 -6.703125 28.0078125 C-9.26859964 26.88214506 -10.96842277 26.7931889 -13.75 26.875 C-14.94882813 26.90207031 -14.94882813 26.90207031 -16.171875 26.9296875 C-16.77515625 26.95289062 -17.3784375 26.97609375 -18 27 C-18.33 27.66 -18.66 28.32 -19 29 C-20.65 29 -22.3 29 -24 29 C-20.24235206 25.07154988 -20.24235206 25.07154988 -17.02880859 24.88647461 C-15.8505249 24.89432983 -15.8505249 24.89432983 -14.6484375 24.90234375 C-13.88192871 24.90484131 -13.11541992 24.90733887 -12.32568359 24.90991211 C-11.35195801 24.91901611 -10.37823242 24.92812012 -9.375 24.9375 C-4.734375 24.9684375 -4.734375 24.9684375 0 25 C0 16.75 0 8.5 0 0 Z " fill="#2556C4" transform="translate(166,51)"/>
<path d="M0 0 C0.66 0 1.32 0 2 0 C2.50615298 1.26839526 3.00469099 2.53983102 3.5 3.8125 C3.91765625 4.87404297 3.91765625 4.87404297 4.34375 5.95703125 C5 8 5 8 5 11 C5.99 11.33 6.98 11.66 8 12 C8 12.66 8 13.32 8 14 C9.32 13.67 10.64 13.34 12 13 C12.19658808 14.41543415 12.38187546 15.83244031 12.5625 17.25 C12.66691406 18.03890625 12.77132813 18.8278125 12.87890625 19.640625 C13.00027349 22.00532874 12.69633257 23.7511037 12 26 C8.2504068 21.83654441 6.33592413 17.57320613 4.3125 12.4375 C4.00505859 11.68275391 3.69761719 10.92800781 3.38085938 10.15039062 C2.02677166 6.78739379 0.82072518 3.53743875 0 0 Z " fill="#2766D1" transform="translate(11,161)"/>
<path d="M0 0 C0.6484375 1.77734375 0.6484375 1.77734375 1 4 C0.0390625 5.81640625 0.0390625 5.81640625 -1.375 7.5625 C-3.19394974 9.84380847 -4.05350883 11.16052648 -5 14 C-5.66 14 -6.32 14 -7 14 C-7 14.66 -7 15.32 -7 16 C-7.66 16 -8.32 16 -9 16 C-8.9071875 17.1446875 -8.9071875 17.1446875 -8.8125 18.3125 C-9.03921515 21.56208376 -9.8008608 21.8008608 -12 24 C-12.25069913 26.62570704 -12.25069913 26.62570704 -12 29 C-12.66 29.33 -13.32 29.66 -14 30 C-15.58813253 24.10719246 -13.75452935 20.25864694 -11 15 C-9.3268866 12.58328065 -7.55496593 10.31655015 -5.68359375 8.05078125 C-3.57504576 5.48236432 -1.79176426 2.79515224 0 0 Z " fill="#B5B2DD" transform="translate(228,186)"/>
<path d="M0 0 C1.32 0.33 2.64 0.66 4 1 C5.60846697 6.70112181 4.1655346 10.01922294 1.75 15.125 C1.28013672 16.17880859 1.28013672 16.17880859 0.80078125 17.25390625 C-0.81912883 20.80964248 -2.46918031 23.98488765 -5 27 C-5.66 24.36 -6.32 21.72 -7 19 C-5.68 19 -4.36 19 -3 19 C-0.78564924 15.67847386 -0.90714097 14.80722039 -1 11 C-0.625 8.75 -0.625 8.75 0 7 C0.66 6.67 1.32 6.34 2 6 C2 5.01 2 4.02 2 3 C1.01 3.33 0.02 3.66 -1 4 C-0.67 2.68 -0.34 1.36 0 0 Z " fill="#33289B" transform="translate(233,159)"/>
<path d="M0 0 C-1.64189296 1.98700422 -2.49390896 2.92039017 -5.0859375 3.328125 C-5.84132812 3.30234375 -6.59671875 3.2765625 -7.375 3.25 C-8.16519531 3.22421875 -8.95539063 3.1984375 -9.76953125 3.171875 C-12.24095064 2.98143288 -14.59887937 2.61964403 -17 2 C-17 0.68 -17 -0.64 -17 -2 C-10.32665791 -4.90145308 -6.35840078 -3.09604223 0 0 Z " fill="#1963DA" transform="translate(181,20)"/>
<path d="M0 0 C-1.39957179 2.63765454 -2.82403854 4.93774674 -5 7 C-7.90516143 7.63902812 -9.99278126 7.35678866 -13 7 C-13 5.35 -13 3.7 -13 2 C-14.32 1.67 -15.64 1.34 -17 1 C-11.33357449 -0.22517308 -5.76291482 -0.09228867 0 0 Z " fill="#C2C1D6" transform="translate(157,243)"/>
<path d="M0 0 C0 0.66 0 1.32 0 2 C-0.64582031 1.9278125 -1.29164063 1.855625 -1.95703125 1.78125 C-21.87717704 -0.40291793 -21.87717704 -0.40291793 -40.75 4.90625 C-43 6 -43 6 -46 6 C-46 5.34 -46 4.68 -46 4 C-36.70918159 -0.22265753 -28.66828872 -1.81230158 -18.5 -1.9375 C-17.26507813 -1.97939453 -16.03015625 -2.02128906 -14.7578125 -2.06445312 C-4.92140731 -2.30449555 -4.92140731 -2.30449555 0 0 Z " fill="#366BC7" transform="translate(166,50)"/>
<path d="M0 0 C1.02150398 0.03541649 1.02150398 0.03541649 2.06364441 0.07154846 C4.22365787 0.14769011 6.38326703 0.23192444 8.54296875 0.31640625 C10.01365256 0.36967664 11.48435568 0.42241664 12.95507812 0.47460938 C16.54711899 0.60323714 20.1388428 0.73912097 23.73046875 0.87890625 C20.11280879 3.14514798 17.0607519 3.13676108 12.84765625 3.14453125 C11.86443893 3.14740143 11.86443893 3.14740143 10.86135864 3.15032959 C9.48129897 3.15168628 8.10122632 3.14802596 6.72119141 3.13964844 C4.60550491 3.12890643 2.49066082 3.1395781 0.375 3.15234375 C-0.96744979 3.15102274 -2.30989906 3.14846155 -3.65234375 3.14453125 C-4.87324707 3.14227539 -6.09415039 3.14001953 -7.35205078 3.13769531 C-10.26953125 2.87890625 -10.26953125 2.87890625 -12.26953125 0.87890625 C-8.09070103 -0.15794636 -4.29319841 -0.15900735 0 0 Z " fill="#34369C" transform="translate(120.26953125,242.12109375)"/>
<path d="M0 0 C1.2869645 2.573929 0.82866551 3.37926396 -0.0625 6.0625 C-0.90625 8.2421875 -0.90625 8.2421875 -2 10 C-5.0625 10.6875 -5.0625 10.6875 -8 11 C-9.32481546 13.39529669 -9.32481546 13.39529669 -10 16 C-10.66 16.66 -11.32 17.32 -12 18 C-12.66 17.67 -13.32 17.34 -14 17 C-12.52778565 11.97769914 -9.5510349 9.19721778 -5.875 5.6875 C-5.31167969 5.13771484 -4.74835938 4.58792969 -4.16796875 4.02148438 C-2.78537942 2.67404562 -1.39359084 1.33605727 0 0 Z " fill="#AAA6D7" transform="translate(215,204)"/>
<path d="M0 0 C7.74201581 0.38577055 14.67671225 1.42388772 22 4 C21.67 4.66 21.34 5.32 21 6 C19.02 5.34 17.04 4.68 15 4 C14.67 4.66 14.34 5.32 14 6 C14 5.34 14 4.68 14 4 C13.34 4 12.68 4 12 4 C12 4.66 12 5.32 12 6 C11.443125 5.814375 10.88625 5.62875 10.3125 5.4375 C7.600867 4.92448835 5.65628961 5.3359276 3 6 C2.01 4.02 1.02 2.04 0 0 Z " fill="#1A68E2" transform="translate(143,9)"/>
<path d="M0 0 C2.93693991 3.46771219 4.57954335 7.32385838 6.25 11.5 C6.53101563 12.16386719 6.81203125 12.82773438 7.1015625 13.51171875 C8.23439233 16.32136105 9.07643958 18.42488315 8.671875 21.46875 C8.45015625 21.9740625 8.2284375 22.479375 8 23 C7.34 21.35 6.68 19.7 6 18 C5.01 18.66 4.02 19.32 3 20 C2.67 17.69 2.34 15.38 2 13 C2.66 13 3.32 13 4 13 C3.67 11.68 3.34 10.36 3 9 C2.34 9 1.68 9 1 9 C0.67 6.03 0.34 3.06 0 0 Z " fill="#2E41B0" transform="translate(230,70)"/>
<path d="M0 0 C4.85643138 2.34448412 7.24196608 4.36650302 10 9 C11.81287195 11.39795381 11.81287195 11.39795381 14 13 C16.21858253 12.86358623 16.21858253 12.86358623 18 12 C19 15 19 15 18 18 C18.99 18.33 19.98 18.66 21 19 C20.67 19.66 20.34 20.32 20 21 C1.57692308 4.73076923 1.57692308 4.73076923 0 0 Z " fill="#375CBF" transform="translate(32,200)"/>
<path d="M0 0 C0.92111572 0.12846313 0.92111572 0.12846313 1.86083984 0.25952148 C4.69862378 0.65414665 7.53680585 1.04583649 10.375 1.4375 C11.34050781 1.57220703 12.30601563 1.70691406 13.30078125 1.84570312 C19.52359716 2.70186236 25.74498886 3.42394833 32 4 C32 4.33 32 4.66 32 5 C26.06 5.33 20.12 5.66 14 6 C14 5.34 14 4.68 14 4 C11.69 3.67 9.38 3.34 7 3 C6.67 3.66 6.34 4.32 6 5 C4.02 4.34 2.04 3.68 0 3 C0 2.01 0 1.02 0 0 Z " fill="#D3D7F6" transform="translate(97,242)"/>
<path d="M0 0 C2.31 0.33 4.62 0.66 7 1 C6.125 3.5 6.125 3.5 4 6 C0.63291991 6.46087248 -2.62114388 6.28526928 -6 6 C-6.33 5.34 -6.66 4.68 -7 4 C-6.34 4 -5.68 4 -5 4 C-5 3.34 -5 2.68 -5 2 C-3.35 2 -1.7 2 0 2 C0 1.34 0 0.68 0 0 Z " fill="#1C61DB" transform="translate(94,100)"/>
<path d="M0 0 C1.22963633 3.68890899 1.55670401 7.13699206 2 11 C0.02 11.99 -1.96 12.98 -4 14 C-3.71926927 11.85270859 -3.42511501 9.70716807 -3.125 7.5625 C-2.96257812 6.36753906 -2.80015625 5.17257813 -2.6328125 3.94140625 C-2.42398438 2.97074219 -2.21515625 2.00007813 -2 1 C-1.34 0.67 -0.68 0.34 0 0 Z " fill="#2243C3" transform="translate(166,123)"/>
<path d="M0 0 C0.33 0.99 0.66 1.98 1 3 C0.07349716 4.72064814 -0.8633621 6.43736235 -1.875 8.109375 C-5.07620567 13.48917897 -6.38354839 17.73537628 -6 24 C-6.66 24 -7.32 24 -8 24 C-8.62091001 15.77294232 -6.52670949 8.57950511 -1.75 1.8125 C-1.1725 1.214375 -0.595 0.61625 0 0 Z " fill="#E5F7FE" transform="translate(117,60)"/>
<path d="M0 0 C4.02951393 3.7432252 6.92492169 7.64721125 9.8125 12.3125 C10.21919922 12.95767578 10.62589844 13.60285156 11.04492188 14.26757812 C12.0358257 15.84136655 13.01875372 17.42017212 14 19 C13.01 19.33 12.02 19.66 11 20 C10.67 18.35 10.34 16.7 10 15 C7.03 14.505 7.03 14.505 4 14 C4.0825 13.13375 4.165 12.2675 4.25 11.375 C3.94305419 7.23123155 2.40923908 5.31270374 0 2 C0 1.34 0 0.68 0 0 Z " fill="#3451B8" transform="translate(216,49)"/>
<path d="M0 0 C0 3 0 3 -1.0625 4.4375 C-3 6 -3 6 -6 7.5 C-11.91076165 10.70325147 -16.40242637 16.1779517 -21 21 C-21.66 20.67 -22.32 20.34 -23 20 C-15.805464 12.46645445 -8.68996648 5.8161193 0 0 Z " fill="#337CD4" transform="translate(59,26)"/>
<path d="M0 0 C6.75 1.875 6.75 1.875 9 3 C9 3.66 9 4.32 9 5 C9.886875 5.103125 10.77375 5.20625 11.6875 5.3125 C15.10685807 6.02217809 17.10943744 7.09831411 20 9 C21.32608822 9.68096422 22.65686601 10.35330586 24 11 C21 12 21 12 17.3828125 10.453125 C15.95833358 9.72890394 14.53921881 8.99405746 13.125 8.25 C12.41730469 7.8890625 11.70960937 7.528125 10.98046875 7.15625 C7.24288703 5.23525828 3.52467269 3.29449281 0 1 C0 0.67 0 0.34 0 0 Z " fill="#3F4EB4" transform="translate(61,226)"/>
<path d="M0 0 C1.65 0 3.3 0 5 0 C5.66 1.65 6.32 3.3 7 5 C6.01 4.67 5.02 4.34 4 4 C3.67 5.65 3.34 7.3 3 9 C-2.875 5.375 -2.875 5.375 -4 2 C-2.68 2 -1.36 2 0 2 C0 1.34 0 0.68 0 0 Z " fill="#214AC5" transform="translate(57,217)"/>
<path d="M0 0 C4.16427952 7.53787305 4.362289 15.69003707 3 24 C2.67 24 2.34 24 2 24 C1.66148822 21.31306278 1.329064 18.62559711 1 15.9375 C0.90460938 15.18533203 0.80921875 14.43316406 0.7109375 13.65820312 C0.15428098 9.06578683 -0.09829028 4.6257865 0 0 Z " fill="#434AAC" transform="translate(240,95)"/>
<path d="M0 0 C2.76223278 2.76223278 2.57856291 5.20706617 3 9 C2.34 9 1.68 9 1 9 C0.67 12.3 0.34 15.6 0 19 C-0.66 19 -1.32 19 -2 19 C-1.50873071 12.63440427 -1.00344253 6.30735307 0 0 Z " fill="#3D58B7" transform="translate(163,115)"/>
<path d="M0 0 C1.0725 0.165 2.145 0.33 3.25 0.5 C6.63617619 0.95149016 8.75681674 0.88450453 12 0 C12 0.66 12 1.32 12 2 C10.56570999 2.67354499 9.12742943 3.33859701 7.6875 4 C6.48673828 4.556875 6.48673828 4.556875 5.26171875 5.125 C3 6 3 6 0 6 C-0.38218767 4.34385343 -0.71395102 2.67542976 -1 1 C-0.67 0.67 -0.34 0.34 0 0 Z " fill="#1965E1" transform="translate(121,48)"/>
<path d="M0 0 C0 7.96666667 0 7.96666667 -2.875 10.9375 C-5 12 -5 12 -8 11 C-6.68 8.69 -5.36 6.38 -4 4 C-3.34 4 -2.68 4 -2 4 C-1.34 2.68 -0.68 1.36 0 0 Z " fill="#1777F1" transform="translate(33,52)"/>
<path d="M0 0 C1.98270912 0.95098266 3.96108379 1.91100703 5.9375 2.875 C7.03964844 3.40867188 8.14179687 3.94234375 9.27734375 4.4921875 C12 6 12 6 13 8 C10.69 8.66 8.38 9.32 6 10 C6 9.34 6 8.68 6 8 C5.34 7.67 4.68 7.34 4 7 C4.66 7 5.32 7 6 7 C6 6.34 6 5.68 6 5 C5.195625 4.731875 4.39125 4.46375 3.5625 4.1875 C2.716875 3.795625 1.87125 3.40375 1 3 C0.67 2.01 0.34 1.02 0 0 Z " fill="#E6ECFB" transform="translate(63,228)"/>
<path d="M0 0 C9.57 0 19.14 0 29 0 C29 0.33 29 0.66 29 1 C27.865625 1.12375 26.73125 1.2475 25.5625 1.375 C23.7990625 1.684375 23.7990625 1.684375 22 2 C21.67 2.66 21.34 3.32 21 4 C20.34 4 19.68 4 19 4 C19 3.01 19 2.02 19 1 C17.72125 1.185625 16.4425 1.37125 15.125 1.5625 C9.97248934 2.15229454 5.12014627 1.69480064 0 1 C0 0.67 0 0.34 0 0 Z " fill="#293AA0" transform="translate(109,202)"/>
<path d="M0 0 C3.77548716 1.33882523 6.61387689 3.01635888 9.75 5.5 C10.52859375 6.1084375 11.3071875 6.716875 12.109375 7.34375 C14 9 14 9 15 11 C14.01 11 13.02 11 12 11 C12 10.34 12 9.68 12 9 C11.1028125 8.8453125 11.1028125 8.8453125 10.1875 8.6875 C7.67774646 7.89872032 6.82982914 6.82982914 5 5 C2.89667109 4.28552357 2.89667109 4.28552357 1 4 C0.67 2.68 0.34 1.36 0 0 Z M0 4 C0.33 4.66 0.66 5.32 1 6 C0.34 5.67 -0.32 5.34 -1 5 C-0.67 4.67 -0.34 4.34 0 4 Z " fill="#305EC5" transform="translate(186,24)"/>
<path d="M0 0 C2.97 0 5.94 0 9 0 C6.03 3.96 6.03 3.96 3 8 C0 4 0 4 0 0 Z " fill="#2269D6" transform="translate(112,56)"/>
<path d="M0 0 C1.98384711 3.96769422 1.32630565 8.85529486 0 13 C0.66 13 1.32 13 2 13 C2 13.66 2 14.32 2 15 C0.68 15.33 -0.64 15.66 -2 16 C-2.05423638 14.08364783 -2.09289963 12.16685075 -2.125 10.25 C-2.14820313 9.18265625 -2.17140625 8.1153125 -2.1953125 7.015625 C-2.00487687 4.07529894 -1.52670104 2.47638122 0 0 Z " fill="#2A5DCA" transform="translate(141,80)"/>
<path d="M0 0 C2.44743769 3.73704909 2.09305703 6.83157846 1.75 11.1875 C1.61851562 13.06501953 1.61851562 13.06501953 1.484375 14.98046875 C1.32453125 15.97691406 1.1646875 16.97335938 1 18 C0.34 18.33 -0.32 18.66 -1 19 C-2.21060988 16.57878025 -1.96741169 15.53100415 -1.625 12.875 C-1.52574219 12.07964844 -1.42648438 11.28429687 -1.32421875 10.46484375 C-1.21722656 9.65144531 -1.11023438 8.83804688 -1 8 C-0.81209432 6.47921674 -0.62456102 4.95838739 -0.4375 3.4375 C-0.293125 2.303125 -0.14875 1.16875 0 0 Z " fill="#D8D8F5" transform="translate(243,140)"/>
<path d="M0 0 C0.85078125 0.00322266 1.7015625 0.00644531 2.578125 0.00976562 C3.46757812 0.01814453 4.35703125 0.02652344 5.2734375 0.03515625 C6.170625 0.03966797 7.0678125 0.04417969 7.9921875 0.04882812 C10.21100398 0.06063034 12.42968768 0.0770947 14.6484375 0.09765625 C14.6484375 0.42765625 14.6484375 0.75765625 14.6484375 1.09765625 C8.7084375 1.42765625 2.7684375 1.75765625 -3.3515625 2.09765625 C-3.6815625 2.75765625 -4.0115625 3.41765625 -4.3515625 4.09765625 C-6.0015625 4.09765625 -7.6515625 4.09765625 -9.3515625 4.09765625 C-6.23661721 0.84112254 -4.50809215 -0.03005395 0 0 Z " fill="#315CBD" transform="translate(151.3515625,75.90234375)"/>
<path d="M0 0 C-1.05078125 1.51953125 -1.05078125 1.51953125 -3 3 C-6.35546875 3.07421875 -6.35546875 3.07421875 -10.1875 2.6875 C-11.45980469 2.56761719 -12.73210937 2.44773438 -14.04296875 2.32421875 C-15.01878906 2.21722656 -15.99460938 2.11023438 -17 2 C-17 1.67 -17 1.34 -17 1 C-11.33357449 -0.22517308 -5.76291482 -0.09228867 0 0 Z " fill="#B5B5DB" transform="translate(157,243)"/>
<path d="M0 0 C0.33 0 0.66 0 1 0 C1.04898438 0.63808594 1.09796875 1.27617188 1.1484375 1.93359375 C1.22320312 2.75988281 1.29796875 3.58617188 1.375 4.4375 C1.44460937 5.26121094 1.51421875 6.08492188 1.5859375 6.93359375 C1.72257813 7.61550781 1.85921875 8.29742187 2 9 C2.66 9.33 3.32 9.66 4 10 C3.3405469 13.69293736 2.47070566 14.70572579 0 18 C0 12.06 0 6.12 0 0 Z " fill="#DADCF6" transform="translate(244,119)"/>
<path d="M0 0 C2 0 2 0 3.6875 1.0625 C5 3 5 3 4.6875 6.6875 C4.460625 7.780625 4.23375 8.87375 4 10 C3.01 10.33 2.02 10.66 1 11 C0.67 7.37 0.34 3.74 0 0 Z " fill="#F3F6F9" transform="translate(243,108)"/>
<path d="M0 0 C0.33 0 0.66 0 1 0 C1.18451025 13.6332574 1.18451025 13.6332574 0 20 C-0.33 20 -0.66 20 -1 20 C-1.87890625 13.84765625 -1.87890625 13.84765625 -2 12 C-1.67 11.67 -1.34 11.34 -1 11 C-0.95936168 9.33382885 -0.957279 7.66611905 -1 6 C-1.66 5.67 -2.32 5.34 -3 5 C-2 2 -2 2 0 0 Z " fill="#1C62D9" transform="translate(107,75)"/>
<path d="M0 0 C0.66 0.33 1.32 0.66 2 1 C-0.31 3.64 -2.62 6.28 -5 9 C-6.32 8.34 -7.64 7.68 -9 7 C-6.03 4.69 -3.06 2.38 0 0 Z " fill="#9F9CCB" transform="translate(200,218)"/>
<path d="M0 0 C0.66 0 1.32 0 2 0 C2.33 2.64 2.66 5.28 3 8 C2.01 8.33 1.02 8.66 0 9 C0 9.66 0 10.32 0 11 C-0.66 11 -1.32 11 -2 11 C-2.33 9.68 -2.66 8.36 -3 7 C-1.68 6.34 -0.36 5.68 1 5 C0.67 3.35 0.34 1.7 0 0 Z " fill="#2241BF" transform="translate(228,69)"/>
<path d="M0 0 C1.875 0.6875 1.875 0.6875 4 2 C4.72159424 3.64363134 5.39351421 5.31050386 6 7 C6.66 7.33 7.32 7.66 8 8 C8.625 10.5625 8.625 10.5625 9 13 C5.41193683 9.61127367 2.54315201 6.23858668 0 2 C0 1.34 0 0.68 0 0 Z " fill="#3263C3" transform="translate(23,187)"/>
<path d="M0 0 C1.60080151 4.00200378 0.29279692 7.04556236 -1 11 C-1.99 11 -2.98 11 -4 11 C-3.48964169 6.6109185 -2.47785723 3.66291938 0 0 Z " fill="#1576EE" transform="translate(24,64)"/>
<path d="M0 0 C3.17218843 3.62535821 4.42902597 7.51150278 6 12 C5.01 11.67 4.02 11.34 3 11 C3 10.34 3 9.68 3 9 C2.34 9 1.68 9 1 9 C0.67 6.03 0.34 3.06 0 0 Z " fill="#364EB2" transform="translate(230,70)"/>
<path d="M0 0 C0.99 0.33 1.98 0.66 3 1 C2.34 2.65 1.68 4.3 1 6 C-1.31 5.67 -3.62 5.34 -6 5 C-6 5.66 -6 6.32 -6 7 C-6.66 6.67 -7.32 6.34 -8 6 C-7.67 5.34 -7.34 4.68 -7 4 C-5.68 4 -4.36 4 -3 4 C-3 3.34 -3 2.68 -3 2 C-2.01 2 -1.02 2 0 2 C0 1.34 0 0.68 0 0 Z " fill="#1775EF" transform="translate(77,17)"/>
<path d="M0 0 C-0.33 0.99 -0.66 1.98 -1 3 C-4.71599191 3.20086443 -5.77208445 3.1519437 -9 1 C-9 0.34 -9 -0.32 -9 -1 C-5.22102349 -2.0497157 -3.35080929 -2.10976881 0 0 Z " fill="#263AB6" transform="translate(90,235)"/>
<path d="M0 0 C0.66 0.99 1.32 1.98 2 3 C1.505 3.391875 1.01 3.78375 0.5 4.1875 C-1.45593143 6.55091715 -1.24207973 8.01435003 -1 11 C-1.99 11.495 -1.99 11.495 -3 12 C-4.13084944 8.50464719 -4.08940511 7.21132116 -2.625 3.75 C-1 1 -1 1 0 0 Z " fill="#B8B9CC" transform="translate(217,204)"/>
<path d="M0 0 C0.65234375 1.765625 0.65234375 1.765625 1 4 C0.00390625 5.921875 0.00390625 5.921875 -1.4375 7.75 C-2.14712891 8.67039063 -2.14712891 8.67039063 -2.87109375 9.609375 C-3.24363281 10.06828125 -3.61617187 10.5271875 -4 11 C-4.65234375 9.234375 -4.65234375 9.234375 -5 7 C-4.00390625 5.078125 -4.00390625 5.078125 -2.5625 3.25 C-2.08941406 2.63640625 -1.61632812 2.0228125 -1.12890625 1.390625 C-0.75636719 0.93171875 -0.38382813 0.4728125 0 0 Z " fill="#BCB8E2" transform="translate(228,186)"/>
<path d="M0 0 C-2.0049518 1.33663454 -4.02615394 2.64919943 -6.0625 3.9375 C-9.15997749 5.84756862 -9.15997749 5.84756862 -11 9 C-10.67470941 6.07238473 -10.40430823 3.67384706 -8.875 1.125 C-5.98014 -0.611916 -3.29140103 -0.18630572 0 0 Z " fill="#E5F4FE" transform="translate(150,75)"/>
<path d="M0 0 C2.31 0 4.62 0 7 0 C7.33 0.66 7.66 1.32 8 2 C6.6875 3.5 6.6875 3.5 5 5 C4.01 5 3.02 5 2 5 C1.34 3.35 0.68 1.7 0 0 Z " fill="#2234B6" transform="translate(135,203)"/>
<path d="M0 0 C-4.95 2.97 -4.95 2.97 -10 6 C-10 5.01 -10 4.02 -10 3 C-9.34 3 -8.68 3 -8 3 C-8 2.34 -8 1.68 -8 1 C-3.375 -1.125 -3.375 -1.125 0 0 Z " fill="#382C96" transform="translate(191,226)"/>
<path d="M0 0 C2.31 0.66 4.62 1.32 7 2 C6.34 3.65 5.68 5.3 5 7 C4.01 6.34 3.02 5.68 2 5 C2 4.34 2 3.68 2 3 C1.01 3 0.02 3 -1 3 C-0.67 2.01 -0.34 1.02 0 0 Z " fill="#253CC0" transform="translate(106,201)"/>
<path d="M0 0 C2.31 0 4.62 0 7 0 C7 0.99 7 1.98 7 3 C4.36 3 1.72 3 -1 3 C-0.67 2.01 -0.34 1.02 0 0 Z " fill="#1B55D8" transform="translate(97,137)"/>
<path d="M0 0 C0.66 0 1.32 0 2 0 C2 1.98 2 3.96 2 6 C2.66 6 3.32 6 4 6 C3.67 6.99 3.34 7.98 3 9 C2.01 9.33 1.02 9.66 0 10 C0 6.7 0 3.4 0 0 Z " fill="#EDEDF4" transform="translate(244,138)"/>
<path d="M0 0 C4.86896303 0.59619955 9.32790951 1.56976822 14 3 C13.67 3.66 13.34 4.32 13 5 C11.02 4.34 9.04 3.68 7 3 C6.67 3.66 6.34 4.32 6 5 C6 4.34 6 3.68 6 3 C4.02 2.34 2.04 1.68 0 1 C0 0.67 0 0.34 0 0 Z " fill="#326DCD" transform="translate(151,10)"/>
<path d="M0 0 C1.32 0.33 2.64 0.66 4 1 C3.67 3.31 3.34 5.62 3 8 C2.01 8 1.02 8 0 8 C0.66 6.02 1.32 4.04 2 2 C1.34 2 0.68 2 0 2 C0 1.34 0 0.68 0 0 Z " fill="#1D62DF" transform="translate(80,104)"/>
<path d="M0 0 C0.66 0.33 1.32 0.66 2 1 C0.02 3.97 -1.96 6.94 -4 10 C-4.66 8.68 -5.32 7.36 -6 6 C-4 4 -2 2 0 0 Z " fill="#DDF3FE" transform="translate(27,55)"/>
<path d="M0 0 C-1.32 0.33 -2.64 0.66 -4 1 C-4 1.66 -4 2.32 -4 3 C-6.64 3.33 -9.28 3.66 -12 4 C-8.71298741 1.21868166 -4.24676932 -2.12338466 0 0 Z " fill="#397FD9" transform="translate(90,13)"/>
<path d="M0 0 C0.33 0.66 0.66 1.32 1 2 C-0.32 3.65 -1.64 5.3 -3 7 C-3.66 6.67 -4.32 6.34 -5 6 C-4.75 4.125 -4.75 4.125 -4 2 C-1.9375 0.75 -1.9375 0.75 0 0 Z " fill="#ADACCE" transform="translate(206,215)"/>
<path d="M0 0 C0.33 0 0.66 0 1 0 C1 3.3 1 6.6 1 10 C0.34 10 -0.32 10 -1 10 C-1.33 10.66 -1.66 11.32 -2 12 C-1 3.42857143 -1 3.42857143 0 0 Z " fill="#3D81D9" transform="translate(10,92)"/>
<path d="M0 0 C4.95 1.98 4.95 1.98 10 4 C5.7406111 5.06484722 4.71804639 5.0097548 1 3 C0.67 2.01 0.34 1.02 0 0 Z " fill="#3669C7" transform="translate(171,16)"/>
<path d="M0 0 C1.65 0.33 3.3 0.66 5 1 C5 1.99 5 2.98 5 4 C3.02 4 1.04 4 -1 4 C-0.67 2.68 -0.34 1.36 0 0 Z " fill="#ACADC5" transform="translate(179,234)"/>
<path d="M0 0 C0.66 0.33 1.32 0.66 2 1 C-0.05233685 3.2477975 -1.00667261 4.0022242 -4 5 C-4.99 4.34 -5.98 3.68 -7 3 C-4.69631264 1.93347808 -2.35981813 0.93578995 0 0 Z " fill="#A8A8C5" transform="translate(191,228)"/>
<path d="M0 0 C3.465 1.98 3.465 1.98 7 4 C5.68 4.99 4.36 5.98 3 7 C0 2.25 0 2.25 0 0 Z " fill="#E4F0FB" transform="translate(55,223)"/>
<path d="M0 0 C1.04449911 3.13349732 0.93423645 3.98968256 0 7 C-1.65 5.35 -3.3 3.7 -5 2 C-3.35 1.34 -1.7 0.68 0 0 Z " fill="#2E4FB9" transform="translate(59,219)"/>
<path d="M0 0 C0.99 0.33 1.98 0.66 3 1 C1.515 4.96 1.515 4.96 0 9 C-0.33 9 -0.66 9 -1 9 C-0.67 6.03 -0.34 3.06 0 0 Z " fill="#2549BA" transform="translate(165,108)"/>
<path d="M0 0 C1 3 1 3 0.3125 5.0625 C-1.21259665 7.31383315 -2.50584728 8.00233891 -5 9 C-3.7508258 5.54074837 -2.32472205 2.85306797 0 0 Z " fill="#D6ECFD" transform="translate(117,60)"/>
<path d="M0 0 C3.465 1.98 3.465 1.98 7 4 C6.67 4.66 6.34 5.32 6 6 C4 5 2 4 0 3 C0 2.01 0 1.02 0 0 Z " fill="#E3F2FC" transform="translate(48,218)"/>
<path d="M0 0 C1.65 0.33 3.3 0.66 5 1 C5.33 1.99 5.66 2.98 6 4 C3.69 3.67 1.38 3.34 -1 3 C-0.67 2.01 -0.34 1.02 0 0 Z " fill="#1C5CD6" transform="translate(24,184)"/>
<path d="M0 0 C0.66 0.99 1.32 1.98 2 3 C1.125 6.1875 1.125 6.1875 0 9 C-0.66 8.34 -1.32 7.68 -2 7 C-1.34 4.69 -0.68 2.38 0 0 Z " fill="#C8C8E2" transform="translate(230,182)"/>
<path d="M0 0 C0.98120464 3.05263664 0.98120464 4.94736336 0 8 C-0.66 7.67 -1.32 7.34 -2 7 C-2.625 4.4375 -2.625 4.4375 -3 2 C-2.01 1.34 -1.02 0.68 0 0 Z " fill="#1279EE" transform="translate(39,49)"/>
<path d="M0 0 C6.75 1.875 6.75 1.875 9 3 C9 3.66 9 4.32 9 5 C5.22454612 3.90931332 2.52956528 3.0916909 0 0 Z " fill="#324DAF" transform="translate(61,226)"/>
<path d="M0 0 C2 2 2 2 2 6 C1.34 6 0.68 6 0 6 C0 5.34 0 4.68 0 4 C-1.32 3.34 -2.64 2.68 -4 2 C-2.68 1.34 -1.36 0.68 0 0 Z " fill="#1D41BF" transform="translate(70,225)"/>
<path d="M0 0 C0.66 1.32 1.32 2.64 2 4 C-1.3 3.34 -4.6 2.68 -8 2 C-8 1.67 -8 1.34 -8 1 C-5.36 0.67 -2.72 0.34 0 0 Z " fill="#D1E8FB" transform="translate(158,8)"/>
</svg>
