<?xml version="1.0" encoding="UTF-8"?>
<svg version="1.1" xmlns="http://www.w3.org/2000/svg" width="237" height="250">
<path d="M0 0 C78.21 0 156.42 0 237 0 C237 82.5 237 165 237 250 C158.79 250 80.58 250 0 250 C0 167.5 0 85 0 0 Z " fill="#FCFCFC" transform="translate(0,0)"/>
<path d="M0 0 C-0.40992187 0.45890625 -0.81984375 0.9178125 -1.2421875 1.390625 C-1.78101562 2.00421875 -2.31984375 2.6178125 -2.875 3.25 C-3.40867187 3.85328125 -3.94234375 4.4565625 -4.4921875 5.078125 C-7.48693639 8.89526608 -8.2798445 11.91782301 -8.625 16.75 C-8.69976562 17.73484375 -8.77453125 18.7196875 -8.8515625 19.734375 C-8.92503906 20.85585938 -8.92503906 20.85585938 -9 22 C-8.34 22 -7.68 22 -7 22 C-6.73316406 21.41863281 -6.46632813 20.83726563 -6.19140625 20.23828125 C-1.90955439 12.1940153 6.15902161 4.95337724 14.5625 1.5625 C15.366875 1.376875 16.17125 1.19125 17 1 C16.67 1.99 16.34 2.98 16 4 C15.59786977 7.38938339 15.49844678 10.61856056 16 14 C18.25057567 17.08798674 18.25057567 17.08798674 21 19 C21.33 19.33 21.66 19.66 22 20 C22.3403125 19.28714844 22.680625 18.57429688 23.03125 17.83984375 C27.04796719 9.90255419 31.65967739 3.64576976 40 0 C43.1875 -0.625 43.1875 -0.625 47 -1 C47.68191406 -1.08894531 48.36382812 -1.17789062 49.06640625 -1.26953125 C56.12079836 -1.8121768 61.33650946 0.97088096 67 5 C69.30694483 7.22265262 71.08523093 9.41247423 73 12 C73.53367188 11.77183594 74.06734375 11.54367188 74.6171875 11.30859375 C81.90648604 8.49628653 87.87519987 8.57218457 95.25 11.125 C100.24261783 14.52905761 104.39459523 19.06000234 106 25 C106 26.32 106 27.64 106 29 C106.61359375 29.26039062 107.2271875 29.52078125 107.859375 29.7890625 C111.54746506 31.87539082 112.81732824 35.02871272 114 39 C114.1838328 42.1251576 114.13146455 45.14150796 113.9453125 48.265625 C114.0043304 51.2165198 114.69133612 52.42232872 116 55 C116.86455397 62.60003253 116.85087562 69.80014492 112 76 C106.70761494 81.79586416 101.23489433 85.44854971 93.3671875 86.27734375 C87.04823791 86.49736289 81.82367359 85.41574608 76 83 C75.0165504 84.43457328 74.03839079 85.87277406 73.0625 87.3125 C72.51722656 88.11300781 71.97195312 88.91351563 71.41015625 89.73828125 C69.0762768 93.48153942 68.88671599 96.37085914 68.9375 100.6875 C68.94652344 101.68136719 68.95554688 102.67523438 68.96484375 103.69921875 C68.97644531 104.45847656 68.98804688 105.21773438 69 106 C66.03 105.505 66.03 105.505 63 105 C62.814375 105.804375 62.62875 106.60875 62.4375 107.4375 C57.98786346 118.46486011 48.55698804 126.11884941 38.1015625 131.15234375 C36 132 36 132 34 132 C34.68835938 132.99966797 34.68835938 132.99966797 35.390625 134.01953125 C40.36360422 141.48944752 44.74306627 149.07083156 45.4375 158.1875 C46.06506544 162.44099913 47.39721388 164.69840557 49.84375 168.140625 C52.46197441 172.3510129 52.1559858 176.80135671 52.125 181.625 C52.1237915 182.33414551 52.12258301 183.04329102 52.12133789 183.77392578 C52.08551854 188.6222122 51.78116992 193.37172527 51.12109375 198.1796875 C50.83928483 200.09990017 50.83928483 200.09990017 52 202 C52 204.64 52 207.28 52 210 C60.58 209.67 69.16 209.34 78 209 C78 202.82543444 77.90306688 202.14700856 74 198 C78.27943406 198.19904344 79.72202966 198.72202966 82.8125 201.8125 C85.64729194 205.94319683 85.64729194 205.94319683 86 209 C85.01 208.67 84.02 208.34 83 208 C82.67 209.32 82.34 210.64 82 212 C85.63 212.66 89.26 213.32 93 214 C93 214.33 93 214.66 93 215 C92.44511902 215.00808685 91.89023804 215.01617371 91.31854248 215.02450562 C85.54334593 215.11056256 79.76849216 215.21006667 73.99365234 215.31738281 C71.83843747 215.35566602 69.68315884 215.39052004 67.52783203 215.421875 C64.42978124 215.4675395 61.33216909 215.52553212 58.234375 215.5859375 C56.78886261 215.60326431 56.78886261 215.60326431 55.31414795 215.62094116 C53.96320038 215.6507457 53.96320038 215.6507457 52.58496094 215.68115234 C51.39915436 215.70113785 51.39915436 215.70113785 50.18939209 215.7215271 C47.75217278 216.03152161 46.15530553 216.85503084 44 218 C39.68775518 218.61937392 35.34962175 218.79001826 31 219 C30.04351562 219.05414063 29.08703125 219.10828125 28.1015625 219.1640625 C27.24304688 219.19242188 26.38453125 219.22078125 25.5 219.25 C24.37078125 219.28867187 24.37078125 219.28867187 23.21875 219.328125 C21 219 21 219 18.90234375 217.5078125 C14.41658314 215.17739043 10.03946199 215.56610104 5.0625 215.625 C4.08603516 215.61339844 3.10957031 215.60179687 2.10351562 215.58984375 C-3.65661931 215.59116012 -3.65661931 215.59116012 -8.9921875 217.53515625 C-13.6551957 219.8061018 -18.1013576 219.14181857 -23.1875 218.8125 C-24.18458984 218.76802734 -25.18167969 218.72355469 -26.20898438 218.67773438 C-33.58794585 218.27470276 -33.58794585 218.27470276 -37 216 C-39.19950087 215.67346305 -39.19950087 215.67346305 -41.6550293 215.68115234 C-42.59577805 215.66128265 -43.53652679 215.64141296 -44.50578308 215.62094116 C-45.51836685 215.60938995 -46.53095062 215.59783875 -47.57421875 215.5859375 C-49.13267265 215.55688828 -49.13267265 215.55688828 -50.72261047 215.5272522 C-54.04415656 215.46742701 -57.36573724 215.42105896 -60.6875 215.375 C-62.93816624 215.33682295 -65.18881782 215.29777139 -67.43945312 215.2578125 C-72.95950544 215.16172311 -78.47964586 215.07668419 -84 215 C-81.64046906 212.64046906 -80.22104383 212.50858587 -77 212 C-77.16371094 211.43796875 -77.32742187 210.8759375 -77.49609375 210.296875 C-78.02864997 207.86940944 -78.09898681 205.73110319 -78.0625 203.25 C-78.05347656 202.45078125 -78.04445313 201.6515625 -78.03515625 200.828125 C-78.02355469 200.22484375 -78.01195312 199.6215625 -78 199 C-78.66 198.67 -79.32 198.34 -80 198 C-79.34 198 -78.68 198 -78 198 C-77.71125 197.38125 -77.4225 196.7625 -77.125 196.125 C-76 194 -76 194 -74 192 C-71.375 191.875 -71.375 191.875 -69 192 C-69.9590625 192.9590625 -69.9590625 192.9590625 -70.9375 193.9375 C-73.51813221 197.76934782 -74.45546953 201.37077336 -74 206 C-72.98782821 208.22052403 -72.98782821 208.22052403 -71 210 C-67.81176656 210.64597413 -67.81176656 210.64597413 -64.14453125 210.609375 C-63.48289474 210.62591125 -62.82125824 210.64244751 -62.13957214 210.65948486 C-60.03045399 210.70799288 -57.92205677 210.72933927 -55.8125 210.75 C-54.38082305 210.77815777 -52.94917972 210.80808495 -51.51757812 210.83984375 C-48.01187607 210.91374893 -44.50631125 210.96330788 -41 211 C-41.02320313 209.72898438 -41.04640625 208.45796875 -41.0703125 207.1484375 C-41.1202793 204.41136746 -41.06892789 203.14551443 -39.875 200.625 C-38.88523811 197.65571432 -39.15404116 196.72395523 -39.875 193.75 C-41.65731276 185.94065591 -43.33203727 174.15338479 -39.25 166.9375 C-38.88261719 166.36773437 -38.51523438 165.79796875 -38.13671875 165.2109375 C-36.48347607 161.99535207 -35.84548787 158.56678976 -35.0625 155.0625 C-33.59903488 148.68240859 -31.54310795 143.54363829 -28 138 C-27.31854009 136.67416644 -26.64758716 135.34270365 -26 134 C-27.55847656 133.29037109 -27.55847656 133.29037109 -29.1484375 132.56640625 C-41.87928557 126.60292856 -51.63386738 120.01416041 -58 107 C-58.33 106.01 -58.66 105.02 -59 104 C-64.94 104.99 -64.94 104.99 -71 106 C-70.505 104.515 -70.505 104.515 -70 103 C-68.99641256 95.18635492 -70.65720597 89.50458309 -75 83 C-77.4923793 79.90040091 -80.03446417 76.91308008 -82.6953125 73.95703125 C-86.60410533 68.9418513 -88.75823741 63.81196684 -88.453125 57.3828125 C-86.55863429 47.42040446 -78.60197655 41.54915135 -70.70361328 36.14746094 C-70.1414209 35.76879883 -69.57922852 35.39013672 -69 35 C-67.95714844 34.29101562 -66.91429687 33.58203125 -65.83984375 32.8515625 C-59.94096316 29.12194768 -54.17101791 25.87537156 -47 27 C-44.74978181 28.15872396 -42.79175455 29.48677386 -40.74609375 30.97265625 C-38.93069719 32.29663403 -38.93069719 32.29663403 -36.25 31.5 C-35.5075 31.005 -34.765 30.51 -34 30 C-33.31164062 29.57074219 -32.62328125 29.14148438 -31.9140625 28.69921875 C-29.51593773 26.57027125 -29.4502936 25.45207612 -29.125 22.3125 C-27.86113921 14.82739343 -23.88234871 10.27392897 -18 5.6875 C-12.29595649 1.68160685 -6.99955926 -1.91689175 0 0 Z " fill="#020202" transform="translate(107,20)"/>
<path d="M0 0 C-0.165 0.78375 -0.33 1.5675 -0.5 2.375 C-1.81609932 11.91672007 -1.23869864 19.13935035 4.53125 27.1171875 C5.95693206 28.85735825 7.31812115 30.50553051 9 32 C9.66 32 10.32 32 11 32 C10.51402344 31.44828125 10.02804688 30.8965625 9.52734375 30.328125 C6.81793635 26.19818432 7.42380258 21.76190741 8 17 C9.86821551 10.33787298 14.72732345 5.29118264 20 1 C20.66 1 21.32 1 22 1 C22.08636719 1.59167969 22.17273438 2.18335938 22.26171875 2.79296875 C22.40222656 3.58316406 22.54273437 4.37335937 22.6875 5.1875 C22.81511719 5.96480469 22.94273438 6.74210937 23.07421875 7.54296875 C25.97907962 15.252494 34.72675156 18.23330819 41.60742188 21.63085938 C48.91121802 25.43321018 53.81777389 30.30690502 57 38 C57.24291992 40.42602539 57.24291992 40.42602539 57.23046875 43.09765625 C57.22853516 44.06380859 57.22660156 45.02996094 57.22460938 46.02539062 C57.21236328 47.02763672 57.20011719 48.02988281 57.1875 49.0625 C57.1865332 50.57166992 57.1865332 50.57166992 57.18554688 52.11132812 C57.14065689 59.57802934 57.14065689 59.57802934 56 63 C55.21010062 72.23275828 55.66503808 80.69952383 61.71875 88.1015625 C64.32631014 90.78646552 66.87951296 92.9196753 70 95 C69.55126825 102.17970802 63.74759465 107.49162897 58.8125 112.1875 C53.99577747 116.31611931 48.89448453 118.75203065 43 121 C42.24847656 121.29648438 41.49695313 121.59296875 40.72265625 121.8984375 C21.34604059 128.97633327 -1.57647213 127.79153602 -20.28515625 119.37890625 C-30.60672276 114.13644153 -39.58318185 107.01151438 -44 96 C-44 94.68 -44 93.36 -44 92 C-42.64453125 90.68359375 -42.64453125 90.68359375 -40.8125 89.4375 C-35.21406049 84.99735832 -32.37779923 77.91770031 -31 71 C-30.81049083 66.49145282 -30.81049083 66.49145282 -31.49291992 62.06152344 C-32.44492819 58.19115375 -32.26912645 54.21723396 -32.3125 50.25 C-32.34150391 49.38117188 -32.37050781 48.51234375 -32.40039062 47.6171875 C-32.47125459 40.35635647 -30.70540927 35.39194323 -26.18359375 29.72265625 C-25.31927734 28.90087891 -25.31927734 28.90087891 -24.4375 28.0625 C-23.56931641 27.21365234 -23.56931641 27.21365234 -22.68359375 26.34765625 C-21 25 -21 25 -18 24 C-16.02 26.97 -16.02 26.97 -14 30 C-14.06960937 28.94941406 -14.13921875 27.89882813 -14.2109375 26.81640625 C-14.57060368 19.07436113 -14.82824215 13.08404597 -9.7265625 6.7734375 C-3.13215859 0 -3.13215859 0 0 0 Z " fill="#F9F9F9" transform="translate(96,28)"/>
<path d="M0 0 C10.91467467 2.33560366 23.18943727 1.34645399 33.9375 -1.265625 C37.625 -1.890625 37.625 -1.890625 40.9375 -1.265625 C46.78511862 3.29353528 50.10030979 9.65378421 51.9375 16.734375 C52.42591552 22.10157855 52.36156023 27.41794631 52.25 32.796875 C52.23847714 34.2167837 52.22870137 35.63670769 52.22070312 37.05664062 C52.15903542 44.00747186 51.88233789 50.84397182 50.9375 57.734375 C51.5975 57.734375 52.2575 57.734375 52.9375 57.734375 C56.35968853 61.64418106 58.71916664 65.40254152 59.5625 70.546875 C58.9375 73.734375 58.9375 73.734375 57.4375 76.171875 C53.76681666 78.46605209 51.22414399 78.08573926 46.9375 77.734375 C46.6075 77.404375 46.2775 77.074375 45.9375 76.734375 C45.4425 77.064375 44.9475 77.394375 44.4375 77.734375 C40.22086251 79.42102999 35.85393001 79.38999579 31.5625 77.921875 C29.9375 76.734375 29.9375 76.734375 27.9375 73.734375 C27.10022783 65.66625937 28.32604818 57.66232297 29.75 49.734375 C29.93014648 48.69216797 30.11029297 47.64996094 30.29589844 46.57617188 C31.53854097 39.5425952 32.95001229 32.60024163 34.9375 25.734375 C27.1495626 41.39310019 25.64215271 57.55870752 23.9375 74.734375 C18.6575 74.734375 13.3775 74.734375 7.9375 74.734375 C7.79054688 72.73890625 7.79054688 72.73890625 7.640625 70.703125 C6.31120905 54.11553435 2.86739337 39.28819368 -3.0625 23.734375 C-2.80855469 24.76433594 -2.55460937 25.79429687 -2.29296875 26.85546875 C0.93727478 40.12906205 4.11294852 53.33309982 4.4375 67.046875 C4.46811523 67.7584375 4.49873047 68.47 4.53027344 69.203125 C4.53205049 72.87806103 4.20423453 74.44402335 1.6875 77.18359375 C-2.33358078 79.45116345 -5.56579152 79.58004893 -10.0625 78.734375 C-13.125 76.734375 -13.125 76.734375 -15.0625 74.734375 C-14.7325 75.724375 -14.4025 76.714375 -14.0625 77.734375 C-21.2625 78.214375 -21.2625 78.214375 -24.5625 76.234375 C-26.68739474 72.69288377 -27.02707951 69.67780298 -26.0625 65.734375 C-24.39942092 62.75300153 -22.51147168 60.11990182 -20.0625 57.734375 C-19.4025 57.734375 -18.7425 57.734375 -18.0625 57.734375 C-18.2790625 56.68830078 -18.2790625 56.68830078 -18.5 55.62109375 C-20.00216202 47.07754724 -20.34343002 38.64645625 -20.4375 29.984375 C-20.47617188 28.26287231 -20.47617188 28.26287231 -20.515625 26.5065918 C-20.53853488 16.59019344 -18.282035 7.40142857 -11.265625 0.03125 C-7.45040075 -2.21459122 -4.14779302 -0.94093453 0 0 Z " fill="#F9F9F9" transform="translate(96.0625,156.265625)"/>
<path d="M0 0 C0.66 0.99 1.32 1.98 2 3 C13.99552817 18.6290284 26.56710963 27.21245157 46.29296875 30.55859375 C65.76594069 32.87729325 86.73642699 30.45942403 103.05078125 18.82421875 C107.5921995 14.92869109 111.12886676 10.96539746 113.8671875 5.62890625 C115.28557674 3.58936034 116.7358138 2.94262145 119 2 C120 5 120 5 119.06640625 7.19921875 C112.39311521 18.24048211 104.72147372 24.68715072 93 30 C92.34 30 91.68 30 91 30 C91.68835938 30.99966797 91.68835938 30.99966797 92.390625 32.01953125 C97.36360422 39.48944752 101.74306627 47.07083156 102.4375 56.1875 C103.06506544 60.44099913 104.39721388 62.69840557 106.84375 66.140625 C109.46197441 70.3510129 109.1559858 74.80135671 109.125 79.625 C109.1237915 80.33414551 109.12258301 81.04329102 109.12133789 81.77392578 C109.08551854 86.6222122 108.78116992 91.37172527 108.12109375 96.1796875 C107.83928483 98.09990017 107.83928483 98.09990017 109 100 C109 102.64 109 105.28 109 108 C117.58 107.67 126.16 107.34 135 107 C135 100.82543444 134.90306688 100.14700856 131 96 C135.27943406 96.19904344 136.72202966 96.72202966 139.8125 99.8125 C142.64729194 103.94319683 142.64729194 103.94319683 143 107 C142.01 106.67 141.02 106.34 140 106 C139.67 107.32 139.34 108.64 139 110 C142.63 110.66 146.26 111.32 150 112 C150 112.33 150 112.66 150 113 C149.44511902 113.00808685 148.89023804 113.01617371 148.31854248 113.02450562 C142.54334593 113.11056256 136.76849216 113.21006667 130.99365234 113.31738281 C128.83843747 113.35566602 126.68315884 113.39052004 124.52783203 113.421875 C121.42978124 113.4675395 118.33216909 113.52553212 115.234375 113.5859375 C114.27070007 113.59748871 113.30702515 113.60903992 112.31414795 113.62094116 C110.96320038 113.6507457 110.96320038 113.6507457 109.58496094 113.68115234 C108.79442322 113.69447601 108.0038855 113.70779968 107.18939209 113.7215271 C104.75217278 114.03152161 103.15530553 114.85503084 101 116 C96.68775518 116.61937392 92.34962175 116.79001826 88 117 C87.04351562 117.05414063 86.08703125 117.10828125 85.1015625 117.1640625 C84.24304688 117.19242187 83.38453125 117.22078125 82.5 117.25 C81.7471875 117.27578125 80.994375 117.3015625 80.21875 117.328125 C78 117 78 117 75.90234375 115.5078125 C71.41658314 113.17739043 67.03946199 113.56610104 62.0625 113.625 C60.59780273 113.60759766 60.59780273 113.60759766 59.10351562 113.58984375 C53.34338069 113.59116012 53.34338069 113.59116012 48.0078125 115.53515625 C43.3448043 117.8061018 38.8986424 117.14181857 33.8125 116.8125 C32.81541016 116.76802734 31.81832031 116.72355469 30.79101562 116.67773438 C23.41205415 116.27470276 23.41205415 116.27470276 20 114 C17.80049913 113.67346305 17.80049913 113.67346305 15.3449707 113.68115234 C14.40422195 113.66128265 13.46347321 113.64141296 12.49421692 113.62094116 C11.48163315 113.60938995 10.46904938 113.59783875 9.42578125 113.5859375 C8.38681198 113.56657135 7.34784271 113.5472052 6.27738953 113.5272522 C2.95584344 113.46742701 -0.36573724 113.42105896 -3.6875 113.375 C-5.93816624 113.33682295 -8.18881782 113.29777139 -10.43945312 113.2578125 C-15.95950544 113.16172311 -21.47964586 113.07668419 -27 113 C-24.64046906 110.64046906 -23.22104383 110.50858587 -20 110 C-20.16371094 109.43796875 -20.32742187 108.8759375 -20.49609375 108.296875 C-21.02864997 105.86940944 -21.09898681 103.73110319 -21.0625 101.25 C-21.05347656 100.45078125 -21.04445313 99.6515625 -21.03515625 98.828125 C-21.01775391 97.92320312 -21.01775391 97.92320312 -21 97 C-21.66 96.67 -22.32 96.34 -23 96 C-22.34 96 -21.68 96 -21 96 C-20.71125 95.38125 -20.4225 94.7625 -20.125 94.125 C-19 92 -19 92 -17 90 C-14.375 89.875 -14.375 89.875 -12 90 C-12.639375 90.639375 -13.27875 91.27875 -13.9375 91.9375 C-16.51813221 95.76934782 -17.45546953 99.37077336 -17 104 C-15.98782821 106.22052403 -15.98782821 106.22052403 -14 108 C-10.81176656 108.64597413 -10.81176656 108.64597413 -7.14453125 108.609375 C-6.48289474 108.62591125 -5.82125824 108.64244751 -5.13957214 108.65948486 C-3.03045399 108.70799288 -0.92205677 108.72933927 1.1875 108.75 C2.61917695 108.77815777 4.05082028 108.80808495 5.48242188 108.83984375 C8.98812393 108.91374893 12.49368875 108.96330788 16 109 C15.97679687 107.72898437 15.95359375 106.45796875 15.9296875 105.1484375 C15.8797207 102.41136746 15.93107211 101.14551443 17.125 98.625 C18.11476189 95.65571432 17.84595884 94.72395523 17.125 91.75 C15.34268724 83.94065591 13.66796273 72.15338479 17.75 64.9375 C18.11738281 64.36773437 18.48476562 63.79796875 18.86328125 63.2109375 C20.51652393 59.99535207 21.15451213 56.56678976 21.9375 53.0625 C23.40096512 46.68240859 25.45689205 41.54363829 29 36 C29.68145991 34.67416644 30.35241284 33.34270365 31 32 C29.96101563 31.52691406 28.92203125 31.05382812 27.8515625 30.56640625 C15.92715136 24.98068569 3.80373026 18.12874697 -1 5 C-0.64453125 2.203125 -0.64453125 2.203125 0 0 Z M34.796875 34.296875 C26.7486872 42.75085378 25.37335192 53.04772851 25.625 64.25 C25.64433594 66.03047729 25.64433594 66.03047729 25.6640625 67.84692383 C25.80751204 76.0252288 26.33834397 83.97360793 28 92 C27.38640625 92.27585938 26.7728125 92.55171875 26.140625 92.8359375 C22.8707 94.61410839 21.69983629 96.72174429 20 100 C19.24771821 103.9118653 19.40393058 107.00655097 21.5 110.5 C25.14008723 112.68405234 27.79654733 112.28023018 32 112 C32 111.34 32 110.68 32 110 C32.474375 110.495 32.94875 110.99 33.4375 111.5 C37.12946757 113.66115175 40.82346465 113.89446878 45 113 C47.8633104 111.52932519 47.8633104 111.52932519 50 109 C52.70251928 95.99611311 48.28478034 81.36537142 45.57250977 68.68457031 C45.02706995 66.1269344 44.50743518 63.56541526 44 61 C50.30286897 76.82422422 52.75747775 92.1278558 54 109 C59.28 109 64.56 109 70 109 C70.15855469 107.32035156 70.31710938 105.64070313 70.48046875 103.91015625 C72.02654711 88.57214948 73.71443046 73.80869575 81 60 C80.85900879 60.59312988 80.71801758 61.18625977 80.57275391 61.79736328 C74.26336501 84.66264532 74.26336501 84.66264532 74 108 C75.87797444 110.24893236 77.38300601 111.69150301 80 113 C85.4157076 113.35512837 88.51066735 113.36699949 93 110 C93 110.66 93 111.32 93 112 C98.55285502 112.49655101 98.55285502 112.49655101 103.5 110.4375 C105.60248778 107.02095736 105.54531303 104.95351948 105 101 C103.21791439 97.74311006 103.21791439 97.74311006 101 95 C100.34 94.01 99.68 93.02 99 92 C98.34 92 97.68 92 97 92 C97.15855469 90.84371094 97.31710938 89.68742187 97.48046875 88.49609375 C98.18714872 82.07823465 98.25883396 75.64853838 98.29516602 69.19848633 C98.3067083 67.77618479 98.32719596 66.35392732 98.35668945 64.93188477 C98.60276692 53.00881292 97.33742622 43.36305807 88.84375 34.4375 C86.93982296 32.72679796 86.93982296 32.72679796 83.6875 32.375 C81.79619085 32.69556087 79.90308807 33.0235523 78.0390625 33.4765625 C66.59751905 36.16632886 54.13034761 36.09583117 42.6875 33.5 C38.54216793 32.71887675 38.54216793 32.71887675 34.796875 34.296875 Z " fill="#191919" transform="translate(50,122)"/>
<path d="M0 0 C4.92430921 3.4960843 8.42659364 7.72182152 10.1953125 13.55859375 C11.1234375 12.73359375 12.0515625 11.90859375 13.0078125 11.05859375 C17.78838407 7.64806403 22.5243065 7.63341452 28.1953125 8.55859375 C32.59826831 10.72004478 35.58543577 13.40212341 38.1953125 17.55859375 C38.3190625 18.71359375 38.4428125 19.86859375 38.5703125 21.05859375 C39.43436622 25.89729461 41.30368593 26.72094938 45.1953125 29.55859375 C46.42536231 32.01869338 46.32845277 33.69032181 46.3203125 36.43359375 C46.32417969 37.72910156 46.32417969 37.72910156 46.328125 39.05078125 C46.1953125 41.55859375 46.1953125 41.55859375 45.6015625 43.75 C45.4675 44.34683594 45.3334375 44.94367188 45.1953125 45.55859375 C46.53860838 47.65522566 46.53860838 47.65522566 48.1953125 49.55859375 C49.82861825 54.45851101 49.62728501 58.30587348 47.9453125 63.18359375 C44.17778919 70.44953156 39.84686967 73.75840039 32.1953125 76.55859375 C26.85694661 77.56423662 22.82698079 76.33759473 18.1953125 73.55859375 C19.43961622 70.96629433 20.81124013 68.47893796 22.2578125 65.99609375 C25.69943439 59.8899904 25.91630979 54.45203123 25.1953125 47.55859375 C21.88181878 36.83627698 8.15855489 30.00333067 -0.984375 24.8828125 C-4.93540248 23.02769018 -8.43223011 21.92795086 -12.8046875 22.55859375 C-15.3078204 23.68599686 -17.46912301 25.09314152 -19.8046875 26.55859375 C-23.64551388 26.22748803 -26.74080519 23.99120589 -29.9921875 22.05859375 C-31.05824219 21.42953125 -32.12429687 20.80046875 -33.22265625 20.15234375 C-35.8046875 18.55859375 -35.8046875 18.55859375 -36.8046875 17.55859375 C-36.90431963 11.97919432 -35.86001486 9.09323635 -32.2421875 4.80859375 C-23.05288841 -4.60840479 -11.77325072 -6.68160371 0 0 Z " fill="#F8F8F8" transform="translate(169.8046875,25.44140625)"/>
<path d="M0 0 C10.66262182 4.95409552 23.46293596 12.22238355 29.26171875 22.765625 C31.19221927 28.608198 30.92676006 35.29411418 28.8125 41.0625 C26.81403809 44.30138654 25.27312784 45.19977969 22 47 C20.9935725 48.66279327 19.99414593 50.32983484 19 52 C18.05125 52.7425 17.1025 53.485 16.125 54.25 C12.19287496 57.42138728 9.49504215 61.14874077 8 66 C8.1768925 68.81419894 8.68959807 71.2321977 9.484375 73.93359375 C10 76 10 76 9 78 C7.00045254 78.04254356 4.99958364 78.04080783 3 78 C2.505 77.505 2.505 77.505 2 77 C1.01 77.99 1.01 77.99 0 79 C-0.08765625 78.40703125 -0.1753125 77.8140625 -0.265625 77.203125 C-1.19767588 74.40697236 -2.43609694 73.54197004 -4.75 71.75 C-9.77237219 67.55717582 -13.84966264 62.59368632 -15 56 C-15.09278598 53.81407156 -15.12997814 51.62539113 -15.125 49.4375 C-15.12757813 48.30183594 -15.13015625 47.16617188 -15.1328125 45.99609375 C-15 43 -15 43 -14 40 C-13.85284801 38.37432921 -13.75278133 36.74413143 -13.68359375 35.11328125 C-13.64169922 34.17548828 -13.59980469 33.23769531 -13.55664062 32.27148438 C-13.51732422 31.29501953 -13.47800781 30.31855469 -13.4375 29.3125 C-13.39431641 28.32443359 -13.35113281 27.33636719 -13.30664062 26.31835938 C-13.20058346 23.87904454 -13.09852286 21.43962887 -13 19 C-12.20207031 18.88785156 -11.40414062 18.77570313 -10.58203125 18.66015625 C-9.72996094 18.44230469 -8.87789062 18.22445312 -8 18 C-6.62533375 15.52363988 -6.62533375 15.52363988 -6 13 C-4.68 13 -3.36 13 -2 13 C-2 12.34 -2 11.68 -2 11 C-3.32 11 -4.64 11 -6 11 C-6 10.01 -6 9.02 -6 8 C-6.66 8 -7.32 8 -8 8 C-8 8.99 -8 9.98 -8 11 C-9.32 11 -10.64 11 -12 11 C-12 11.66 -12 12.32 -12 13 C-12.66 13 -13.32 13 -14 13 C-15.38938077 11.03852126 -16.7260411 9.03833424 -18 7 C-17.34 6.67 -16.68 6.34 -16 6 C-15.54625 5.195625 -15.0925 4.39125 -14.625 3.5625 C-11.10500314 -1.98826428 -5.88057914 -1.68732527 0 0 Z " fill="#010101" transform="translate(166,48)"/>
<path d="M0 0 C-0.40992188 0.45890625 -0.81984375 0.9178125 -1.2421875 1.390625 C-1.78101563 2.00421875 -2.31984375 2.6178125 -2.875 3.25 C-3.40867188 3.85328125 -3.94234375 4.4565625 -4.4921875 5.078125 C-7.48693639 8.89526608 -8.2798445 11.91782301 -8.625 16.75 C-8.69976562 17.73484375 -8.77453125 18.7196875 -8.8515625 19.734375 C-8.90054688 20.48203125 -8.94953125 21.2296875 -9 22 C-8.34 22 -7.68 22 -7 22 C-6.73316406 21.41863281 -6.46632812 20.83726563 -6.19140625 20.23828125 C-1.90955439 12.1940153 6.15902161 4.95337724 14.5625 1.5625 C15.366875 1.376875 16.17125 1.19125 17 1 C16.67 1.99 16.34 2.98 16 4 C15.59786977 7.38938339 15.49844678 10.61856056 16 14 C18.25057567 17.08798674 18.25057567 17.08798674 21 19 C21.33 19.33 21.66 19.66 22 20 C22.3403125 19.28714844 22.680625 18.57429688 23.03125 17.83984375 C27.04796719 9.90255419 31.65967739 3.64576976 40 0 C43.1875 -0.625 43.1875 -0.625 47 -1 C47.68191406 -1.08894531 48.36382812 -1.17789062 49.06640625 -1.26953125 C56.12079836 -1.8121768 61.33650946 0.97088096 67 5 C69.30694483 7.22265262 71.08523093 9.41247423 73 12 C73.53367187 11.77183594 74.06734375 11.54367188 74.6171875 11.30859375 C81.90648604 8.49628653 87.87519987 8.57218457 95.25 11.125 C100.24261783 14.52905761 104.39459523 19.06000234 106 25 C106 26.32 106 27.64 106 29 C106.61359375 29.26039062 107.2271875 29.52078125 107.859375 29.7890625 C111.54746506 31.87539082 112.81732824 35.02871272 114 39 C114.1838328 42.1251576 114.13146455 45.14150796 113.9453125 48.265625 C114.0043304 51.2165198 114.69133612 52.42232872 116 55 C116.86455397 62.60003253 116.85087562 69.80014492 112 76 C106.70761494 81.79586416 101.23489433 85.44854971 93.3671875 86.27734375 C87.04823791 86.49736289 81.82367359 85.41574608 76 83 C75.03874097 84.41468311 74.08111675 85.8318364 73.125 87.25 C72.59132813 88.03890625 72.05765625 88.8278125 71.5078125 89.640625 C69.22648569 93.21036955 67.79909788 96.00902122 67.375 100.25 C67.189375 102.10625 67.189375 102.10625 67 104 C66.67 104 66.34 104 66 104 C65.28657018 96.40593589 66.28960131 91.10824767 71 85 C72.73945392 83.32525225 74.52819661 81.8252683 76.43359375 80.34375 C78.52553406 78.54916779 79.62180126 76.36262641 81 74 C83.1875 72.6875 83.1875 72.6875 85 72 C84.690625 72.598125 84.38125 73.19625 84.0625 73.8125 C82.89790296 76.08956772 82.89790296 76.08956772 82 79 C86.27455983 81.13727991 90.30449889 81.78258352 95 81 C102.05914933 78.58955877 106.34263712 75.48886963 110 69 C111.51162402 63.99701213 111.70331429 59.59010188 109.5625 54.75 C109.046875 53.8425 108.53125 52.935 108 52 C107.67 51.01 107.34 50.02 107 49 C107.33 48.34 107.66 47.68 108 47 C108.41948167 43.6141837 108.48967233 40.37980361 108 37 C105.79086457 33.95524698 105.79086457 33.95524698 103 32 C100.67208989 29.67208989 100.69602827 28.84686695 100.25 25.6875 C99.54446292 22.15412476 98.79282635 20.31153832 96 18 C90.69098138 14.46065425 86.32265916 14.20224166 80 15 C77.03087848 16.32475625 74.53146934 17.96902174 72 20 C71.4121875 18.453125 71.4121875 18.453125 70.8125 16.875 C67.91478736 10.26501034 64.29440679 6.35323969 57.59375 3.6953125 C51.34682607 2.0206853 44.68691201 1.89560409 38.6875 4.5 C33.75738262 7.42919108 28.95647485 11.65233802 27.34375 17.296875 C26.9952287 19.7086212 26.9952287 19.7086212 27 23 C29.07682048 24.34453118 31.16042486 25.67555837 33.25 27 C33.83652344 27.3815625 34.42304688 27.763125 35.02734375 28.15625 C38.3985781 30.27747611 39.90580718 31 44 31 C43.835 31.61875 43.67 32.2375 43.5 32.875 C42.68149447 36.35364851 43.34724563 37.90108555 45 41 C45.66 41 46.32 41 47 41 C47 40.34 47 39.68 47 39 C48.32 39 49.64 39 51 39 C51 38.01 51 37.02 51 36 C51.66 36 52.32 36 53 36 C53 36.99 53 37.98 53 39 C54.32 39 55.64 39 57 39 C57 39.66 57 40.32 57 41 C55.68 41 54.36 41 53 41 C52.9071875 42.11375 52.9071875 42.11375 52.8125 43.25 C51.75814862 46.8185739 50.00090227 47.92245228 47 50 C46.62488281 49.26394531 46.24976563 48.52789062 45.86328125 47.76953125 C45.35152344 46.79371094 44.83976562 45.81789062 44.3125 44.8125 C43.56419922 43.36810547 43.56419922 43.36810547 42.80078125 41.89453125 C38.01704853 34.20527758 31.01627963 31.10319358 23.21679688 27.10546875 C17.72086135 24.20426858 13.86176616 21.72353232 11 16 C10.95977609 13.6670134 10.95679753 11.33293334 11 9 C5.28058821 13.6921388 0.39910787 17.80267638 -2 25 C-2.14359334 26.80872376 -2.22046121 28.62332577 -2.25 30.4375 C-2.28867188 31.85869141 -2.28867188 31.85869141 -2.328125 33.30859375 C-1.95241828 36.3902834 -1.0484735 37.71972555 1 40 C0.505 40.99 0.505 40.99 0 42 C-6.71586621 36.78379324 -10.3221036 32.03368921 -13 24 C-13.42104135 18.31104596 -13.24248512 13.32590217 -11 8 C-12.42849261 9.0042181 -13.8422557 10.02939733 -15.25 11.0625 C-16.03890625 11.63097656 -16.8278125 12.19945312 -17.640625 12.78515625 C-21.9152815 16.79795465 -24.18540161 20.57437941 -24.390625 26.40234375 C-24.3644394 27.91456237 -24.31732579 29.42655391 -24.25 30.9375 C-24.22292969 32.10635742 -24.22292969 32.10635742 -24.1953125 33.29882812 C-24.14866383 35.19976131 -24.07693829 37.10005169 -24 39 C-26 37 -28 35 -30 33 C-36.87718702 38.34150448 -41.33894139 42.76238179 -42.45703125 51.62109375 C-42.71850802 55.08304621 -42.90252519 58.52989691 -43 62 C-43.99 62 -44.98 62 -46 62 C-46.3853905 51.55163525 -45.01600081 44.63365002 -39 36 C-43.27152492 32.04102568 -46.31251115 30.25124755 -52 29 C-50.375 27.8125 -50.375 27.8125 -48 27 C-45.00811174 28.27314394 -42.32862137 29.79777146 -39.5625 31.5 C-36.55961245 32.08592928 -35.88917558 31.76193361 -33.3125 30.25 C-29.4507606 27.20867305 -29.22647945 24.23469127 -28.56640625 19.55859375 C-26.89092724 11.99005063 -20.22582121 6.98452558 -14 3 C-8.94407436 0.18034916 -5.63166845 -1.54228265 0 0 Z " fill="#131313" transform="translate(107,20)"/>
<path d="M0 0 C0.99 1.485 0.99 1.485 2 3 C-4.61372606 15.22537241 -12.3617737 22.27162547 -25 28 C-25.66 28 -26.32 28 -27 28 C-26.31164062 28.99966797 -26.31164062 28.99966797 -25.609375 30.01953125 C-20.63639578 37.48944752 -16.25693373 45.07083156 -15.5625 54.1875 C-14.93493456 58.44099913 -13.60278612 60.69840557 -11.15625 64.140625 C-8.537887 68.35123578 -8.84460527 72.80124453 -8.875 77.625 C-8.8754834 78.33994629 -8.8759668 79.05489258 -8.87646484 79.79150391 C-8.9020861 83.70272143 -9.10571232 87.49270642 -9.625 91.375 C-10.26774019 96.55214019 -9.22518558 100.95511819 -8 106 C-2.06 106.33 3.88 106.66 10 107 C9.01 107.66 8.02 108.32 7 109 C5.515 108.505 5.515 108.505 4 108 C4 108.66 4 109.32 4 110 C1.54137599 110.05383848 -0.9160755 110.09359038 -3.375 110.125 C-4.07367188 110.14175781 -4.77234375 110.15851563 -5.4921875 110.17578125 C-7.32897486 110.19344267 -9.16601963 110.10303261 -11 110 C-13.38349121 107.61650879 -13.23158772 106.99332392 -13.375 103.75 C-13.76823375 99.22052972 -15.22262142 96.64530938 -18 93 C-18.33 92.01 -18.66 91.02 -19 90 C-19.66 90 -20.32 90 -21 90 C-20.97905273 88.81035645 -20.95810547 87.62071289 -20.93652344 86.39501953 C-20.86359894 81.9408798 -20.8180112 77.48679181 -20.78027344 73.03222656 C-20.76027664 71.11188861 -20.73306994 69.19161061 -20.69824219 67.27148438 C-20.30918121 48.82977932 -20.30918121 48.82977932 -29.359375 33.2109375 C-32.20128589 31.1133366 -34.63170143 31.51006566 -38 32 C-38.73476562 32.17402344 -39.46953125 32.34804687 -40.2265625 32.52734375 C-43.76481831 33.13034228 -47.23701376 33.10697973 -50.8125 33.0625 C-51.50537109 33.05798828 -52.19824219 33.05347656 -52.91210938 33.04882812 C-54.60811068 33.03713156 -56.30406703 33.01919924 -58 33 C-58 32.67 -58 32.34 -58 32 C-59.25296875 31.87882812 -60.5059375 31.75765625 -61.796875 31.6328125 C-63.44795865 31.46395167 -65.09899809 31.29465817 -66.75 31.125 C-67.575 31.04636719 -68.4 30.96773437 -69.25 30.88671875 C-70.04921875 30.80292969 -70.8484375 30.71914062 -71.671875 30.6328125 C-72.77160645 30.52283936 -72.77160645 30.52283936 -73.89355469 30.41064453 C-76.19952905 29.96110247 -77.95391841 29.1362627 -80 28 C-79.34257813 28.0721875 -78.68515625 28.144375 -78.0078125 28.21875 C-56.24285036 30.34216094 -33.46383382 30.02862412 -14.94921875 16.82421875 C-10.40667211 12.92772319 -6.84838157 8.92376 -4.03515625 3.62890625 C-3 2 -3 2 0 0 Z " fill="#0B0B0B" transform="translate(168,124)"/>
<path d="M0 0 C3.12291165 1.68012647 5.39164837 3.78329674 7 7 C8.75715222 7.68449761 8.75715222 7.68449761 10.8125 8.25 C14.02642605 9.40978301 15.0685598 10.07370178 17.5 12.6875 C19.40107058 16.88569754 19.38695097 19.43397855 19 24 C18.505 24.495 18.505 24.495 18 25 C18.00589823 26.89628198 18.05507375 28.79249856 18.125 30.6875 C18.17435217 36.62386073 17.24113777 40.19857779 13.5 44.875 C12 46 12 46 9 46 C9 46.66 9 47.32 9 48 C5.08277659 48.06753833 1.60177052 48.1157251 -2.25 47.375 C-5.46584605 46.93647554 -6.18949517 47.58689701 -9 49 C-12.96498392 49.76221502 -16.51686837 49.86189537 -20.0703125 47.796875 C-24.37562397 44.2301316 -26.75624251 41.23444363 -27.375 35.5625 C-27.6879958 31.94120944 -27.6879958 31.94120944 -30.0625 29.6875 C-32.97690473 25.64493859 -32.78019532 21.82794135 -32 17 C-30.00342873 13.14455202 -28.60292362 11.40194908 -25 9 C-23.0509375 8.87625 -23.0509375 8.87625 -21.0625 8.75 C-18.94093622 8.60742342 -18.94093622 8.60742342 -17 8 C-14.62772382 5.15031532 -14.62772382 5.15031532 -13 2 C-8.7581081 -0.82792793 -4.98126257 -0.78122286 0 0 Z M-13 8 C-14.29519995 10.16620544 -14.29519995 10.16620544 -15 12 C-16.03125 11.896875 -17.0625 11.79375 -18.125 11.6875 C-22.09108002 11.73472285 -22.09108002 11.73472285 -25.4375 13.9375 C-28.45888291 17.54842104 -28.77352761 19.3345858 -28.46875 23.90625 C-27.79484878 26.91634213 -26.52394096 28.29262817 -24 30 C-23.34 30 -22.68 30 -22 30 C-22.33 30.66 -22.66 31.32 -23 32 C-23.40417552 34.96395382 -23.56382171 37.08904926 -21.953125 39.69140625 C-20.15636794 41.88450678 -18.55808759 43.7209562 -16 45 C-11.00660479 45.36988113 -8.86326651 45.06396999 -5 42 C-3.65554579 42.28518726 -2.32307551 42.62803215 -1 43 C5.10806284 43.82225917 5.10806284 43.82225917 10.76171875 41.90625 C13.29553405 39.17640887 13.99597669 37.03889204 14.375 33.375 C14.10357523 30.14955531 14.10357523 30.14955531 13.375 27.6875 C13.189375 26.8521875 13.189375 26.8521875 13 26 C13.66 25.34 14.32 24.68 15 24 C15.56075289 20.94242108 15.52739799 18.06108317 15 15 C13.02928108 12.27324837 13.02928108 12.27324837 10 11 C6.79019864 10.66486406 6.79019864 10.66486406 4 11 C3.87625 10.13375 3.87625 10.13375 3.75 9.25 C2.73151664 6.19454991 1.59653964 4.91323973 -1 3 C-6.96105499 2.02455464 -9.29963275 3.34810974 -13 8 Z " fill="#212121" transform="translate(212,130)"/>
<path d="M0 0 C1.32 0.99 2.64 1.98 4 3 C0.7 3.33 -2.6 3.66 -6 4 C-4.948125 4.268125 -3.89625 4.53625 -2.8125 4.8125 C0.6477807 5.89029235 3.17316427 6.75515986 6 9 C7.0625 11.4375 7.0625 11.4375 7 14 C4.96464165 16.81818848 3.61204018 17.83307995 0.25 18.75 C-0.86375 18.87375 -0.86375 18.87375 -2 19 C-1.34 21.31 -0.68 23.62 0 26 C5.67276511 26.29341888 8.99067246 26.00559652 14 23 C13.61402985 25.79828356 13.19863427 26.8205884 11.0625 28.75 C9 30 9 30 7 30 C6.773125 31.0725 6.54625 32.145 6.3125 33.25 C4.83962549 37.45821287 3.84023084 38.81805066 0 41 C-3 41.5625 -3 41.5625 -6 41 C-8.96897543 38.638315 -10.67169478 36.88232029 -12 33.3125 C-12.79842866 30.75293725 -12.79842866 30.75293725 -15.5 29.875 C-16.325 29.58625 -17.15 29.2975 -18 29 C-18.66 28.01 -19.32 27.02 -20 26 C-19.505 24.515 -19.505 24.515 -19 23 C-18.46375 23.495 -17.9275 23.99 -17.375 24.5 C-14.31754465 26.43102443 -12.561827 26.44522837 -9 26 C-6.29808749 24.53950675 -5.25036997 23.73024575 -4.25 20.8125 C-4.1675 20.214375 -4.085 19.61625 -4 19 C-4.7425 18.9175 -5.485 18.835 -6.25 18.75 C-9.61204018 17.83307995 -10.96464165 16.81818848 -13 14 C-13 9.61514585 -10.82333471 7.18763596 -8 4 C-9.32 4.33 -10.64 4.66 -12 5 C-12 4.34 -12 3.68 -12 3 C-8.0489359 -0.11295959 -4.95036082 -0.54003936 0 0 Z " fill="#0A0A0A" transform="translate(112,104)"/>
<path d="M0 0 C3.70390021 2.02666238 5.65363011 3.48044516 8 7 C8.74426249 12.02809889 8.53541366 15.96609776 6.1875 20.5 C3.18486128 23.93158711 1.71703688 24.93060933 -2.875 25.375 C-6.05440343 25.29317712 -7.03293521 24.97995248 -9.875 23.25 C-13.98711849 18.89599218 -14.43605907 15.25166194 -14.32421875 9.41015625 C-13.8638942 5.98822556 -12.51522593 4.29963513 -10 2 C-6.24543433 -0.50304378 -4.45254066 -0.45280074 0 0 Z " fill="#090909" transform="translate(88,87)"/>
<path d="M0 0 C3.35734344 1.71034477 5.40289105 3.02291263 7.375 6.25 C8.62128876 11.73367056 8.82196154 15.41478846 6.25 20.375 C3.02499186 24.1375095 1.47169415 24.83945155 -3.4375 25.375 C-7.60997321 24.93579229 -9.07047808 23.92952192 -12 21 C-14.70501031 16.94248454 -14.52900458 13.76104122 -14 9 C-11.28382415 1.6663252 -7.89516318 -0.95286452 0 0 Z " fill="#080808" transform="translate(136,87)"/>
<path d="M0 0 C0.66 0.99 1.32 1.98 2 3 C12.58100972 16.78604586 22.73726857 25.09145704 40 29 C40.66 29.66 41.32 30.32 42 31 C47.65926631 32.38276572 53.57744651 32.33433822 59.375 32.5625 C60.39722656 32.60568359 61.41945312 32.64886719 62.47265625 32.69335938 C64.98165288 32.79887792 67.49073943 32.90099213 70 33 C70 33.99 70 34.98 70 36 C58.78461253 36.20127315 48.03691812 36.25572049 37 34 C35.88272271 35.32236654 34.78189266 36.6586326 33.6875 38 C33.07261719 38.7425 32.45773438 39.485 31.82421875 40.25 C27.33036764 47.02445649 26.51614672 53.49377479 26.3125 61.5 C26.27833984 62.4178125 26.24417969 63.335625 26.20898438 64.28125 C26.12733736 66.5207109 26.05792462 68.7598215 26 71 C25.01 71 24.02 71 23 71 C22.70703125 67.97265625 22.70703125 67.97265625 22.4140625 64.9453125 C22.13625251 62.77331755 22.13625251 62.77331755 20 61 C20.39069751 58.38020665 20.8881206 55.98592601 21.5625 53.4375 C21.8406958 52.3542041 21.8406958 52.3542041 22.12451172 51.24902344 C23.65049027 45.6272629 25.86330702 40.90775092 29 36 C29.68145991 34.67416644 30.35241284 33.34270365 31 32 C29.96101563 31.52691406 28.92203125 31.05382812 27.8515625 30.56640625 C15.92715136 24.98068569 3.80373026 18.12874697 -1 5 C-0.64453125 2.203125 -0.64453125 2.203125 0 0 Z " fill="#131313" transform="translate(50,122)"/>
<path d="M0 0 C-0.40992188 0.45890625 -0.81984375 0.9178125 -1.2421875 1.390625 C-1.78101563 2.00421875 -2.31984375 2.6178125 -2.875 3.25 C-3.40867188 3.85328125 -3.94234375 4.4565625 -4.4921875 5.078125 C-7.72044179 9.19289471 -8.40258403 12.8223949 -9 18 C-9.495 16.515 -9.495 16.515 -10 15 C-10.99 15.33 -11.98 15.66 -13 16 C-12.34 13.36 -11.68 10.72 -11 8 C-12.42849261 9.0042181 -13.8422557 10.02939733 -15.25 11.0625 C-16.03890625 11.63097656 -16.8278125 12.19945312 -17.640625 12.78515625 C-21.9152815 16.79795465 -24.18540161 20.57437941 -24.390625 26.40234375 C-24.3644394 27.91456237 -24.31732579 29.42655391 -24.25 30.9375 C-24.22292969 32.10635742 -24.22292969 32.10635742 -24.1953125 33.29882812 C-24.14866383 35.19976131 -24.07693829 37.10005169 -24 39 C-26 37 -28 35 -30 33 C-36.87718702 38.34150448 -41.33894139 42.76238179 -42.45703125 51.62109375 C-42.71850802 55.08304621 -42.90252519 58.52989691 -43 62 C-43.99 62 -44.98 62 -46 62 C-46.3853905 51.55163525 -45.01600081 44.63365002 -39 36 C-43.27152492 32.04102568 -46.31251115 30.25124755 -52 29 C-50.375 27.8125 -50.375 27.8125 -48 27 C-45.00811174 28.27314394 -42.32862137 29.79777146 -39.5625 31.5 C-36.55961245 32.08592928 -35.88917558 31.76193361 -33.3125 30.25 C-29.4507606 27.20867305 -29.22647945 24.23469127 -28.56640625 19.55859375 C-26.89092724 11.99005063 -20.22582121 6.98452558 -14 3 C-8.94407436 0.18034916 -5.63166845 -1.54228265 0 0 Z " fill="#1F1F1F" transform="translate(107,20)"/>
<path d="M0 0 C0.99 1.485 0.99 1.485 2 3 C-4.61372606 15.22537241 -12.3617737 22.27162547 -25 28 C-25.66 28 -26.32 28 -27 28 C-26.34 29.32 -25.68 30.64 -25 32 C-26.32 32.66 -27.64 33.32 -29 34 C-29.66 33.34 -30.32 32.68 -31 32 C-34.20116642 31.8188019 -37.10558079 31.79743119 -40.2421875 32.5078125 C-43.77503827 33.13832128 -47.23879853 33.10695753 -50.8125 33.0625 C-51.50537109 33.05798828 -52.19824219 33.05347656 -52.91210938 33.04882812 C-54.60811068 33.03713156 -56.30406703 33.01919924 -58 33 C-58 32.67 -58 32.34 -58 32 C-59.25296875 31.87882812 -60.5059375 31.75765625 -61.796875 31.6328125 C-63.44795865 31.46395167 -65.09899809 31.29465817 -66.75 31.125 C-67.575 31.04636719 -68.4 30.96773437 -69.25 30.88671875 C-70.04921875 30.80292969 -70.8484375 30.71914062 -71.671875 30.6328125 C-72.77160645 30.52283936 -72.77160645 30.52283936 -73.89355469 30.41064453 C-76.19952905 29.96110247 -77.95391841 29.1362627 -80 28 C-79.34257813 28.0721875 -78.68515625 28.144375 -78.0078125 28.21875 C-56.24285036 30.34216094 -33.46383382 30.02862412 -14.94921875 16.82421875 C-10.40667211 12.92772319 -6.84838157 8.92376 -4.03515625 3.62890625 C-3 2 -3 2 0 0 Z " fill="#181818" transform="translate(168,124)"/>
<path d="M0 0 C0.33 0 0.66 0 1 0 C1.50353766 5.39598875 1.99643483 10.79258744 2.46875 16.19140625 C2.77006202 19.60387565 3.10723951 23.00303237 3.53125 26.40234375 C4.49027557 35.04279531 4.49027557 35.04279531 3.015625 37.921875 C1.2538301 39.7665779 -0.73227175 40.86613588 -3 42 C-3 41.01 -3 40.02 -3 39 C-3.99 39.495 -3.99 39.495 -5 40 C-7.54602495 33.83195146 -8.34552901 27.9221961 -8.4375 21.3125 C-8.45941406 20.60037354 -8.48132813 19.88824707 -8.50390625 19.15454102 C-8.48368805 13.71015765 -6.99780395 10.52935527 -4 6 C-3.01 6 -2.02 6 -1 6 C-0.67 4.02 -0.34 2.04 0 0 Z " fill="#070707" transform="translate(74,178)"/>
<path d="M0 0 C0.33 0 0.66 0 1 0 C1.47807249 7.22420647 1.47263007 13.05743253 -3 19 C-8.27680348 24.80214896 -13.77503481 28.44959566 -21.6328125 29.27734375 C-27.95176209 29.49736289 -33.17632641 28.41574608 -39 26 C-39.96125903 27.41468311 -40.91888325 28.8318364 -41.875 30.25 C-42.40867188 31.03890625 -42.94234375 31.8278125 -43.4921875 32.640625 C-45.77351431 36.21036955 -47.20090212 39.00902122 -47.625 43.25 C-47.810625 45.10625 -47.810625 45.10625 -48 47 C-48.33 47 -48.66 47 -49 47 C-49.71342982 39.40593589 -48.71039869 34.10824767 -44 28 C-42.26054608 26.32525225 -40.47180339 24.8252683 -38.56640625 23.34375 C-36.47446594 21.54916779 -35.37819874 19.36262641 -34 17 C-31.8125 15.6875 -31.8125 15.6875 -30 15 C-30.309375 15.598125 -30.61875 16.19625 -30.9375 16.8125 C-32.10209704 19.08956772 -32.10209704 19.08956772 -33 22 C-28.72544017 24.13727991 -24.69550111 24.78258352 -20 24 C-14.21620292 22.0250449 -9.20157695 19.38352016 -5.89453125 14.11328125 C-4.12290986 9.92792241 -3.54357122 5.48649083 -3 1 C-2.34 1.99 -1.68 2.98 -1 4 C-0.67 2.68 -0.34 1.36 0 0 Z " fill="#131313" transform="translate(222,77)"/>
<path d="M0 0 C0.66 0.66 1.32 1.32 2 2 C1.67 2.66 1.34 3.32 1 4 C0.58777101 7.71006095 0.47992961 11.29864795 1 15 C3.4390706 17.20142332 3.4390706 17.20142332 6 19 C6.03191031 21.01034937 6.05643085 23.02542072 5.91796875 25.03125 C6.05164685 28.23952445 7.77903666 29.84435911 10 32 C13.05693322 33.52846661 15.62984547 33.23242445 19 33 C19.60585937 32.48308594 20.21171875 31.96617187 20.8359375 31.43359375 C23 30 23 30 26.015625 30.14453125 C27.08296875 30.36496094 28.1503125 30.58539063 29.25 30.8125 C30.86648437 31.13154297 30.86648437 31.13154297 32.515625 31.45703125 C33.33546875 31.63621094 34.1553125 31.81539062 35 32 C35 32.33 35 32.66 35 33 C31.535 33.495 31.535 33.495 28 34 C30.97 34.33 33.94 34.66 37 35 C37 35.66 37 36.32 37 37 C33.08277659 37.06753833 29.60177052 37.1157251 25.75 36.375 C22.53415395 35.93647554 21.81050483 36.58689701 19 38 C15.03501608 38.76221502 11.48313163 38.86189537 7.9296875 36.796875 C3.62437603 33.2301316 1.24375749 30.23444363 0.625 24.5625 C0.3120042 20.94120944 0.3120042 20.94120944 -2.0625 18.6875 C-4.59869845 15.16954731 -4.55879371 12.70137469 -4.40625 8.44921875 C-3.79905047 4.78850623 -2.37023557 2.81465474 0 0 Z " fill="#1C1C1C" transform="translate(184,141)"/>
<path d="M0 0 C-2.20680338 2.31399097 -4.14893549 3.57446774 -7 5 C-7.33 5.66 -7.66 6.32 -8 7 C-7.401875 7.226875 -6.80375 7.45375 -6.1875 7.6875 C-3.26372999 9.44176201 -2.36152537 10.86849164 -1 14 C-0.37475023 18.75189822 -0.83479479 22.66958958 -3 27 C-3.33 27 -3.66 27 -4 27 C-4.04898438 26.26394531 -4.09796875 25.52789062 -4.1484375 24.76953125 C-4.22320312 23.79371094 -4.29796875 22.81789062 -4.375 21.8125 C-4.44460937 20.84957031 -4.51421875 19.88664062 -4.5859375 18.89453125 C-5.01847854 15.87082455 -5.46882515 13.6515467 -7 11 C-9.39115375 9.96656266 -9.39115375 9.96656266 -12.125 9.6875 C-13.03507812 9.54699219 -13.94515625 9.40648437 -14.8828125 9.26171875 C-15.58148438 9.17535156 -16.28015625 9.08898437 -17 9 C-14.14723863 6.06799526 -11.34920216 3.35684596 -8 1 C-9.66721196 -0.66721196 -11.58059707 -0.33025454 -13.875 -0.4375 C-20.71713897 -0.41961205 -25.35580993 2.40643278 -31 6 C-31.99 6.495 -31.99 6.495 -33 7 C-30.58880935 1.53936236 -26.41609093 -1.86906382 -21.0625 -4.375 C-12.3834792 -6.14622873 -7.55319335 -4.33379946 0 0 Z " fill="#191919" transform="translate(197,200)"/>
<path d="M0 0 C8.79033014 6.59755632 8.79033014 6.59755632 9.78515625 12.33984375 C9.32367188 11.96472656 8.8621875 11.58960938 8.38671875 11.203125 C0.82658532 5.27155786 -6.47789978 0.88078508 -16.21484375 0.33984375 C-16.21484375 0.99984375 -16.21484375 1.65984375 -16.21484375 2.33984375 C-15.65796875 2.56671875 -15.10109375 2.79359375 -14.52734375 3.02734375 C-11.58237691 4.69881141 -9.53327831 6.89260727 -7.21484375 9.33984375 C-8.22804688 9.48679688 -8.22804688 9.48679688 -9.26171875 9.63671875 C-14.76592209 10.54280689 -14.76592209 10.54280689 -19.71484375 12.96484375 C-21.83173959 16.31659549 -22.43806034 19.45592672 -23.21484375 23.33984375 C-25.21484375 21.33984375 -25.21484375 21.33984375 -25.58984375 18.08984375 C-25.06239929 12.81539918 -23.00186875 9.82903125 -18.96484375 6.46484375 C-18.38734375 6.09359375 -17.80984375 5.72234375 -17.21484375 5.33984375 C-19.52484375 3.68984375 -21.83484375 2.03984375 -24.21484375 0.33984375 C-23.21484375 -1.66015625 -23.21484375 -1.66015625 -21.54296875 -2.265625 C-14.27425058 -3.49740442 -6.48728068 -3.87033094 0 0 Z " fill="#151515" transform="translate(50.21484375,193.66015625)"/>
<path d="M0 0 C0.66 0 1.32 0 2 0 C2 6.6 2 13.2 2 20 C0 18 -2 16 -4 14 C-10.87718702 19.34150448 -15.33894139 23.76238179 -16.45703125 32.62109375 C-16.71850802 36.08304621 -16.90252519 39.52989691 -17 43 C-17.99 43 -18.98 43 -20 43 C-20.3853905 32.55163525 -19.01600081 25.63365002 -13 17 C-17.27152492 13.04102568 -20.31251115 11.25124755 -26 10 C-24.375 8.8125 -24.375 8.8125 -22 8 C-19.00811174 9.27314394 -16.32862137 10.79777146 -13.5625 12.5 C-10.44906138 13.10750022 -9.84416898 12.62291732 -7.25 10.9375 C-4.7874575 8.99310636 -4.08143534 8.24430601 -3.0625 5.1875 C-3.041875 4.465625 -3.02125 3.74375 -3 3 C-2.01 4.485 -2.01 4.485 -1 6 C-0.67 4.02 -0.34 2.04 0 0 Z " fill="#181818" transform="translate(81,39)"/>
<path d="M0 0 C0.61875 0.45375 1.2375 0.9075 1.875 1.375 C6.0930587 3.56839052 10.33975586 4.23083349 15 5 C13.02 5.99 13.02 5.99 11 7 C12.68810096 11.50525063 12.68810096 11.50525063 16.5 14.0625 C18.9911189 14.22274943 18.9911189 14.22274943 20.6875 12.875 C22.21876691 10.68747585 23.11701549 8.51310977 24 6 C23.34 5.34 22.68 4.68 22 4 C23.2375 3.71125 24.475 3.4225 25.75 3.125 C28.72448742 2.38665206 31.333856 1.55525067 34 0 C33.61402985 2.79828356 33.19863427 3.8205884 31.0625 5.75 C29 7 29 7 27 7 C26.773125 8.0725 26.54625 9.145 26.3125 10.25 C24.83962549 14.45821287 23.84023084 15.81805066 20 18 C17 18.5625 17 18.5625 14 18 C11.03102457 15.638315 9.32830522 13.88232029 8 10.3125 C7.20157134 7.75293725 7.20157134 7.75293725 4.5 6.875 C3.2625 6.441875 3.2625 6.441875 2 6 C0 3 0 3 0 0 Z " fill="#101010" transform="translate(92,127)"/>
<path d="M0 0 C3.12291165 1.68012647 5.39164837 3.78329674 7 7 C7.99 7.66 8.98 8.32 10 9 C8.35 9.33 6.7 9.66 5 10 C6.98 10 8.96 10 11 10 C11.495 10.99 11.495 10.99 12 12 C6.65978648 11.73736655 6.65978648 11.73736655 4 11 C2.125 8.5625 2.125 8.5625 1 6 C-0.93167398 3.65186266 -0.93167398 3.65186266 -4.375 3.625 C-7.98394679 3.69105758 -7.98394679 3.69105758 -10.3125 5.6875 C-12.04279365 8.05864315 -13.07426773 10.22280319 -14 13 C-15.19625 12.9175 -16.3925 12.835 -17.625 12.75 C-22.24934637 12.7170865 -24.44232818 14.15386254 -28 17 C-26.125 10.125 -26.125 10.125 -25 9 C-23.741875 8.938125 -22.48375 8.87625 -21.1875 8.8125 C-19.0072432 8.64298202 -19.0072432 8.64298202 -17 8 C-14.62772382 5.15031532 -14.62772382 5.15031532 -13 2 C-8.7581081 -0.82792793 -4.98126257 -0.78122286 0 0 Z " fill="#101010" transform="translate(212,130)"/>
<path d="M0 0 C3.79196871 1.89598435 4.38308116 7.03384567 5.6953125 10.88671875 C8.67084899 20.03528478 11.12197711 29.40446408 12 39 C11.505 39.495 11.505 39.495 11 40 C10.92755947 42.01964199 10.91622812 44.04167124 10.9375 46.0625 C10.94652344 47.16722656 10.95554687 48.27195313 10.96484375 49.41015625 C10.97644531 50.26480469 10.98804687 51.11945313 11 52 C9 51 9 51 8 50 C7.80280782 47.88875759 7.61259633 45.77666378 7.45483398 43.66210938 C6.52810746 31.33521064 4.26830794 19.4813463 1.54077148 7.4375 C0.99213678 4.96455692 0.48849198 2.48545606 0 0 Z " fill="#1C1C1C" transform="translate(92,179)"/>
<path d="M0 0 C0.66 0 1.32 0 2 0 C2 0.99 2 1.98 2 3 C3.32 3.66 4.64 4.32 6 5 C4.35 5.33 2.7 5.66 1 6 C1 6.66 1 7.32 1 8 C0.01 8 -0.98 8 -2 8 C-2 8.66 -2 9.32 -2 10 C-2.99 10 -3.98 10 -5 10 C-5.12375 10.556875 -5.2475 11.11375 -5.375 11.6875 C-6.05976855 14.22114364 -6.99133763 16.57921032 -8 19 C-8.66 19 -9.32 19 -10 19 C-10 20.65 -10 22.3 -10 24 C-10.99 24 -11.98 24 -13 24 C-15.25 21.6875 -15.25 21.6875 -17 19 C-16.505 17.515 -16.505 17.515 -16 16 C-15.01 15.67 -14.02 15.34 -13 15 C-13 14.01 -13 13.02 -13 12 C-10.46815512 9.64276511 -9.52809907 9 -6 9 C-5.67 7.68 -5.34 6.36 -5 5 C-3.35 4.67 -1.7 4.34 0 4 C0 2.68 0 1.36 0 0 Z " fill="#151515" transform="translate(42,76)"/>
<path d="M0 0 C4.27943406 0.19904344 5.72202966 0.72202966 8.8125 3.8125 C11.64729194 7.94319683 11.64729194 7.94319683 12 11 C11.01 10.67 10.02 10.34 9 10 C8.67 11.32 8.34 12.64 8 14 C11.63 14.66 15.26 15.32 19 16 C19 16.33 19 16.66 19 17 C11.41 17 3.82 17 -4 17 C1 12 1 12 4 11 C4.36630156 7.06225823 4.30233203 5.43460229 2 2.125 C1.34 1.42375 0.68 0.7225 0 0 Z " fill="#080808" transform="translate(181,218)"/>
<path d="M0 0 C1.12526889 3.37580668 0.91065032 3.86319981 -0.3046875 7.02734375 C-2.12029195 12.1323112 -3.16141212 17.23964054 -4.125 22.5625 C-4.37830078 23.90344727 -4.37830078 23.90344727 -4.63671875 25.27148438 C-5.60844224 30.50119306 -6.39568642 35.71533941 -7 41 C-7.66 41 -8.32 41 -9 41 C-9 44.63 -9 48.26 -9 52 C-9.33 52 -9.66 52 -10 52 C-11.30124452 39.77961668 -10.86330078 29.68470728 -7 18 C-6.78472656 17.34386719 -6.56945312 16.68773437 -6.34765625 16.01171875 C-4.52688494 10.54940483 -2.69936284 5.10154812 0 0 Z " fill="#2D2D2D" transform="translate(132,177)"/>
<path d="M0 0 C-0.33 0.99 -0.66 1.98 -1 3 C-9.09988349 6.889865 -18.26754094 6.31818677 -27 6 C-27 5.67 -27 5.34 -27 5 C-28.25296875 4.87882813 -29.5059375 4.75765625 -30.796875 4.6328125 C-32.44795865 4.46395167 -34.09899809 4.29465817 -35.75 4.125 C-36.9875 4.00705078 -36.9875 4.00705078 -38.25 3.88671875 C-39.04921875 3.80292969 -39.8484375 3.71914062 -40.671875 3.6328125 C-41.4050293 3.55949707 -42.13818359 3.48618164 -42.89355469 3.41064453 C-45.19952905 2.96110247 -46.95391841 2.1362627 -49 1 C-48.34257813 1.0721875 -47.68515625 1.144375 -47.0078125 1.21875 C-33.84897432 2.50253909 -20.98893723 2.90952077 -8.03808594 -0.02050781 C-4.80953118 -0.74412045 -3.21483092 -1.07161031 0 0 Z " fill="#0E0E0E" transform="translate(137,151)"/>
<path d="M0 0 C0.66 0.99 1.32 1.98 2 3 C7.13588492 9.6915679 12.39720312 15.72855726 19 21 C18.34 21.99 17.68 22.98 17 24 C8.80721109 21.76560302 4.22765363 14.23089585 -0.03125 7.4296875 C-1.19498228 4.51097187 -0.88680882 2.96658665 0 0 Z " fill="#1C1C1C" transform="translate(50,122)"/>
<path d="M0 0 C0.763125 0.185625 1.52625 0.37125 2.3125 0.5625 C3.1478125 0.7790625 3.1478125 0.7790625 4 1 C2.375 6.75 2.375 6.75 -1 9 C-4.21309388 8.83934531 -5.55843714 8.45678916 -7.8125 6.125 C-9 4 -9 4 -9 1 C-5.61487877 -1.13137263 -3.80971733 -1.04767226 0 0 Z " fill="#E9E9E9" transform="translate(112,133)"/>
<path d="M0 0 C0.66 0.33 1.32 0.66 2 1 C1.96519531 2.19496094 1.96519531 2.19496094 1.9296875 3.4140625 C1.83167231 9.16895463 2.13337773 13.53346336 4 19 C3.125 21.875 3.125 21.875 2 24 C1.67 22.68 1.34 21.36 1 20 C0.34 20 -0.32 20 -1 20 C-5.34183673 11.50510204 -5.34183673 11.50510204 -4.0625 6.3125 C-3.86785156 5.50425781 -3.67320312 4.69601563 -3.47265625 3.86328125 C-3.31667969 3.24839844 -3.16070312 2.63351563 -3 2 C-2.67 2 -2.34 2 -2 2 C-1.67 3.65 -1.34 5.3 -1 7 C-0.67 4.69 -0.34 2.38 0 0 Z " fill="#212121" transform="translate(219,58)"/>
<path d="M0 0 C3 2 3 2 4 5 C8.29 5 12.58 5 17 5 C17 5.66 17 6.32 17 7 C15 9 15 9 12.78515625 9.16699219 C11.88667969 9.12735352 10.98820312 9.08771484 10.0625 9.046875 C9.08539063 9.00433594 8.10828125 8.96179688 7.1015625 8.91796875 C6.07804687 8.86253906 5.05453125 8.80710938 4 8.75 C2.97648437 8.71003906 1.95296875 8.67007813 0.8984375 8.62890625 C-6.74414875 8.25585125 -6.74414875 8.25585125 -9 6 C-5.99382731 2.99382731 -3.17618402 3.40414684 1 3 C0.67 2.01 0.34 1.02 0 0 Z " fill="#121212" transform="translate(80,230)"/>
<path d="M0 0 C0.99 0 1.98 0 3 0 C2.649375 0.721875 2.29875 1.44375 1.9375 2.1875 C0.78578863 4.86364114 0.78578863 4.86364114 1.4375 7.15625 C2.17434011 10.8813861 2.10639763 14.53392719 2.0625 18.3125 C2.05798828 19.05306641 2.05347656 19.79363281 2.04882812 20.55664062 C2.03712175 22.37112899 2.01918898 24.18557534 2 26 C1.01 26 0.02 26 -1 26 C-1.1953125 23.98177083 -1.390625 21.96354167 -1.5859375 19.9453125 C-1.86374749 17.77331755 -1.86374749 17.77331755 -4 16 C-3.48703094 13.21109924 -2.88187968 10.59694619 -2.125 7.875 C-1.92519531 7.12089844 -1.72539063 6.36679688 -1.51953125 5.58984375 C-1.02348114 3.72375048 -0.51307432 1.86148451 0 0 Z " fill="#3B3B3B" transform="translate(74,167)"/>
<path d="M0 0 C2.3858044 1.84212243 2.9622722 2.79264108 3.51171875 5.8125 C3.56972656 6.864375 3.62773438 7.91625 3.6875 9 C3.78611328 10.5778125 3.78611328 10.5778125 3.88671875 12.1875 C3.96470853 14.12379794 4 16.06213207 4 18 C-2.93 18 -9.86 18 -17 18 C-17 17.67 -17 17.34 -17 17 C-11.72 16.67 -6.44 16.34 -1 16 C-1.020625 14.47375 -1.04125 12.9475 -1.0625 11.375 C-1.06804432 7.47180153 -0.80702729 3.83337965 0 0 Z " fill="#0F0F0F" transform="translate(121,215)"/>
<path d="M0 0 C0.02698189 1.62490954 0.04638757 3.24994633 0.0625 4.875 C0.07410156 5.77992187 0.08570312 6.68484375 0.09765625 7.6171875 C0 10 0 10 -1 12 C-1.66 12 -2.32 12 -3 12 C-3 10.35 -3 8.7 -3 7 C-4.65 7.33 -6.3 7.66 -8 8 C-8.6875 5.6875 -8.6875 5.6875 -9 3 C-7.52853832 0.83153016 -6.39073087 0.14208395 -3.9375 -0.75 C-2 -1 -2 -1 0 0 Z " fill="#181818" transform="translate(96,94)"/>
<path d="M0 0 C0 0.66 0 1.32 0 2 C2.31 2 4.62 2 7 2 C7 2.66 7 3.32 7 4 C5.60805394 4.25170266 4.2110173 4.4753269 2.8125 4.6875 C2.03519531 4.81511719 1.25789063 4.94273437 0.45703125 5.07421875 C-2 5 -2 5 -4.15625 3.5625 C-8.40297946 1.22913216 -12.53883083 1.43057662 -17.3125 1.3125 C-18.24384766 1.27833984 -19.17519531 1.24417969 -20.13476562 1.20898438 C-22.42305672 1.12684059 -24.71098104 1.05758338 -27 1 C-27 0.67 -27 0.34 -27 0 C-26.44014404 -0.02505615 -25.88028809 -0.0501123 -25.3034668 -0.07592773 C-22.76458695 -0.19203745 -20.22606447 -0.3146958 -17.6875 -0.4375 C-16.36588867 -0.49647461 -16.36588867 -0.49647461 -15.01757812 -0.55664062 C-13.74624023 -0.61948242 -13.74624023 -0.61948242 -12.44921875 -0.68359375 C-11.66893311 -0.72025146 -10.88864746 -0.75690918 -10.0847168 -0.79467773 C-3.2044418 -1.4723111 -3.2044418 -1.4723111 0 0 Z " fill="#292929" transform="translate(130,234)"/>
<path d="M0 0 C0 3.21534057 -0.26476072 4.35582586 -2 7 C-4.25 8.8125 -4.25 8.8125 -7 10 C-9.75 9.6875 -9.75 9.6875 -13 9 C-16.00200822 8.9015735 -18.99732277 8.93994646 -22 9 C-22 8.67 -22 8.34 -22 8 C-21.31035156 7.91363281 -20.62070313 7.82726562 -19.91015625 7.73828125 C-12.98735397 6.70318461 -7.89544708 4.71866662 -2 1 C-1.34 0.67 -0.68 0.34 0 0 Z " fill="#0C0C0C" transform="translate(216,94)"/>
<path d="M0 0 C0.33 0 0.66 0 1 0 C1.33 1.98 1.66 3.96 2 6 C7.94 6.33 13.88 6.66 20 7 C19.01 7.66 18.02 8.32 17 9 C16.01 8.67 15.02 8.34 14 8 C14 8.66 14 9.32 14 10 C11.54137599 10.05383848 9.0839245 10.09359038 6.625 10.125 C5.57699219 10.15013672 5.57699219 10.15013672 4.5078125 10.17578125 C2.67102514 10.19344267 0.83398037 10.10303261 -1 10 C-1.66 9.34 -2.32 8.68 -3 8 C-2.34 7.01 -1.68 6.02 -1 5 C-0.61500109 3.34450469 -0.27206865 1.6777567 0 0 Z " fill="#060606" transform="translate(158,224)"/>
<path d="M0 0 C9.24 0 18.48 0 28 0 C28 0.99 28 1.98 28 3 C24.83335334 3.02940458 21.66674253 3.04693315 18.5 3.0625 C17.613125 3.07087891 16.72625 3.07925781 15.8125 3.08789062 C10.44176914 3.10763596 5.31366337 2.78835893 0 2 C0 1.34 0 0.68 0 0 Z " fill="#2A2A2A" transform="translate(92,155)"/>
<path d="M0 0 C0.33 0 0.66 0 1 0 C0.74289236 4.97074779 0.40649549 9.08405224 -3.1328125 12.9375 C-7.24686927 15.27855322 -12.45617996 14.69801667 -17 14 C-17.66 13.34 -18.32 12.68 -19 12 C-18.11248047 11.96132812 -18.11248047 11.96132812 -17.20703125 11.921875 C-11.7809903 11.53240387 -9.16442872 10.68849401 -5 7 C-3.68 7 -2.36 7 -1 7 C-0.67 4.69 -0.34 2.38 0 0 Z " fill="#141414" transform="translate(229,162)"/>
<path d="M0 0 C0.66 0 1.32 0 2 0 C2 0.99 2 1.98 2 3 C3.32 3.66 4.64 4.32 6 5 C4.35 5.33 2.7 5.66 1 6 C1 6.66 1 7.32 1 8 C0.01 8 -0.98 8 -2 8 C-2 8.66 -2 9.32 -2 10 C-2.99 10 -3.98 10 -5 10 C-5.33 10.99 -5.66 11.98 -6 13 C-8.5625 14.1875 -8.5625 14.1875 -11 15 C-10.34 13.68 -9.68 12.36 -9 11 C-8.01 11 -7.02 11 -6 11 C-6.04125 10.21625 -6.0825 9.4325 -6.125 8.625 C-6 6 -6 6 -4 4 C-2.68 4 -1.36 4 0 4 C0 2.68 0 1.36 0 0 Z " fill="#111111" transform="translate(42,76)"/>
<path d="M0 0 C0.99 0.33 1.98 0.66 3 1 C2.360625 1.763125 1.72125 2.52625 1.0625 3.3125 C-1.83232502 7.08454472 -2.13766922 9.75073588 -2.125 14.375 C-2.12757812 15.31085938 -2.13015625 16.24671875 -2.1328125 17.2109375 C-2.00441441 19.90729747 -1.60188709 22.37271509 -1 25 C-1.66 25.33 -2.32 25.66 -3 26 C-5.71987949 20.67356933 -7.24613134 15.98915837 -6 10 C-4.2901413 6.45142368 -2.26002739 3.22188428 0 0 Z " fill="#1B1B1B" transform="translate(25,65)"/>
<path d="M0 0 C2.36574234 3.5486135 2.10865265 4.5764525 1.625 8.6875 C1.51414063 9.68136719 1.40328125 10.67523438 1.2890625 11.69921875 C1.19367188 12.45847656 1.09828125 13.21773437 1 14 C0.34 13.34 -0.32 12.68 -1 12 C-1.680625 11.5875 -2.36125 11.175 -3.0625 10.75 C-5.67987883 8.38591589 -5.69526888 6.42822506 -6 3 C-4.02 2.01 -2.04 1.02 0 0 Z " fill="#191919" transform="translate(141,94)"/>
<path d="M0 0 C0 0.66 0 1.32 0 2 C0.598125 1.79375 1.19625 1.5875 1.8125 1.375 C4 1 4 1 7 3 C4.8125 4.125 4.8125 4.125 2 5 C-0.67578125 4.0546875 -0.67578125 4.0546875 -3 3 C-3.96125903 4.41468311 -4.91888325 5.8318364 -5.875 7.25 C-6.40867188 8.03890625 -6.94234375 8.8278125 -7.4921875 9.640625 C-9.77351431 13.21036955 -11.20090212 16.00902122 -11.625 20.25 C-11.74875 21.4875 -11.8725 22.725 -12 24 C-12.33 24 -12.66 24 -13 24 C-13.80156013 15.46783772 -12.00507963 9.99759207 -6.66015625 3.328125 C-4.34289663 0.82069514 -3.50986748 0 0 0 Z " fill="#191919" transform="translate(186,100)"/>
<path d="M0 0 C0.99 0 1.98 0 3 0 C4.26724909 3.3793309 5.11153391 6.48366396 5.4375 10.0625 C5.98405063 13.88835438 6.77619746 15.90601385 9 19 C8.01 19 7.02 19 6 19 C5.67 18.34 5.34 17.68 5 17 C4.67 20.63 4.34 24.26 4 28 C3.67 28 3.34 28 3 28 C2.92652344 26.09927734 2.92652344 26.09927734 2.8515625 24.16015625 C2.77645809 22.46091904 2.70091368 20.76170124 2.625 19.0625 C2.5940625 18.23169922 2.563125 17.40089844 2.53125 16.54492188 C2.26382297 10.81752631 1.38177413 5.56641529 0 0 Z " fill="#1B1B1B" transform="translate(147,168)"/>
<path d="M0 0 C0.66 0 1.32 0 2 0 C2 0.99 2 1.98 2 3 C3.32 3 4.64 3 6 3 C6 3.66 6 4.32 6 5 C4.68 5 3.36 5 2 5 C1.896875 5.78375 1.79375 6.5675 1.6875 7.375 C1 10 1 10 -2 12 C-4.37783838 9.62216162 -4.59009208 8.27926335 -5 5 C-4.67 4.34 -4.34 3.68 -4 3 C-2.68 3 -1.36 3 0 3 C0 2.01 0 1.02 0 0 Z " fill="#0D0D0D" transform="translate(158,56)"/>
<path d="M0 0 C3.79844086 1.74226007 5.29559476 3.07986796 7 7 C7.62524977 11.75189822 7.16520521 15.66958958 5 20 C4.67 20 4.34 20 4 20 C3.96261719 19.31035156 3.92523438 18.62070313 3.88671875 17.91015625 C3.43921852 11.51353535 2.34350199 5.96929752 0 0 Z " fill="#0D0D0D" transform="translate(189,207)"/>
<path d="M0 0 C1.32 0.66 2.64 1.32 4 2 C3.61328125 2.44730469 3.2265625 2.89460938 2.828125 3.35546875 C-0.18390075 6.8521026 -3.14321031 10.37407463 -6 14 C-6.9375 10.9375 -6.9375 10.9375 -7 7 C-4.99011765 4.27455744 -2.61122143 2.14237369 0 0 Z " fill="#0F0F0F" transform="translate(111,28)"/>
<path d="M0 0 C0 3.74161103 -0.51338171 7.28953557 -1 11 C-1.99 11 -2.98 11 -4 11 C-4 10.01 -4 9.02 -4 8 C-4.78375 8.185625 -5.5675 8.37125 -6.375 8.5625 C-9 9 -9 9 -11 8 C-11 7.34 -11 6.68 -11 6 C-9.54195831 5.18697675 -8.08355685 4.37459869 -6.625 3.5625 C-5.40683594 2.88380859 -5.40683594 2.88380859 -4.1640625 2.19140625 C-2.79003378 1.4349464 -1.40290739 0.70145369 0 0 Z " fill="#121212" transform="translate(123,21)"/>
<path d="M0 0 C0.78375 0.04125 1.5675 0.0825 2.375 0.125 C1.446875 1.053125 1.446875 1.053125 0.5 2 C-2.33543937 6.16976378 -2.89834545 10.20095927 -3.625 15.125 C-4.615 15.125 -5.605 15.125 -6.625 15.125 C-6.625 12.485 -6.625 9.845 -6.625 7.125 C-7.285 6.795 -7.945 6.465 -8.625 6.125 C-7.965 6.125 -7.305 6.125 -6.625 6.125 C-6.33625 5.50625 -6.0475 4.8875 -5.75 4.25 C-4.16515329 1.25640067 -3.47581022 0.16551477 0 0 Z " fill="#111111" transform="translate(35.625,211.875)"/>
<path d="M0 0 C3.26934258 -0.57213495 5.3024273 -0.47687173 8.07421875 1.41796875 C11.47605232 4.36706291 14.37792089 7.33071282 17 11 C16.67 11.66 16.34 12.32 16 13 C15.57589844 12.61328125 15.15179688 12.2265625 14.71484375 11.828125 C10.69695194 8.2605903 6.74596229 5.51826571 2 3 C2 2.34 2 1.68 2 1 C1.34 0.67 0.68 0.34 0 0 Z " fill="#1C1C1C" transform="translate(43,193)"/>
<path d="M0 0 C4.27943406 0.19904344 5.72202966 0.72202966 8.8125 3.8125 C11.64729194 7.94319683 11.64729194 7.94319683 12 11 C8 11 8 11 5 10 C4.29373761 8.01363702 3.63106429 6.01151741 3 4 C1.48446847 1.69833325 1.48446847 1.69833325 0 0 Z " fill="#2B2B2B" transform="translate(181,218)"/>
<path d="M0 0 C3.13242038 1.56621019 3.49678851 4.6659631 4.5625 7.8125 C4.99691406 9.05644531 5.43132812 10.30039063 5.87890625 11.58203125 C7.82188511 17.50574729 7.99413659 19.90028808 6 26 C5.67 26 5.34 26 5 26 C4.80664062 24.87722656 4.61328125 23.75445312 4.4140625 22.59765625 C3.09985088 15.02424767 1.76879907 7.48338069 0 0 Z " fill="#181818" transform="translate(92,179)"/>
<path d="M0 0 C0.33 0.99 0.66 1.98 1 3 C0.34 3.66 -0.32 4.32 -1 5 C-0.34 6.32 0.32 7.64 1 9 C-0.98 9.99 -0.98 9.99 -3 11 C-4.65 9.68 -6.3 8.36 -8 7 C-7.34 7 -6.68 7 -6 7 C-6 5.35 -6 3.7 -6 2 C-4.02 1.34 -2.04 0.68 0 0 Z " fill="#202020" transform="translate(142,147)"/>
<path d="M0 0 C5.94 0.99 5.94 0.99 12 2 C12 2.33 12 2.66 12 3 C9.69 3.33 7.38 3.66 5 4 C7.97 4.33 10.94 4.66 14 5 C14 5.66 14 6.32 14 7 C7.79029227 7.33266291 3.71735105 6.45029331 -2 4 C-1.34 2.68 -0.68 1.36 0 0 Z " fill="#2B2B2B" transform="translate(207,171)"/>
<path d="M0 0 C6.88348266 0.84966065 12.06278473 5.71207245 16.5703125 10.7578125 C17.6875 12.3125 17.6875 12.3125 19 15 C18.67 15.99 18.34 16.98 18 18 C17.443125 17.278125 16.88625 16.55625 16.3125 15.8125 C14.01755352 13.02134888 11.5865727 10.52025033 9 8 C8.46375 7.4225 7.9275 6.845 7.375 6.25 C5.90383382 4.74340914 5.90383382 4.74340914 3 4 C1.3125 1.9375 1.3125 1.9375 0 0 Z " fill="#1A1A1A" transform="translate(176,56)"/>
<path d="M0 0 C2.20297188 2.58279462 3.91435654 4.79873786 5.25 7.9375 C7.65694069 12.1496462 11.02176727 14.33524553 15 17 C14.34 17.66 13.68 18.32 13 19 C6.81766365 13.90311201 1.81050236 9.62850641 -1 2 C-0.67 1.34 -0.34 0.68 0 0 Z " fill="#181818" transform="translate(153,105)"/>
<path d="M0 0 C0.66 0.33 1.32 0.66 2 1 C2.99 1 3.98 1 5 1 C1.72973747 4.81530628 -2.23853564 7.40632712 -7 9 C-7.99 8.67 -8.98 8.34 -10 8 C-9.34 7.67 -8.68 7.34 -8 7 C-7.7525 6.38125 -7.505 5.7625 -7.25 5.125 C-5.45381137 2.07147933 -3.22972883 1.27843433 0 0 Z " fill="#121212" transform="translate(150,143)"/>
<path d="M0 0 C0 3.99904969 -1.72586967 5.80200422 -4 9 C-4.99 8.67 -5.98 8.34 -7 8 C-7.33 10.97 -7.66 13.94 -8 17 C-8.33 17 -8.66 17 -9 17 C-10.43408123 8.91385522 -10.43408123 8.91385522 -8.8125 5.5 C-6.81129212 3.84382796 -5.49957194 3.54678136 -3 3 C-1.26973898 1.52109931 -1.26973898 1.52109931 0 0 Z " fill="#282828" transform="translate(88,31)"/>
<path d="M0 0 C0.8971875 0.309375 0.8971875 0.309375 1.8125 0.625 C1.1875 2.5625 1.1875 2.5625 -0.1875 4.625 C-3.3125 5.375 -3.3125 5.375 -6.1875 5.625 C-5.1975 5.295 -4.2075 4.965 -3.1875 4.625 C-4.17157311 3.42004091 -4.17157311 3.42004091 -6.04516602 3.51147461 C-6.83592529 3.51671143 -7.62668457 3.52194824 -8.44140625 3.52734375 C-9.72241211 3.53217773 -9.72241211 3.53217773 -11.02929688 3.53710938 C-12.37604492 3.54967773 -12.37604492 3.54967773 -13.75 3.5625 C-14.65169922 3.56701172 -15.55339844 3.57152344 -16.48242188 3.57617188 C-18.71751314 3.58799775 -20.95247437 3.6044778 -23.1875 3.625 C-23.1875 3.295 -23.1875 2.965 -23.1875 2.625 C-21.2075 2.625 -19.2275 2.625 -17.1875 2.625 C-16.8575 1.965 -16.5275 1.305 -16.1875 0.625 C-15.5275 0.955 -14.8675 1.285 -14.1875 1.625 C-12.07794938 1.82238723 -12.07794938 1.82238723 -9.75 1.8125 C-8.57630859 1.83376953 -8.57630859 1.83376953 -7.37890625 1.85546875 C-4.26400547 1.52787669 -3.17043417 -0.543503 0 0 Z " fill="#090909" transform="translate(100.1875,232.375)"/>
<path d="M0 0 C1.32 0.99 2.64 1.98 4 3 C0.7 3.33 -2.6 3.66 -6 4 C-3.03 4.495 -3.03 4.495 0 5 C0 5.33 0 5.66 0 6 C-2.64 6 -5.28 6 -8 6 C-8 5.34 -8 4.68 -8 4 C-9.32 4.33 -10.64 4.66 -12 5 C-12 4.34 -12 3.68 -12 3 C-8.0489359 -0.11295959 -4.95036082 -0.54003936 0 0 Z " fill="#777777" transform="translate(112,104)"/>
<path d="M0 0 C-0.0625 1.75 -0.0625 1.75 -1 4 C-4.67238347 6.86059344 -7.29553866 8 -12 8 C-12 7.01 -12 6.02 -12 5 C-10.56705502 4.15885829 -9.12845595 3.32734313 -7.6875 2.5 C-6.88699219 2.0359375 -6.08648437 1.571875 -5.26171875 1.09375 C-3 0 -3 0 0 0 Z " fill="#161616" transform="translate(185,173)"/>
<path d="M0 0 C0.33 0 0.66 0 1 0 C1.02703562 2.58340384 1.04685611 5.16652308 1.0625 7.75 C1.07087891 8.47960937 1.07925781 9.20921875 1.08789062 9.9609375 C1.10391684 13.48670558 0.95292713 16.61034916 0 20 C-0.66 20 -1.32 20 -2 20 C-2.33 20.66 -2.66 21.32 -3 22 C-2.69393651 18.70770134 -2.37905797 15.41630486 -2.0625 12.125 C-1.97548828 11.18785156 -1.88847656 10.25070313 -1.79882812 9.28515625 C-1.71181641 8.38925781 -1.62480469 7.49335938 -1.53515625 6.5703125 C-1.456604 5.74289551 -1.37805176 4.91547852 -1.29711914 4.06298828 C-1 2 -1 2 0 0 Z " fill="#161616" transform="translate(158,194)"/>
<path d="M0 0 C8.80896651 -0.46182931 8.80896651 -0.46182931 13.0625 1.1875 C15.41729253 3.39037043 15.74310052 4.83157307 16 8 C15.01 8.33 14.02 8.66 13 9 C12.87625 8.195625 12.7525 7.39125 12.625 6.5625 C12.41875 5.716875 12.2125 4.87125 12 4 C9.47524538 2.73762269 7.68799534 2.90143596 4.875 2.9375 C3.96492188 2.94652344 3.05484375 2.95554687 2.1171875 2.96484375 C1.06917969 2.98224609 1.06917969 2.98224609 0 3 C0 2.01 0 1.02 0 0 Z " fill="#171717" transform="translate(103,110)"/>
<path d="M0 0 C0.99 0.99 1.98 1.98 3 3 C2.360625 4.051875 1.72125 5.10375 1.0625 6.1875 C-0.61754452 9.10828412 -1.58996052 11.6171743 -2 15 C-4 13 -4 13 -4.375 9.75 C-3.94338741 5.43387409 -2.63736131 3.37911918 0 0 Z " fill="#262626" transform="translate(29,202)"/>
<path d="M0 0 C2.27257484 2.27257484 2.37445778 3.05331841 2.8515625 6.1328125 C2.98046875 6.93847656 3.109375 7.74414062 3.2421875 8.57421875 C3.36851563 9.41597656 3.49484375 10.25773438 3.625 11.125 C3.82609375 12.39923828 3.82609375 12.39923828 4.03125 13.69921875 C4.36144986 15.79834644 4.68167259 17.89903911 5 20 C4.34 20 3.68 20 3 20 C2.34 16.7 1.68 13.4 1 10 C0.34 10 -0.32 10 -1 10 C-1.125 3.375 -1.125 3.375 0 0 Z " fill="#131313" transform="translate(99,198)"/>
<path d="M0 0 C0.556875 0.474375 1.11375 0.94875 1.6875 1.4375 C3.89230696 3.15663659 3.89230696 3.15663659 6.5 3.4375 C9.66967744 4.15067742 10.9015219 5.59063626 13 8 C11.02 8.99 11.02 8.99 9 10 C7.49410612 8.71520959 5.99542625 7.42195918 4.5 6.125 C3.6646875 5.40570313 2.829375 4.68640625 1.96875 3.9453125 C1.3190625 3.30335938 0.669375 2.66140625 0 2 C0 1.34 0 0.68 0 0 Z " fill="#0F0F0F" transform="translate(56,136)"/>
<path d="M0 0 C6.75 1.75 6.75 1.75 9 4 C6.36 5.65 3.72 7.3 1 9 C-0.66015625 2.84765625 -0.66015625 2.84765625 -1 1 C-0.67 0.67 -0.34 0.34 0 0 Z " fill="#070707" transform="translate(178,31)"/>
<path d="M0 0 C5.27388024 -0.50227431 7.91015695 0.67105798 12 4 C13.31223496 7.93670488 12.24296256 10.12488144 11 14 C10.67 14 10.34 14 10 14 C9.896875 12.9275 9.79375 11.855 9.6875 10.75 C8.87645308 6.26977675 8.87645308 6.26977675 6 3 C2.89802603 2.19053578 2.89802603 2.19053578 0 2 C0 1.34 0 0.68 0 0 Z " fill="#292929" transform="translate(217,138)"/>
<path d="M0 0 C0.33 0 0.66 0 1 0 C0.96519531 1.03640625 0.93039063 2.0728125 0.89453125 3.140625 C0.86638518 4.51040042 0.83908589 5.88019341 0.8125 7.25 C0.78736328 7.93191406 0.76222656 8.61382812 0.73632812 9.31640625 C0.68862541 12.59199289 0.78914924 14.65348556 2.51171875 17.484375 C3.00285156 17.98453125 3.49398437 18.4846875 4 19 C3.01 19 2.02 19 1 19 C0.67 18.01 0.34 17.02 0 16 C-0.66 16 -1.32 16 -2 16 C-2.2358396 10.22192976 -1.86783046 5.48675196 0 0 Z " fill="#171717" transform="translate(149,198)"/>
<path d="M0 0 C3.78717347 1.48781815 5.77407001 3.61988409 8 7 C7.67 7.99 7.34 8.98 7 10 C7 9.34 7 8.68 7 8 C6.34 8 5.68 8 5 8 C4.67 8.66 4.34 9.32 4 10 C2.35 7.69 0.7 5.38 -1 3 C-0.34 3 0.32 3 1 3 C0.67 2.01 0.34 1.02 0 0 Z " fill="#0B0B0B" transform="translate(203,33)"/>
<path d="M0 0 C2.71498943 4.24217099 2.48874992 8.61734416 1.5 13.4375 C1.335 13.953125 1.17 14.46875 1 15 C0.34 15 -0.32 15 -1 15 C-1.33 15.66 -1.66 16.32 -2 17 C-1.85941524 14.54126232 -1.71277001 12.08314825 -1.5625 9.625 C-1.52318359 8.92632812 -1.48386719 8.22765625 -1.44335938 7.5078125 C-1.11328125 2.2265625 -1.11328125 2.2265625 0 0 Z " fill="#242424" transform="translate(64,88)"/>
<path d="M0 0 C0.33 0 0.66 0 1 0 C1.66 4.29 2.32 8.58 3 13 C2.34 13 1.68 13 1 13 C1 16.63 1 20.26 1 24 C0.67 24 0.34 24 0 24 C-0.19586184 21.1253509 -0.38193799 18.25061717 -0.5625 15.375 C-0.61857422 14.56675781 -0.67464844 13.75851563 -0.73242188 12.92578125 C-1.00604422 8.43837484 -0.96801881 4.43137501 0 0 Z " fill="#1F1F1F" transform="translate(122,205)"/>
<path d="M0 0 C6.36734694 0.36734694 6.36734694 0.36734694 9.4375 3.4375 C11 6 11 6 11 8 C8.53199953 6.84826645 6.95216435 5.95216435 5 4 C3.01643517 3.28591666 1.01684563 2.61382258 -1 2 C-0.67 1.34 -0.34 0.68 0 0 Z " fill="#1A1A1A" transform="translate(130,74)"/>
<path d="M0 0 C3 2 3 2 3.6875 4.625 C3.790625 5.40875 3.89375 6.1925 4 7 C2.20991533 7.22151549 0.41781838 7.42682213 -1.375 7.625 C-2.37273437 7.74101562 -3.37046875 7.85703125 -4.3984375 7.9765625 C-5.25695312 7.98429688 -6.11546875 7.99203125 -7 8 C-7.66 7.34 -8.32 6.68 -9 6 C-5.99382731 2.99382731 -3.17618402 3.40414684 1 3 C0.67 2.01 0.34 1.02 0 0 Z " fill="#3B3B3B" transform="translate(80,230)"/>
<path d="M0 0 C-0.33 0.99 -0.66 1.98 -1 3 C-4.47325181 4.1577506 -7.36067448 4.06866652 -11 4 C-10.34 3.34 -9.68 2.68 -9 2 C-9.99 1.34 -10.98 0.68 -12 0 C-3.42857143 -1.28571429 -3.42857143 -1.28571429 0 0 Z " fill="#0E0E0E" transform="translate(207,175)"/>
<path d="M0 0 C3.82097239 0.53069061 6.06171403 1.49701566 9 4 C6.875 5.1875 6.875 5.1875 4 6 C0.6875 4.625 0.6875 4.625 -2 3 C-1.34 2.01 -0.68 1.02 0 0 Z " fill="#222222" transform="translate(68,144)"/>
<path d="M0 0 C0.66 0 1.32 0 2 0 C1.690625 0.598125 1.38125 1.19625 1.0625 1.8125 C-0.10209704 4.08956772 -0.10209704 4.08956772 -1 7 C0.32 7.99 1.64 8.98 3 10 C-0.10046087 11.03348696 -1.05610218 11.17755913 -4 10 C-4.33 9.01 -4.66 8.02 -5 7 C-3.58511552 4.23760649 -2.19636905 2.19636905 0 0 Z " fill="#0D0D0D" transform="translate(190,92)"/>
<path d="M0 0 C0.94875 0.04125 1.8975 0.0825 2.875 0.125 C3.205 0.785 3.535 1.445 3.875 2.125 C2.2353125 2.7746875 2.2353125 2.7746875 0.5625 3.4375 C-2.21908793 4.61995641 -4.18861939 5.73300043 -6.125 8.125 C-6.785 7.795 -7.445 7.465 -8.125 7.125 C-4.09482759 0.1637931 -4.09482759 0.1637931 0 0 Z " fill="#111111" transform="translate(84.125,73.875)"/>
<path d="M0 0 C1.010625 0.5775 2.02125 1.155 3.0625 1.75 C4.72390763 2.42966676 6.38950041 3.09938905 8.0625 3.75 C8.7225 4.08 9.3825 4.41 10.0625 4.75 C9.4025 5.41 8.7425 6.07 8.0625 6.75 C6.7425 6.75 5.4225 6.75 4.0625 6.75 C3.1653125 5.821875 3.1653125 5.821875 2.25 4.875 C-0.56242977 2.14292536 -3.16954189 1.61952879 -6.9375 0.75 C-4.07659847 -1.34065881 -3.34842801 -1.42486298 0 0 Z " fill="#101010" transform="translate(61.9375,48.25)"/>
<path d="M0 0 C0.99 0.33 1.98 0.66 3 1 C3.66 0.67 4.32 0.34 5 0 C5.66 1.65 6.32 3.3 7 5 C3.04 5 -0.92 5 -5 5 C-3.35 3.35 -1.7 1.7 0 0 Z " fill="#020202" transform="translate(182,230)"/>
<path d="M0 0 C0.04898438 0.60328125 0.09796875 1.2065625 0.1484375 1.828125 C0.22320312 2.62734375 0.29796875 3.4265625 0.375 4.25 C0.44460937 5.03890625 0.51421875 5.8278125 0.5859375 6.640625 C1.01507113 9.085877 1.78600638 10.84836903 3 13 C0 13 0 13 -1.6875 11.5 C-3.58874414 7.8785826 -3.20312109 5.06242173 -3 1 C-1 0 -1 0 0 0 Z " fill="#0B0B0B" transform="translate(189,162)"/>
<path d="M0 0 C0.66 0.99 1.32 1.98 2 3 C1.01 4.98 0.02 6.96 -1 9 C-2.65 8.67 -4.3 8.34 -6 8 C-3.375 2.25 -3.375 2.25 0 0 Z " fill="#1F1F1F" transform="translate(168,124)"/>
<path d="M0 0 C1.09651823 3.41139003 0.94215473 6.20655581 0.5625 9.75 C0.40974609 11.22726563 0.40974609 11.22726563 0.25390625 12.734375 C0.12822266 13.85585937 0.12822266 13.85585937 0 15 C-0.66 15 -1.32 15 -2 15 C-2.05386629 12.87527424 -2.09273071 10.75016348 -2.125 8.625 C-2.14820313 7.44164063 -2.17140625 6.25828125 -2.1953125 5.0390625 C-2 2 -2 2 0 0 Z " fill="#131313" transform="translate(153,89)"/>
<path d="M0 0 C-1.62339805 1.70884005 -3.29319053 3.37446717 -5 5 C-5.66 5 -6.32 5 -7 5 C-7 4.34 -7 3.68 -7 3 C-8.32 2.34 -9.64 1.68 -11 1 C-3.57142857 -1.42857143 -3.57142857 -1.42857143 0 0 Z " fill="#2F2F2F" transform="translate(107,20)"/>
<path d="M0 0 C0.99 0.99 1.98 1.98 3 3 C1.4375 5.5 1.4375 5.5 -1 8 C-4.75 8.3125 -4.75 8.3125 -8 8 C-6.68 7.67 -5.36 7.34 -4 7 C-4 6.34 -4 5.68 -4 5 C-3.02149805 3.97895449 -2.02019573 2.9793879 -1 2 C-0.67 1.34 -0.34 0.68 0 0 Z " fill="#1A1A1A" transform="translate(115,136)"/>
<path d="M0 0 C0.7940625 0.07863281 1.588125 0.15726563 2.40625 0.23828125 C4.5 0.6875 4.5 0.6875 6.5 2.6875 C5.51 3.0175 4.52 3.3475 3.5 3.6875 C2.88125 3.3575 2.2625 3.0275 1.625 2.6875 C-1.11867229 1.3963601 -2.63937931 1.89288314 -5.5 2.6875 C-5.83 2.0275 -6.16 1.3675 -6.5 0.6875 C-4.02756353 -0.54871824 -2.72682061 -0.29658601 0 0 Z M-8.5 1.6875 C-7.84 1.6875 -7.18 1.6875 -6.5 1.6875 C-6.83 2.3475 -7.16 3.0075 -7.5 3.6875 C-7.83 3.0275 -8.16 2.3675 -8.5 1.6875 Z " fill="#161616" transform="translate(161.5,47.3125)"/>
<path d="M0 0 C1.231394 3.69418201 0.64432764 6.2056261 0 10 C0.78375 10.309375 1.5675 10.61875 2.375 10.9375 C5 12 5 12 7 13 C5.02 13.99 5.02 13.99 3 15 C1.01953125 13.81640625 1.01953125 13.81640625 -1 12 C-1.42578125 9.58984375 -1.42578125 9.58984375 -1.3125 6.9375 C-1.28800781 6.05964844 -1.26351562 5.18179688 -1.23828125 4.27734375 C-1 2 -1 2 0 0 Z " fill="#070707" transform="translate(67,221)"/>
<path d="M0 0 C0.33 0 0.66 0 1 0 C2.32594359 5.96674616 2.0884587 11.92583615 2 18 C1.67 18 1.34 18 1 18 C0.8046875 15.98177083 0.609375 13.96354167 0.4140625 11.9453125 C0.13625251 9.77331755 0.13625251 9.77331755 -2 8 C-1.7578125 6.0546875 -1.7578125 6.0546875 -1.125 3.875 C-0.92132813 3.15054688 -0.71765625 2.42609375 -0.5078125 1.6796875 C-0.34023437 1.12539062 -0.17265625 0.57109375 0 0 Z " fill="#232323" transform="translate(72,175)"/>
<path d="M0 0 C0.05423638 1.91635217 0.09289963 3.83314925 0.125 5.75 C0.14820313 6.81734375 0.17140625 7.8846875 0.1953125 8.984375 C0.00487687 11.92470106 -0.47329896 13.52361878 -2 16 C-2.41787052 14.0880169 -2.80853809 12.1700737 -3.1875 10.25 C-3.40792969 9.18265625 -3.62835938 8.1153125 -3.85546875 7.015625 C-4 4 -4 4 -2.61328125 1.609375 C-1 0 -1 0 0 0 Z " fill="#0A0A0A" transform="translate(228,152)"/>
<path d="M0 0 C0.99 0 1.98 0 3 0 C3.08131463 1.43655854 3.13933559 2.8744483 3.1875 4.3125 C3.23970703 5.51326172 3.23970703 5.51326172 3.29296875 6.73828125 C3 9 3 9 0 12 C0 8.04 0 4.08 0 0 Z " fill="#2D2D2D" transform="translate(153,71)"/>
<path d="M0 0 C0.33 0 0.66 0 1 0 C1.12117188 0.60328125 1.24234375 1.2065625 1.3671875 1.828125 C1.53476563 2.62734375 1.70234375 3.4265625 1.875 4.25 C2.03742188 5.03890625 2.19984375 5.8278125 2.3671875 6.640625 C2.99150075 8.96831144 3.84838542 10.89031952 5 13 C0.125 10.125 0.125 10.125 -1 9 C-1.1328125 7.1875 -1.1328125 7.1875 -1.125 5 C-1.12757812 4.278125 -1.13015625 3.55625 -1.1328125 2.8125 C-1 1 -1 1 0 0 Z " fill="#232323" transform="translate(103,49)"/>
<path d="M0 0 C0.99 0.33 1.98 0.66 3 1 C2.67 1.99 2.34 2.98 2 4 C1.34 4 0.68 4 0 4 C-0.33 4.99 -0.66 5.98 -1 7 C-3.0625 7.6875 -3.0625 7.6875 -5 8 C-3.8141763 4.62496331 -2.72426311 2.35277269 0 0 Z " fill="#0E0E0E" transform="translate(86,28)"/>
<path d="M0 0 C0.99 0 1.98 0 3 0 C2.67 4.62 2.34 9.24 2 14 C1.67 14 1.34 14 1 14 C0.67 9.38 0.34 4.76 0 0 Z " fill="#0B0B0B" transform="translate(123,203)"/>
<path d="M0 0 C0.66 0.66 1.32 1.32 2 2 C1.67 2.66 1.34 3.32 1 4 C0.77532169 5.53668865 0.59203195 7.07968054 0.4375 8.625 C0.35371094 9.44226563 0.26992187 10.25953125 0.18359375 11.1015625 C0.12300781 11.72804687 0.06242188 12.35453125 0 13 C-0.99 12.67 -1.98 12.34 -3 12 C-2.88601335 10.37419034 -2.75844341 8.74932843 -2.625 7.125 C-2.55539063 6.22007812 -2.48578125 5.31515625 -2.4140625 4.3828125 C-2 2 -2 2 0 0 Z " fill="#333333" transform="translate(184,141)"/>
<path d="M0 0 C2.0625 0.4375 2.0625 0.4375 4 1 C4 2.32 4 3.64 4 5 C2.68 5.33 1.36 5.66 0 6 C-0.38218767 4.34385343 -0.71395102 2.67542976 -1 1 C-0.67 0.67 -0.34 0.34 0 0 Z " fill="#E3E3E3" transform="translate(136,96)"/>
<path d="M0 0 C2.0625 0.4375 2.0625 0.4375 4 1 C4 2.32 4 3.64 4 5 C2.68 5.33 1.36 5.66 0 6 C-0.38218767 4.34385343 -0.71395102 2.67542976 -1 1 C-0.67 0.67 -0.34 0.34 0 0 Z " fill="#E1E1E1" transform="translate(88,96)"/>
<path d="M0 0 C0.66 0 1.32 0 2 0 C2 0.99 2 1.98 2 3 C3.32 3 4.64 3 6 3 C6 3.66 6 4.32 6 5 C4.68 5 3.36 5 2 5 C2 5.99 2 6.98 2 8 C1.34 8 0.68 8 0 8 C0 7.34 0 6.68 0 6 C-0.66 6 -1.32 6 -2 6 C-2 5.34 -2 4.68 -2 4 C-1.34 4 -0.68 4 0 4 C0 2.68 0 1.36 0 0 Z " fill="#161616" transform="translate(158,56)"/>
<path d="M0 0 C-1.20783751 3.62351253 -2.29653142 4.15215236 -5.4375 6.1875 C-6.24058594 6.71730469 -7.04367188 7.24710938 -7.87109375 7.79296875 C-10 9 -10 9 -12 9 C-12 8.34 -12 7.68 -12 7 C-9.8828125 5.2734375 -9.8828125 5.2734375 -7.125 3.375 C-6.22007813 2.74335937 -5.31515625 2.11171875 -4.3828125 1.4609375 C-2 0 -2 0 0 0 Z " fill="#1A1A1A" transform="translate(43,53)"/>
<path d="M0 0 C0.598125 0.61875 1.19625 1.2375 1.8125 1.875 C4.00811144 4.13676954 4.00811144 4.13676954 7 6 C5.35 6.33 3.7 6.66 2 7 C3.98 7 5.96 7 8 7 C8.33 7.66 8.66 8.32 9 9 C6.36 8.67 3.72 8.34 1 8 C0.67 5.36 0.34 2.72 0 0 Z " fill="#060606" transform="translate(215,133)"/>
<path d="M0 0 C0.33 0 0.66 0 1 0 C1 4.29 1 8.58 1 13 C0.01 13 -0.98 13 -2 13 C-2.05416188 11.39620659 -2.09286638 9.79188594 -2.125 8.1875 C-2.14820313 7.29417969 -2.17140625 6.40085937 -2.1953125 5.48046875 C-2 3 -2 3 0 0 Z " fill="#313131" transform="translate(63,69)"/>
<path d="M0 0 C0.75 2.125 0.75 2.125 1 4 C0.01 4 -0.98 4 -2 4 C-2.66 2.68 -3.32 1.36 -4 0 C-6.31 0 -8.62 0 -11 0 C-11 -0.33 -11 -0.66 -11 -1 C-3.11538462 -2.51627219 -3.11538462 -2.51627219 0 0 Z " fill="#282828" transform="translate(215,132)"/>
<path d="M0 0 C1.37478516 0.01740234 1.37478516 0.01740234 2.77734375 0.03515625 C3.69644531 0.04417969 4.61554688 0.05320312 5.5625 0.0625 C6.27277344 0.07410156 6.98304687 0.08570312 7.71484375 0.09765625 C8.04484375 0.75765625 8.37484375 1.41765625 8.71484375 2.09765625 C6.4859338 3.21211123 5.18429269 3.26245911 2.71484375 3.28515625 C1.66296875 3.30642578 1.66296875 3.30642578 0.58984375 3.328125 C-1.28515625 3.09765625 -1.28515625 3.09765625 -3.28515625 1.09765625 C-2.28515625 0.09765625 -2.28515625 0.09765625 0 0 Z " fill="#1B1B1B" transform="translate(82.28515625,108.90234375)"/>
<path d="M0 0 C1.5778125 0.1546875 1.5778125 0.1546875 3.1875 0.3125 C1.90485273 2.87779454 0.95977651 2.97749863 -1.6875 3.9375 C-2.38617188 4.19789062 -3.08484375 4.45828125 -3.8046875 4.7265625 C-5.8125 5.3125 -5.8125 5.3125 -8.8125 5.3125 C-5.88314862 1.76177106 -4.6956049 0.38488565 0 0 Z " fill="#2B2B2B" transform="translate(132.8125,86.6875)"/>
<path d="M0 0 C0.33 0 0.66 0 1 0 C1 2.97 1 5.94 1 9 C-0.32 9 -1.64 9 -3 9 C-3 6.36 -3 3.72 -3 1 C-2.01 2.485 -2.01 2.485 -1 4 C-0.67 2.68 -0.34 1.36 0 0 Z " fill="#0B0B0B" transform="translate(222,77)"/>
<path d="M0 0 C0.66 0 1.32 0 2 0 C1.57405412 1.44096586 1.13373367 2.87768712 0.6875 4.3125 C0.44386719 5.11300781 0.20023437 5.91351563 -0.05078125 6.73828125 C-1.04182023 9.09964573 -2.08074943 10.33879993 -4 12 C-3.53680089 7.27536912 -2.90108294 3.82942948 0 0 Z " fill="#101010" transform="translate(66,59)"/>
<path d="M0 0 C2.65517241 3.98275862 2.65517241 3.98275862 3 7 C2.0625 10.25 2.0625 10.25 1 13 C-0.30117451 10.39765097 -0.53251882 7.86332224 -1 5 C-1.33 4.01 -1.66 3.02 -2 2 C-1.34 2 -0.68 2 0 2 C0 1.34 0 0.68 0 0 Z " fill="#242424" transform="translate(156,217)"/>
<path d="M0 0 C6.625 0.75 6.625 0.75 10 3 C5.25 6 5.25 6 3 6 C3 4.35 3 2.7 3 1 C2.01 0.67 1.02 0.34 0 0 Z " fill="#080808" transform="translate(80,152)"/>
<path d="M0 0 C0.99 0 1.98 0 3 0 C4.0326802 2.78823655 4.04509293 3.8677274 3.0625 6.75 C2.711875 7.4925 2.36125 8.235 2 9 C1.87625 8.360625 1.7525 7.72125 1.625 7.0625 C1.315625 6.0415625 1.315625 6.0415625 1 5 C0.34 4.67 -0.32 4.34 -1 4 C-0.67 2.68 -0.34 1.36 0 0 Z " fill="#1F1F1F" transform="translate(219,73)"/>
<path d="M0 0 C0.969375 0.7425 1.93875 1.485 2.9375 2.25 C3.75541016 2.87648437 3.75541016 2.87648437 4.58984375 3.515625 C6.2692289 5.28339884 6.59922685 6.62579957 7 9 C5.68388323 8.04663979 4.37221039 7.08714226 3.0625 6.125 C2.33160156 5.59132812 1.60070313 5.05765625 0.84765625 4.5078125 C-1 3 -1 3 -2 1 C-1.34 0.67 -0.68 0.34 0 0 Z " fill="#242424" transform="translate(53,197)"/>
<path d="M0 0 C0.66 0 1.32 0 2 0 C2 1.98 2 3.96 2 6 C3.32 6.66 4.64 7.32 6 8 C5.01 8.33 4.02 8.66 3 9 C0.9375 7.3125 0.9375 7.3125 -1 5 C-0.75 2.25 -0.75 2.25 0 0 Z " fill="#191919" transform="translate(100,113)"/>
<path d="M0 0 C0.66 0 1.32 0 2 0 C2.33 1.32 2.66 2.64 3 4 C0.03 6.475 0.03 6.475 -3 9 C-3 5.30465565 -2.63342306 3.63342306 0 1 C0 0.67 0 0.34 0 0 Z " fill="#282828" transform="translate(71,51)"/>
<path d="M0 0 C0.66 0 1.32 0 2 0 C3.20272819 2.40545638 3.10071472 3.94996953 3.0625 6.625 C3.05347656 7.44226562 3.04445313 8.25953125 3.03515625 9.1015625 C3.02355469 9.72804688 3.01195313 10.35453125 3 11 C2.67 10.01 2.34 9.02 2 8 C1.01 8.33 0.02 8.66 -1 9 C-0.67 6.03 -0.34 3.06 0 0 Z " fill="#272727" transform="translate(95,27)"/>
<path d="M0 0 C0.66 0 1.32 0 2 0 C3.231394 3.69418201 2.64432764 6.2056261 2 10 C1.01 10 0.02 10 -1 10 C-1.02689216 8.52093108 -1.04634621 7.04172517 -1.0625 5.5625 C-1.07410156 4.73878906 -1.08570312 3.91507813 -1.09765625 3.06640625 C-1 1 -1 1 0 0 Z " fill="#0A0A0A" transform="translate(30,217)"/>
<path d="M0 0 C0.33 0 0.66 0 1 0 C1.33 3.96 1.66 7.92 2 12 C1.01 12.495 1.01 12.495 0 13 C-1.49084832 8.52745503 -1.49084832 4.47254497 0 0 Z " fill="#141414" transform="translate(76,200)"/>
<path d="M0 0 C0.66 0 1.32 0 2 0 C2.625 2.875 2.625 2.875 3 6 C2.34 6.66 1.68 7.32 1 8 C-1.125 7.625 -1.125 7.625 -3 7 C-2.505 6.030625 -2.01 5.06125 -1.5 4.0625 C0.07331124 1.41867592 0.07331124 1.41867592 0 0 Z " fill="#262626" transform="translate(81,153)"/>
<path d="M0 0 C0 3.74161103 -0.51338171 7.28953557 -1 11 C-1.33 11 -1.66 11 -2 11 C-2.12375 10.21625 -2.2475 9.4325 -2.375 8.625 C-2.79117993 5.85942178 -2.79117993 5.85942178 -5 4 C-5 3.34 -5 2.68 -5 2 C-3.35 1.34 -1.7 0.68 0 0 Z " fill="#2A2A2A" transform="translate(123,21)"/>
<path d="M0 0 C-0.33 1.32 -0.66 2.64 -1 4 C-2.98 3.34 -4.96 2.68 -7 2 C-7 1.34 -7 0.68 -7 0 C-4.3333581 -1.33332095 -2.83319697 -0.67102033 0 0 Z " fill="#141414" transform="translate(81,149)"/>
<path d="M0 0 C2.475 0.495 2.475 0.495 5 1 C4.34 3.31 3.68 5.62 3 8 C1.5 6.6875 1.5 6.6875 0 5 C0 3.33333333 0 1.66666667 0 0 Z " fill="#1C1C1C" transform="translate(218,85)"/>
<path d="M0 0 C0.66 0.33 1.32 0.66 2 1 C1.01 3.97 0.02 6.94 -1 10 C-1.66 8.68 -2.32 7.36 -3 6 C-1.625 2.75 -1.625 2.75 0 0 Z " fill="#111111" transform="translate(70,184)"/>
<path d="M0 0 C0.33 1.32 0.66 2.64 1 4 C2.65 3.67 4.3 3.34 6 3 C5.01 3.495 5.01 3.495 4 4 C4 4.66 4 5.32 4 6 C1.69 6.33 -0.62 6.66 -3 7 C-2.67 6.01 -2.34 5.02 -2 4 C-1.34 4 -0.68 4 0 4 C0 2.68 0 1.36 0 0 Z " fill="#181818" transform="translate(39,119)"/>
<path d="M0 0 C0.66 0.66 1.32 1.32 2 2 C1.96712417 4.72869407 1.43602229 7.2966618 1 10 C-1 8 -1 8 -1.1875 4.4375 C-1 1 -1 1 0 0 Z " fill="#2C2C2C" transform="translate(26,207)"/>
<path d="M0 0 C0.66 0 1.32 0 2 0 C3.60080151 4.00200378 2.29279692 7.04556236 1 11 C0.67 11 0.34 11 0 11 C-0.19491452 9.54263913 -0.38069358 8.08405407 -0.5625 6.625 C-0.66691406 5.81289062 -0.77132812 5.00078125 -0.87890625 4.1640625 C-1 2 -1 2 0 0 Z " fill="#2C2C2C" transform="translate(97,194)"/>
<path d="M0 0 C0.66 0 1.32 0 2 0 C0.50902342 3.7952131 -1.75700849 5.61042731 -5 8 C-5 7.01 -5 6.02 -5 5 C-4.01 4.67 -3.02 4.34 -2 4 C-0.79117904 1.99983534 -0.79117904 1.99983534 0 0 Z " fill="#141414" transform="translate(58,112)"/>
<path d="M0 0 C0.99 0 1.98 0 3 0 C2.34 2.31 1.68 4.62 1 7 C0.01 6.67 -0.98 6.34 -2 6 C-1.49396008 3.83125748 -1.00016187 2.00032373 0 0 Z " fill="#161616" transform="translate(134,94)"/>
<path d="M0 0 C5.75 -0.125 5.75 -0.125 8 1 C8 1.66 8 2.32 8 3 C5.03 2.67 2.06 2.34 -1 2 C-0.67 1.34 -0.34 0.68 0 0 Z " fill="#0D0D0D" transform="translate(159,20)"/>
<path d="M0 0 C2.5 1.25 2.5 1.25 5 3 C5 4.32 5 5.64 5 7 C3.0625 6.3125 3.0625 6.3125 1 5 C0.25 2.375 0.25 2.375 0 0 Z " fill="#262626" transform="translate(92,127)"/>
<path d="M0 0 C2.64752004 2.57784846 4.94432065 4.91648098 7 8 C6.01 8 5.02 8 4 8 C0 3.77142857 0 3.77142857 0 0 Z " fill="#2D2D2D" transform="translate(25,92)"/>
<path d="M0 0 C2.475 0.99 2.475 0.99 5 2 C4.67 3.65 4.34 5.3 4 7 C2 5.1875 2 5.1875 0 3 C0 2.01 0 1.02 0 0 Z " fill="#0F0F0F" transform="translate(27,91)"/>
<path d="M0 0 C0.66 0 1.32 0 2 0 C3.0161692 4.62921525 2.83796731 8.34462607 2 13 C1.67 13 1.34 13 1 13 C0.67 8.71 0.34 4.42 0 0 Z " fill="#424242" transform="translate(192,212)"/>
<path d="M0 0 C0.33 0 0.66 0 1 0 C1.33 2.97 1.66 5.94 2 9 C1.01 9.33 0.02 9.66 -1 10 C-0.67 6.7 -0.34 3.4 0 0 Z " fill="#2F2F2F" transform="translate(122,205)"/>
<path d="M0 0 C0.66 0 1.32 0 2 0 C1.67 2.97 1.34 5.94 1 9 C-1 6 -1 6 -0.625 2.8125 C-0.41875 1.884375 -0.2125 0.95625 0 0 Z " fill="#121212" transform="translate(127,189)"/>
<path d="M0 0 C2.31 0.33 4.62 0.66 7 1 C5 3 5 3 2.375 3.125 C1.59125 3.08375 0.8075 3.0425 0 3 C0 2.01 0 1.02 0 0 Z " fill="#212121" transform="translate(130,74)"/>
<path d="M0 0 C0.0825 0.61875 0.165 1.2375 0.25 1.875 C0.81258459 4.18437567 0.81258459 4.18437567 3.0625 5.25 C3.701875 5.4975 4.34125 5.745 5 6 C5 6.99 5 7.98 5 9 C3.02 7.35 1.04 5.7 -1 4 C-0.67 2.68 -0.34 1.36 0 0 Z " fill="#303030" transform="translate(212,45)"/>
<path d="M0 0 C0.33 0 0.66 0 1 0 C1.33 3.3 1.66 6.6 2 10 C0.68 9.67 -0.64 9.34 -2 9 C-1.34 9 -0.68 9 0 9 C-0.185625 8.443125 -0.37125 7.88625 -0.5625 7.3125 C-1.07551165 4.600867 -0.6640724 2.65628961 0 0 Z " fill="#0A0A0A" transform="translate(78,42)"/>
<path d="M0 0 C1.32 0.33 2.64 0.66 4 1 C4 2.98 4 4.96 4 7 C3.34 7 2.68 7 2 7 C1.34 4.69 0.68 2.38 0 0 Z " fill="#161616" transform="translate(208,41)"/>
<path d="M0 0 C1.9375 0.375 1.9375 0.375 4 1 C4.33 1.66 4.66 2.32 5 3 C2.525 4.485 2.525 4.485 0 6 C0 4.02 0 2.04 0 0 Z " fill="#191919" transform="translate(179,34)"/>
<path d="M0 0 C0.66 0.33 1.32 0.66 2 1 C1.38722388 3.96175123 0.74627478 5.38058783 -1 8 C-1.66 7.34 -2.32 6.68 -3 6 C-2.01 4.02 -1.02 2.04 0 0 Z " fill="#1D1D1D" transform="translate(134,30)"/>
<path d="M0 0 C1.32 0.66 2.64 1.32 4 2 C2.35 3.98 0.7 5.96 -1 8 C-1 2 -1 2 0 0 Z " fill="#070707" transform="translate(111,28)"/>
<path d="M0 0 C-0.33 0.66 -0.66 1.32 -1 2 C-4.37462715 1.45276317 -6.08235 0.9451 -9 -1 C-5.23375329 -2.25541557 -3.62811066 -1.37061958 0 0 Z " fill="#262626" transform="translate(173,24)"/>
<path d="M0 0 C2.97 0 5.94 0 9 0 C5.71299843 1.64350079 3.52069985 2.41321669 0 3 C0 2.01 0 1.02 0 0 Z " fill="#282828" transform="translate(154,19)"/>
<path d="M0 0 C2 1 2 1 6 4 C2.37 4 -1.26 4 -5 4 C-3.68 3.34 -2.36 2.68 -1 2 C-0.67 1.34 -0.34 0.68 0 0 Z " fill="#050505" transform="translate(182,195)"/>
<path d="M0 0 C2.475 0.99 2.475 0.99 5 2 C3.625 3.5 3.625 3.5 2 5 C1.34 5 0.68 5 0 5 C-0.5625 3.0625 -0.5625 3.0625 -1 1 C-0.67 0.67 -0.34 0.34 0 0 Z " fill="#2A2A2A" transform="translate(72,145)"/>
<path d="M0 0 C0.12375 0.639375 0.2475 1.27875 0.375 1.9375 C0.684375 2.9584375 0.684375 2.9584375 1 4 C1.66 4.33 2.32 4.66 3 5 C1.02 5 -0.96 5 -3 5 C-3.33 4.34 -3.66 3.68 -4 3 C-2.68 2.01 -1.36 1.02 0 0 Z " fill="#282828" transform="translate(107,127)"/>
<path d="M0 0 C0.99 0.33 1.98 0.66 3 1 C0.525 4.465 0.525 4.465 -2 8 C-2.33 6.68 -2.66 5.36 -3 4 C-1.5625 1.75 -1.5625 1.75 0 0 Z " fill="#202020" transform="translate(25,65)"/>
<path d="M0 0 C0.99 0.66 1.98 1.32 3 2 C3 2.99 3 3.98 3 5 C1.0625 4.6875 1.0625 4.6875 -1 4 C-1.33 3.01 -1.66 2.02 -2 1 C-1.34 0.67 -0.68 0.34 0 0 Z " fill="#202020" transform="translate(201,31)"/>
<path d="M0 0 C1.32 0.33 2.64 0.66 4 1 C4.33 2.32 4.66 3.64 5 5 C3.35 4.67 1.7 4.34 0 4 C0 2.68 0 1.36 0 0 Z " fill="#121212" transform="translate(96,22)"/>
</svg>
