<?xml version="1.0" encoding="UTF-8"?>
<svg version="1.1" xmlns="http://www.w3.org/2000/svg" width="255" height="257">
<path d="M0 0 C84.15 0 168.3 0 255 0 C255 84.81 255 169.62 255 257 C170.85 257 86.7 257 0 257 C0 172.19 0 87.38 0 0 Z " fill="#CC0001" transform="translate(0,0)"/>
<path d="M0 0 C84.15 0 168.3 0 255 0 C255 84.81 255 169.62 255 257 C170.85 257 86.7 257 0 257 C0 172.19 0 87.38 0 0 Z M43 45 C42.31164063 45.62390625 41.62328125 46.2478125 40.9140625 46.890625 C24.42821215 62.39905339 15.00620989 84.34246562 10 106 C9.70959839 107.21707642 9.70959839 107.21707642 9.41333008 108.45874023 C2.92311196 137.70649191 11.23208319 170.16215413 26.79638672 195.14648438 C29.55530097 199.39510039 32.63322585 203.22454228 36 207 C37.04994141 208.28003906 37.04994141 208.28003906 38.12109375 209.5859375 C57.78304526 232.72934754 86.95688872 246.488815 117 249 C137.76732301 250.35775021 156.93065937 247.32070699 176 239 C177.16789063 238.49855469 178.33578125 237.99710938 179.5390625 237.48046875 C207.67198267 224.43009607 227.97659722 199.95472278 239.68359375 171.66015625 C244.39383828 158.56371968 246.2018603 145.49625319 246.24023438 131.62402344 C246.24984927 129.532784 246.28089292 127.44256843 246.3125 125.3515625 C246.41428297 112.6054559 244.44726389 100.53281036 239.875 88.5625 C239.57352051 87.76739014 239.27204102 86.97228027 238.96142578 86.15307617 C231.02166361 65.92059435 217.55968849 47.24781556 199.8125 34.5 C198.82987183 33.79182129 198.82987183 33.79182129 197.82739258 33.06933594 C149.36362521 -1.42889623 85.7121181 4.71633009 43 45 Z " fill="#F5F4F7" transform="translate(0,0)"/>
<path d="M0 0 C0.72783691 -0.00686325 1.45567383 -0.0137265 2.20556641 -0.02079773 C4.59183728 -0.03897489 6.97744483 -0.03524096 9.36376953 -0.02954102 C11.03614513 -0.0341077 12.70851886 -0.03941472 14.38088989 -0.04542542 C17.87932985 -0.05433907 21.37754132 -0.05195399 24.87597656 -0.04199219 C29.34014192 -0.03051383 33.8035149 -0.05070509 38.26757622 -0.07990932 C41.71990905 -0.09833391 45.17205427 -0.09796631 48.62442398 -0.0922718 C50.26932002 -0.09211931 51.91422936 -0.09810419 53.55907822 -0.11056328 C64.92291421 -0.18451258 74.1780179 0.61274546 82.8807373 8.66052246 C88.05162203 14.70782833 88.97464802 21.69277913 88.90283203 29.37280273 C88.90857239 30.75332825 88.90857239 30.75332825 88.91442871 32.16174316 C88.91713312 34.09457503 88.90987583 36.02744442 88.89306641 37.96020508 C88.87163529 40.89675505 88.89291819 43.83085892 88.91845703 46.76733398 C88.91581349 48.65666223 88.91068798 50.54598897 88.90283203 52.43530273 C88.91092896 53.30119019 88.91902588 54.16707764 88.92736816 55.0592041 C88.81287178 62.60682026 86.66209346 69.87301973 81.12158203 75.27905273 C80.60080078 75.81272461 80.08001953 76.34639648 79.54345703 76.89624023 C73.9648015 80.76919174 68.12620746 81.85249093 61.46191406 81.82397461 C60.34308838 81.83667892 60.34308838 81.83667892 59.20166016 81.84963989 C56.76072662 81.87284501 54.32042955 81.87403603 51.87939453 81.87280273 C50.16600295 81.8799144 48.45261373 81.88761486 46.73922729 81.89587402 C43.15681327 81.90928108 39.5746195 81.91090472 35.9921875 81.9050293 C31.42377167 81.89913745 26.85642012 81.92972053 22.28820992 81.97014618 C18.75176397 81.99612066 15.21557099 81.9988918 11.67904282 81.99525452 C9.99588218 81.99693673 8.31270871 82.00649185 6.62964249 82.0243988 C-11.0239585 82.19157154 -11.0239585 82.19157154 -18.62841797 76.40405273 C-25.62694328 69.15771915 -28.09468913 61.09820849 -28.09716797 51.22436523 C-28.10478149 50.37155975 -28.11239502 49.51875427 -28.12023926 48.6401062 C-28.13098136 46.8467703 -28.13391751 45.05337214 -28.12939453 43.26000977 C-28.12842282 40.54262078 -28.17009694 37.82806607 -28.21435547 35.11108398 C-28.28646877 24.77114209 -28.08798468 16.21589276 -20.63818359 8.28540039 C-14.49785559 2.35982479 -8.48404802 0.03506021 0 0 Z " fill="#FEFDFC" transform="translate(96.62841796875,88.595947265625)"/>
<path d="M0 0 C0.33 0 0.66 0 1 0 C1.45164525 7.11341265 0.32797915 11.71546794 -3 18 C-2.34 18 -1.68 18 -1 18 C-1.33 18.99 -1.66 19.98 -2 21 C-2.66 21 -3.32 21 -4 21 C-4 21.99 -4 22.98 -4 24 C-3.34 24 -2.68 24 -2 24 C-1.67 24.99 -1.34 25.98 -1 27 C-3.63904371 28.41377341 -6.07120629 29.37240135 -9 30 C-9 31.65 -9 33.3 -9 35 C-10.093125 35.350625 -11.18625 35.70125 -12.3125 36.0625 C-15.65369987 37.47814894 -15.94040973 37.88081947 -17.6875 41.375 C-18.120625 42.57125 -18.55375 43.7675 -19 45 C-22.3559322 49.6779661 -22.3559322 49.6779661 -25 51 C-25.309375 51.78375 -25.61875 52.5675 -25.9375 53.375 C-26.98373709 55.95982105 -27.92113535 57.2046169 -30 59 C-31.485 58.505 -31.485 58.505 -33 58 C-33.226875 58.886875 -33.45375 59.77375 -33.6875 60.6875 C-35.17188513 64.43380532 -37.02403485 66.33729434 -40 69 C-40.99 68.01 -41.98 67.02 -43 66 C-43.33 66.66 -43.66 67.32 -44 68 C-45.64363134 68.72159424 -47.31050386 69.39351421 -49 70 C-48.67 70.99 -48.34 71.98 -48 73 C-48.99 73.99 -49.98 74.98 -51 76 C-51.66 75.34 -52.32 74.68 -53 74 C-52.505 72.515 -52.505 72.515 -52 71 C-53.051875 71.78375 -54.10375 72.5675 -55.1875 73.375 C-58.02909522 75.42117912 -60.72338505 76.74717664 -64 78 C-64.33 78.66 -64.66 79.32 -65 80 C-66.485 80.495 -66.485 80.495 -68 81 C-68.66 81.99 -69.32 82.98 -70 84 C-73.60591321 84.47446226 -75.89782379 83.83832664 -79 82 C-79.66 82.66 -80.32 83.32 -81 84 C-83.67790464 84.40849393 -86.30938954 84.72948979 -89 85 C-90.3343331 85.18024762 -91.66779473 85.36714607 -93 85.5625 C-94.485 85.7790625 -94.485 85.7790625 -96 86 C-95.79375 86.78375 -95.5875 87.5675 -95.375 88.375 C-95.25125 89.24125 -95.1275 90.1075 -95 91 C-97 93 -97 93 -99.625 93.125 C-100.40875 93.08375 -101.1925 93.0425 -102 93 C-101.34 91.02 -100.68 89.04 -100 87 C-102.475 87.99 -102.475 87.99 -105 89 C-105 88.34 -105 87.68 -105 87 C-105.65226562 87.08378906 -106.30453125 87.16757813 -106.9765625 87.25390625 C-111.88249144 87.82554104 -116.13127185 88.15311982 -121 87 C-121.33 87.66 -121.66 88.32 -122 89 C-122 88.34 -122 87.68 -122 87 C-122.99 87 -123.98 87 -125 87 C-125 87.66 -125 88.32 -125 89 C-126.32 88.34 -127.64 87.68 -129 87 C-129 86.67 -129 86.34 -129 86 C-129.54785156 85.98582031 -130.09570312 85.97164063 -130.66015625 85.95703125 C-136.43410739 85.60965533 -141.60048507 84.37098887 -147.0625 82.5625 C-147.72967041 82.34505127 -148.39684082 82.12760254 -149.08422852 81.90356445 C-153.87171496 80.25657009 -153.87171496 80.25657009 -155 78 C-154.01902344 78.26554687 -153.03804688 78.53109375 -152.02734375 78.8046875 C-122.44723507 86.63547819 -93.26680785 86.33392544 -65 74 C-63.83210938 73.49855469 -62.66421875 72.99710937 -61.4609375 72.48046875 C-32.38174636 58.99113742 -12.25223551 33.5127838 -1 4 C-0.63527632 2.67490924 -0.28528234 1.34443403 0 0 Z " fill="#C2A2B6" transform="translate(241,164)"/>
<path d="M0 0 C6.24755181 0.29247317 10.60379109 2.63529403 15.9375 5.75 C17.07735352 6.39582031 17.07735352 6.39582031 18.24023438 7.0546875 C20.50715613 8.34785892 22.75560228 9.66817037 25 11 C25.7748877 11.45310547 26.54977539 11.90621094 27.34814453 12.37304688 C28.0801709 12.81197266 28.81219727 13.25089844 29.56640625 13.703125 C30.22713135 14.09661133 30.88785645 14.49009766 31.56860352 14.89550781 C32.04096436 15.25999023 32.5133252 15.62447266 33 16 C33 16.66 33 17.32 33 18 C31.98421875 18.50789063 30.9684375 19.01578125 29.921875 19.5390625 C29.26106934 19.86970703 28.60026367 20.20035156 27.91943359 20.54101562 C26.46480881 21.26783692 25.00939465 21.99308037 23.55322266 22.71679688 C20.17356932 24.39880889 16.8125595 26.09933099 13.4765625 27.8671875 C12.45304687 28.40601563 11.42953125 28.94484375 10.375 29.5 C9.02535156 30.22703125 9.02535156 30.22703125 7.6484375 30.96875 C4.59863852 32.15628234 2.24572605 32.07380462 -1 32 C-1.02465504 27.60343827 -1.04283842 23.2069128 -1.05493164 18.81030273 C-1.05997121 17.31355082 -1.06680287 15.81680384 -1.07543945 14.32006836 C-1.08752159 12.17300193 -1.09323191 10.02600038 -1.09765625 7.87890625 C-1.10289307 6.5854126 -1.10812988 5.29191895 -1.11352539 3.95922852 C-1 1 -1 1 0 0 Z " fill="#C70405" transform="translate(114,114)"/>
<path d="M0 0 C5.65814782 5.65814782 5.35729825 19.41845986 5.41339111 26.94360352 C5.41123386 28.28891851 5.40380438 29.63423533 5.39111328 30.97949219 C5.37499972 33.00003481 5.39109508 35.01857874 5.41015625 37.0390625 C5.4600546 68.89156795 -8.31751765 96.448882 -30 119 C-30.55816406 119.63292969 -31.11632812 120.26585937 -31.69140625 120.91796875 C-46.37522198 137.05866437 -68.40030491 145.74010932 -89 151 C-90.03253906 151.268125 -91.06507813 151.53625 -92.12890625 151.8125 C-113.82758514 156.3606947 -137.51679089 152.74626593 -158 145 C-154.12761816 143.85772837 -152.74404007 144.45354867 -149 146 C-142.7570909 147.53657746 -142.7570909 147.53657746 -136.375 147.9296875 C-134 148 -134 148 -131 150 C-128.53919166 150.1954193 -126.19462635 150.28017842 -123.734375 150.265625 C-122.66694061 150.26849518 -122.66694061 150.26849518 -121.57794189 150.27142334 C-120.07165168 150.27278366 -118.56534968 150.26909784 -117.05908203 150.26074219 C-114.77218683 150.25010322 -112.48608851 150.26060932 -110.19921875 150.2734375 C-108.73176912 150.27211464 -107.26431998 150.26954964 -105.796875 150.265625 C-104.78243317 150.27169769 -104.78243317 150.27169769 -103.74749756 150.27789307 C-99.18968238 150.23371916 -95.33087394 149.3706553 -91 148 C-89.0666184 147.70118144 -87.12885288 147.4291732 -85.1875 147.1875 C-79.09875521 146.23780899 -74.31244141 144.0371926 -69 141 C-68.34 140.67 -67.68 140.34 -67 140 C-66.01 140.33 -65.02 140.66 -64 141 C-64 140.34 -64 139.68 -64 139 C-63.195625 138.87625 -62.39125 138.7525 -61.5625 138.625 C-60.716875 138.41875 -59.87125 138.2125 -59 138 C-58.67 137.34 -58.34 136.68 -58 136 C-55.96448786 133.68691802 -55.02393066 133.00797689 -52 132 C-51.34 132.33 -50.68 132.66 -50 133 C-50 132.34 -50 131.68 -50 131 C-50.66 130.67 -51.32 130.34 -52 130 C-51.01 130 -50.02 130 -49 130 C-43.65628037 128.18695227 -41.76899281 126.78280577 -39 122 C-36.3125 121.1875 -36.3125 121.1875 -34 121 C-33.505 119.515 -33.505 119.515 -33 118 C-32.34 118 -31.68 118 -31 118 C-30.79375 117.278125 -30.5875 116.55625 -30.375 115.8125 C-28.60768726 112.19754213 -26.09827794 110.51735083 -23 108 C-21.82425289 105.90010348 -21.82425289 105.90010348 -21 104 C-20.01 103.34 -19.02 102.68 -18 102 C-16.79549696 99.44816596 -16.79549696 99.44816596 -16 97 C-15.34 97 -14.68 97 -14 97 C-13.22678118 94.01758453 -12.58803797 91.02419525 -12 88 C-11.01 87.67 -10.02 87.34 -9 87 C-7.89172193 84.256131 -7.89172193 84.256131 -7 81 C-6.17700201 78.85018153 -5.34338953 76.70440085 -4.5 74.5625 C-2.76188838 70.06897026 -1.16807847 65.67231387 0 61 C0.20625 60.195625 0.4125 59.39125 0.625 58.5625 C1.14419524 55.01466583 1.06075941 51.58480512 1 48 C1.66 47.67 2.32 47.34 3 47 C3.33 46.01 3.66 45.02 4 44 C3.01 43.67 2.02 43.34 1 43 C1 42.34 1 41.68 1 41 C1.66 40.67 2.32 40.34 3 40 C3 32.41 3 24.82 3 17 C2.34 17 1.68 17 1 17 C1.020625 15.783125 1.04125 14.56625 1.0625 13.3125 C1.06822426 10.06684226 0.70549264 7.17471686 0 4 C0 2.68 0 1.36 0 0 Z " fill="#8F0F14" transform="translate(241,96)"/>
<path d="M0 0 C-0.33 0.99 -0.66 1.98 -1 3 C-1.99 3.33 -2.98 3.66 -4 4 C-4.66 4.99 -5.32 5.98 -6 7 C-9.60591321 7.47446226 -11.89782379 6.83832664 -15 5 C-15.66 5.66 -16.32 6.32 -17 7 C-19.67790464 7.40849393 -22.30938954 7.72948979 -25 8 C-26.3343331 8.18024762 -27.66779473 8.36714607 -29 8.5625 C-29.99 8.706875 -30.98 8.85125 -32 9 C-31.79375 9.78375 -31.5875 10.5675 -31.375 11.375 C-31.25125 12.24125 -31.1275 13.1075 -31 14 C-33 16 -33 16 -35.625 16.125 C-36.40875 16.08375 -37.1925 16.0425 -38 16 C-37.34 14.02 -36.68 12.04 -36 10 C-37.65 10.66 -39.3 11.32 -41 12 C-41 11.34 -41 10.68 -41 10 C-41.65226562 10.08378906 -42.30453125 10.16757813 -42.9765625 10.25390625 C-47.88249144 10.82554104 -52.13127185 11.15311982 -57 10 C-57.33 10.66 -57.66 11.32 -58 12 C-58 11.34 -58 10.68 -58 10 C-58.99 10 -59.98 10 -61 10 C-61 10.66 -61 11.32 -61 12 C-62.32 11.34 -63.64 10.68 -65 10 C-65 9.67 -65 9.34 -65 9 C-65.54785156 8.98582031 -66.09570312 8.97164062 -66.66015625 8.95703125 C-72.43410739 8.60965533 -77.60048507 7.37098887 -83.0625 5.5625 C-83.72967041 5.34505127 -84.39684082 5.12760254 -85.08422852 4.90356445 C-89.87171496 3.25657009 -89.87171496 3.25657009 -91 1 C-90.01902344 1.26554688 -89.03804688 1.53109375 -88.02734375 1.8046875 C-62.15991569 8.65261416 -35.54050959 9.92246461 -10.09350586 0.59765625 C-6.67530921 -0.37817412 -3.53173507 -0.19264009 0 0 Z " fill="#D3AABA" transform="translate(177,241)"/>
<path d="M0 0 C7.875 0.875 7.875 0.875 9 2 C10.57263797 2.39898408 12.15895601 2.74476192 13.75 3.0625 C15.04164062 3.32740234 15.04164062 3.32740234 16.359375 3.59765625 C18.99017753 4.07750506 18.99017753 4.07750506 21.640625 3.93359375 C24 4 24 4 27 6 C29.46080834 6.1954193 31.80537365 6.28017842 34.265625 6.265625 C35.33305939 6.26849518 35.33305939 6.26849518 36.42205811 6.27142334 C37.92834832 6.27278366 39.43465032 6.26909784 40.94091797 6.26074219 C43.22781317 6.25010322 45.51391149 6.26060932 47.80078125 6.2734375 C49.26823088 6.27211464 50.73568002 6.26954964 52.203125 6.265625 C53.21756683 6.27169769 53.21756683 6.27169769 54.25250244 6.27789307 C58.8108829 6.23371369 62.66454617 5.35219738 67 4 C69.87109375 3.8046875 69.87109375 3.8046875 72.4375 3.875 C73.30246094 3.89304688 74.16742188 3.91109375 75.05859375 3.9296875 C75.69925781 3.95289063 76.33992188 3.97609375 77 4 C60.18015363 13.59941604 33.00146268 10.337894 15 6 C9.90915511 4.58143733 4.94322019 2.86940913 0 1 C0 0.67 0 0.34 0 0 Z " fill="#96171D" transform="translate(83,240)"/>
<path d="M0 0 C1.66951727 -0.00269962 3.33903299 -0.00658595 5.00854492 -0.01159668 C8.4951078 -0.01746966 11.98125873 -0.00900041 15.46777344 0.00976562 C19.91622212 0.03255418 24.36370519 0.01941919 28.81211853 -0.00452423 C32.25589146 -0.01904216 35.69943893 -0.01434894 39.14321899 -0.00401306 C40.78252276 -0.00136229 42.42184761 -0.00455687 44.06112671 -0.01393127 C60.95905844 -0.08937913 60.95905844 -0.08937913 67.8125 4.53125 C68.8025 5.52125 68.8025 5.52125 69.8125 6.53125 C67.5025 6.20125 65.1925 5.87125 62.8125 5.53125 C62.8125 4.87125 62.8125 4.21125 62.8125 3.53125 C46.31741282 2.34336802 29.82969427 2.41073077 13.3034668 2.46258545 C9.62874946 2.47298404 5.95402481 2.47741777 2.27929688 2.48242188 C-4.8763194 2.49301087 -12.0319068 2.50998072 -19.1875 2.53125 C-19.1875 3.19125 -19.1875 3.85125 -19.1875 4.53125 C-19.8475 4.53125 -20.5075 4.53125 -21.1875 4.53125 C-21.5175 5.19125 -21.8475 5.85125 -22.1875 6.53125 C-23.5075 5.87125 -24.8275 5.21125 -26.1875 4.53125 C-17.69503178 -0.34441448 -9.49157545 -0.05427868 0 0 Z " fill="#FEE0DE" transform="translate(106.1875,88.46875)"/>
<path d="M0 0 C0.33 0 0.66 0 1 0 C1.45164525 7.11341265 0.32797915 11.71546794 -3 18 C-2.34 18 -1.68 18 -1 18 C-1.33 18.99 -1.66 19.98 -2 21 C-2.66 21 -3.32 21 -4 21 C-4 21.99 -4 22.98 -4 24 C-3.34 24 -2.68 24 -2 24 C-1.67 24.99 -1.34 25.98 -1 27 C-3.63904371 28.41377341 -6.07120629 29.37240135 -9 30 C-9 31.65 -9 33.3 -9 35 C-11.97 35.495 -11.97 35.495 -15 36 C-13.73694727 32.50231551 -12.23215439 29.9464438 -10 27 C-7.5579042 22.72633234 -6.17243643 18.44403315 -4.828125 13.74609375 C-3.42442993 9.09138794 -1.70462801 4.55144332 0 0 Z " fill="#D3D2E2" transform="translate(241,164)"/>
<path d="M0 0 C0.98097656 0.26554688 1.96195312 0.53109375 2.97265625 0.8046875 C20.26428768 5.38073861 37.1776341 6.45529855 55 7 C53.68 8.32 52.36 9.64 51 11 C50.505 10.01 50.505 10.01 50 9 C49.34773438 9.08378906 48.69546875 9.16757813 48.0234375 9.25390625 C43.11750856 9.82554104 38.86872815 10.15311982 34 9 C33.67 9.66 33.34 10.32 33 11 C33 10.34 33 9.68 33 9 C32.01 9 31.02 9 30 9 C30 9.66 30 10.32 30 11 C28.68 10.34 27.36 9.68 26 9 C26 8.67 26 8.34 26 8 C25.45214844 7.98582031 24.90429688 7.97164062 24.33984375 7.95703125 C18.56589261 7.60965533 13.39951493 6.37098887 7.9375 4.5625 C7.27032959 4.34505127 6.60315918 4.12760254 5.91577148 3.90356445 C1.12828504 2.25657009 1.12828504 2.25657009 0 0 Z " fill="#ECCED7" transform="translate(86,242)"/>
<path d="M0 0 C3 1 3 1 4.66479492 3.92919922 C6.48733671 8.60821834 6.41348291 13.16902376 6.36328125 18.1328125 C6.36402901 19.56510696 6.36402901 19.56510696 6.36479187 21.02633667 C6.36246135 23.03499443 6.35279356 25.04365567 6.33618164 27.05224609 C6.31252053 30.12233611 6.31563726 33.19156024 6.32226562 36.26171875 C6.31669034 38.21875516 6.3095814 40.17578793 6.30078125 42.1328125 C6.30169266 43.04749298 6.30260406 43.96217346 6.30354309 44.90457153 C6.25393016 49.37004936 6.11245453 52.94539084 4 57 C3.34 57 2.68 57 2 57 C2.16081055 56.37254883 2.32162109 55.74509766 2.48730469 55.09863281 C3.187921 50.86424125 3.18258116 46.70735982 3.203125 42.421875 C3.20882507 41.49586487 3.21452515 40.56985474 3.22039795 39.61578369 C3.22982562 37.65906916 3.23637304 35.7023389 3.24023438 33.74560547 C3.24992135 30.77412732 3.28095842 27.80334675 3.3125 24.83203125 C3.31903284 22.92448324 3.3242822 21.01693032 3.328125 19.109375 C3.3404718 18.23093933 3.3528186 17.35250366 3.36553955 16.44744873 C3.34426984 10.46523424 2.21845015 5.5514809 0 0 Z " fill="#AC2427" transform="translate(181,99)"/>
<path d="M0 0 C0.33 0.99 0.66 1.98 1 3 C0.02546131 4.75416965 -0.95570244 6.5060719 -2.0078125 8.21484375 C-3.2346088 10.42211111 -3.69747498 12.50416861 -4 15 C-4.66 15 -5.32 15 -6 15 C-8.8063769 19.67644045 -8.8063769 19.67644045 -10.875 24.6875 C-12.4643892 27.95457781 -14.99834753 29.01890937 -18 31 C-18.66 32.051875 -19.32 33.10375 -20 34.1875 C-22 37 -22 37 -25.25 37.875 C-26.61125 37.936875 -26.61125 37.936875 -28 38 C-25.30585663 34.80956706 -22.62997767 31.65162639 -19.7265625 28.6484375 C-11.66468963 20.23051978 -4.97656188 10.575194 0 0 Z " fill="#C4A6B5" transform="translate(234,182)"/>
<path d="M0 0 C0.99 0.99 0.99 0.99 2 2 C-6.62946479 7.02483043 -15.1698928 6.54921607 -24.8359375 6.4609375 C-26.56466535 6.45854981 -28.29339582 6.45764844 -30.02212524 6.4581604 C-33.62803613 6.45504623 -37.2335455 6.43857971 -40.83935547 6.41162109 C-45.46304682 6.37748961 -50.08630137 6.36999763 -54.71010399 6.37151146 C-58.27198459 6.37096828 -61.83376959 6.36001201 -65.39561844 6.34550858 C-67.10127668 6.33914485 -68.80694573 6.33520267 -70.5126152 6.33372116 C-72.88929581 6.32939225 -75.26550939 6.31190506 -77.64208984 6.29052734 C-78.6987384 6.2918869 -78.6987384 6.2918869 -79.7767334 6.29327393 C-83.40877819 6.24542067 -84.88805968 6.07462688 -88 4 C-86.5232782 4.01332367 -86.5232782 4.01332367 -85.01672363 4.0269165 C-75.71867765 4.10816047 -66.42070411 4.16804112 -57.12238312 4.20724869 C-52.34250543 4.22808372 -47.56291533 4.2563264 -42.78320312 4.30175781 C-38.166633 4.34536171 -33.55033872 4.36916781 -28.93357849 4.37950897 C-27.17617961 4.38687431 -25.41879507 4.40125706 -23.66151428 4.42292023 C-21.19133406 4.45214838 -18.72227967 4.45594804 -16.25195312 4.45410156 C-15.53265625 4.46848267 -14.81335938 4.48286377 -14.07226562 4.49768066 C-8.58761193 4.45359804 -4.69740414 2.76406482 0 0 Z " fill="#FEEFF0" transform="translate(173,164)"/>
<path d="M0 0 C5.87393966 5.87393966 5.32639276 19.39200215 5.32873535 27.36688232 C5.31791855 28.75423921 5.30209609 30.14156616 5.28125 31.52880859 C5.24949754 33.65870397 5.24019895 35.78785764 5.234375 37.91796875 C5.15998164 49.08460685 5.15998164 49.08460685 4 54 C3.34 54 2.68 54 2 54 C1.67 52.02 1.34 50.04 1 48 C1.99 47.505 1.99 47.505 3 47 C3.33 46.01 3.66 45.02 4 44 C3.01 43.67 2.02 43.34 1 43 C1 42.34 1 41.68 1 41 C1.99 40.505 1.99 40.505 3 40 C3 32.41 3 24.82 3 17 C2.34 17 1.68 17 1 17 C1.020625 15.783125 1.04125 14.56625 1.0625 13.3125 C1.06822426 10.06684226 0.70549264 7.17471686 0 4 C0 2.68 0 1.36 0 0 Z " fill="#98090A" transform="translate(241,96)"/>
<path d="M0 0 C0.33 0.66 0.66 1.32 1 2 C0.34 1.67 -0.32 1.34 -1 1 C-0.67 0.67 -0.34 0.34 0 0 Z M-3 2 C-2.34 2.33 -1.68 2.66 -1 3 C-1 3.66 -1 4.32 -1 5 C-1.66 5 -2.32 5 -3 5 C-3.268125 5.763125 -3.53625 6.52625 -3.8125 7.3125 C-4.94424112 9.87380884 -5.91223401 11.19692938 -8 13 C-8.99 12.67 -9.98 12.34 -11 12 C-11.226875 12.886875 -11.45375 13.77375 -11.6875 14.6875 C-13.17188513 18.43380532 -15.02403485 20.33729434 -18 23 C-18.66 22.01 -19.32 21.02 -20 20 C-18.94029153 15.52567534 -16.50956496 12.87146224 -13 10 C-11.00326516 9.64763503 -9.00349261 9.31165441 -7 9 C-5.66666667 7.16666667 -5.66666667 7.16666667 -5 5 C-4.34 4.01 -3.68 3.02 -3 2 Z " fill="#B8B8D0" transform="translate(219,210)"/>
<path d="M0 0 C0.33 0 0.66 0 1 0 C1 10.23 1 20.46 1 31 C3.64 30.34 6.28 29.68 9 29 C10.32 28.67 11.64 28.34 13 28 C12.4375 29.875 12.4375 29.875 11 32 C7.625 33.375 7.625 33.375 4 34 C2.68 33.34 1.36 32.68 0 32 C0 21.44 0 10.88 0 0 Z " fill="#FFEBE9" transform="translate(112,115)"/>
<path d="M0 0 C1.04184255 3.38598829 1.23042499 6.46681687 1 10 C0.34 10.66 -0.32 11.32 -1 12 C-3.60902606 22.35084196 -3.57428207 33.39066111 -4 44 C-4.33 44 -4.66 44 -5 44 C-5.53367603 28.6506564 -4.88642435 14.65927306 0 0 Z " fill="#D62828" transform="translate(13,95)"/>
<path d="M0 0 C2.5 2.1875 2.5 2.1875 5 5 C4.99097656 5.78375 4.98195313 6.5675 4.97265625 7.375 C5.00728768 10.69961741 6.0402188 12.12059279 7.9375 14.8125 C8.48277344 15.60269531 9.02804688 16.39289063 9.58984375 17.20703125 C10.05519531 17.79871094 10.52054688 18.39039063 11 19 C11.33 19 11.66 19 12 19 C12 21.31 12 23.62 12 26 C8.9951781 22.35263756 6.97935323 18.3259982 4.875 14.125 C4.33552734 13.08279297 4.33552734 13.08279297 3.78515625 12.01953125 C1.76744378 8.00677723 0.46869796 4.53074692 0 0 Z " fill="#C61717" transform="translate(15,168)"/>
<path d="M0 0 C0.33 0.99 0.66 1.98 1 3 C0.02546131 4.75416965 -0.95570244 6.5060719 -2.0078125 8.21484375 C-3.2346088 10.42211111 -3.69747498 12.50416861 -4 15 C-4.66 15 -5.32 15 -6 15 C-8.83300048 19.80553021 -8.83300048 19.80553021 -11.125 24.875 C-12 27 -12 27 -14 28 C-13.86625159 21.84757313 -11.54578717 18.5777617 -7.921875 13.7109375 C-4.85104941 9.3793258 -2.44252283 4.70610625 0 0 Z " fill="#D3B3C0" transform="translate(234,182)"/>
<path d="M0 0 C1 2 1 2 0.3125 4.5625 C-1 7 -1 7 -3.125 7.8125 C-3.74375 7.874375 -4.3625 7.93625 -5 8 C-5 8.66 -5 9.32 -5 10 C-8.87521187 14.26273305 -12.52686754 14.57106886 -17.98828125 14.921875 C-18.98408203 14.96054688 -18.98408203 14.96054688 -20 15 C-18.52144132 12.04288263 -16.44626376 11.96480327 -13.375 10.875 C-7.23591714 8.43548378 -3.77131016 5.35154223 0 0 Z " fill="#AA171A" transform="translate(182,157)"/>
<path d="M0 0 C0.33 0.99 0.66 1.98 1 3 C-0.21484375 4.82421875 -0.21484375 4.82421875 -1.9375 6.6875 C-2.50339844 7.31011719 -3.06929687 7.93273438 -3.65234375 8.57421875 C-4.09707031 9.04472656 -4.54179688 9.51523437 -5 10 C-5.99 9.67 -6.98 9.34 -8 9 C-9.67739862 9.98189187 -11.34467377 10.98133771 -13 12 C-13.66 11.67 -14.32 11.34 -15 11 C-13.44066679 9.72528295 -11.87738294 8.45539786 -10.3125 7.1875 C-9.44238281 6.47980469 -8.57226562 5.77210937 -7.67578125 5.04296875 C-5.20000368 3.15270354 -2.70203762 1.54332599 0 0 Z " fill="#E90C0C" transform="translate(63,29)"/>
<path d="M0 0 C-0.33 0.99 -0.66 1.98 -1 3 C-1.99 3.33 -2.98 3.66 -4 4 C-4.99 5.485 -4.99 5.485 -6 7 C-8.4375 7.375 -8.4375 7.375 -11 7 C-12.66015625 5.4765625 -12.66015625 5.4765625 -14 4 C-9.22642128 1.28608722 -5.65611463 -0.56561146 0 0 Z " fill="#BCBBCD" transform="translate(177,241)"/>
<path d="M0 0 C1.35609325 0.02010709 2.71221547 0.03835039 4.06835938 0.0546875 C7.35882486 0.10152687 10.64777835 0.16711138 13.9375 0.25 C13.9375 0.58 13.9375 0.91 13.9375 1.25 C-1.4075 1.745 -1.4075 1.745 -17.0625 2.25 C-17.0625 2.91 -17.0625 3.57 -17.0625 4.25 C-17.7225 4.25 -18.3825 4.25 -19.0625 4.25 C-19.3925 4.91 -19.7225 5.57 -20.0625 6.25 C-21.3825 5.59 -22.7025 4.93 -24.0625 4.25 C-16.27586428 -0.4365112 -8.87926325 -0.22756121 0 0 Z " fill="#FFE3E2" transform="translate(104.0625,88.75)"/>
<path d="M0 0 C0.33 0 0.66 0 1 0 C1.19275481 4.34117362 1.37139593 8.68263202 1.53710938 13.02490234 C1.59542647 14.50129674 1.65756463 15.97754544 1.72363281 17.45361328 C1.81805803 19.57818061 1.89862513 21.70289674 1.9765625 23.828125 C2.02893066 25.1059082 2.08129883 26.38369141 2.13525391 27.70019531 C2.00728342 30.82230558 1.66891271 32.41403969 0 35 C-0.66 35 -1.32 35 -2 35 C-1.84660156 33.79472656 -1.69320312 32.58945313 -1.53515625 31.34765625 C-0.83639552 25.05880969 -0.65087073 18.75817071 -0.4375 12.4375 C-0.39431641 11.23802734 -0.35113281 10.03855469 -0.30664062 8.80273438 C-0.20143198 5.86858207 -0.09929117 2.9343575 0 0 Z " fill="#E4B0B5" transform="translate(246,119)"/>
<path d="M0 0 C1.65 0 3.3 0 5 0 C5.33 0.66 5.66 1.32 6 2 C6.66 2.33 7.32 2.66 8 3 C4.27535115 6.37816989 2.07629701 8.33206618 -3 9 C-5.23408113 9.99083967 -5.23408113 9.99083967 -7 11 C-7.66 10.34 -8.32 9.68 -9 9 C-7.37750059 8.16180842 -5.75191503 7.3295884 -4.125 6.5 C-2.76761719 5.80390625 -2.76761719 5.80390625 -1.3828125 5.09375 C1 4 1 4 3 4 C2.01 2.68 1.02 1.36 0 0 Z " fill="#FAE3E0" transform="translate(144,128)"/>
<path d="M0 0 C7.875 0.875 7.875 0.875 9 2 C10.57263797 2.39898408 12.15895601 2.74476192 13.75 3.0625 C15.04164062 3.32740234 15.04164062 3.32740234 16.359375 3.59765625 C18.95248391 3.99276012 21.38176202 4.07063592 24 4 C24.33 4.66 24.66 5.32 25 6 C19.45488997 7.45691585 15.54221374 6.36230864 10.25 4.6875 C9.48300781 4.46126953 8.71601562 4.23503906 7.92578125 4.00195312 C2.28062777 2.28062777 2.28062777 2.28062777 0 0 Z " fill="#A51F21" transform="translate(83,240)"/>
<path d="M0 0 C0.33 0 0.66 0 1 0 C1.60670868 7.52318764 0.15741968 12.65048631 -4 19 C-4.66 19.33 -5.32 19.66 -6 20 C-5.36757331 15.27497299 -4.08186437 11.09429803 -2.4375 6.625 C-2.20353516 5.98433594 -1.96957031 5.34367188 -1.72851562 4.68359375 C-1.15700381 3.1206839 -0.57915771 1.56009273 0 0 Z " fill="#E5C5CD" transform="translate(241,164)"/>
<path d="M0 0 C-1 2 -1 2 -4.4921875 3.2890625 C-5.95067349 3.74233968 -7.41176334 4.18730138 -8.875 4.625 C-9.97521484 4.96917969 -9.97521484 4.96917969 -11.09765625 5.3203125 C-14.157751 6.25673494 -16.78239228 7 -20 7 C-20 6.34 -20 5.68 -20 5 C-18.28866984 4.26177915 -16.57650463 3.52540996 -14.859375 2.80078125 C-13.40988644 2.17652672 -11.98128454 1.50370273 -10.5625 0.8125 C-6.95208687 -0.33226514 -3.77979693 -0.12812871 0 0 Z " fill="#FEE8E5" transform="translate(104,11)"/>
<path d="M0 0 C0 4.56351186 -1.37804004 6.36287028 -4.5625 9.625 C-5.366875 10.40875 -6.17125 11.1925 -7 12 C-7.33 12.66 -7.66 13.32 -8 14 C-9.32 14 -10.64 14 -12 14 C-10.41332422 10.09714233 -7.86649519 7.66479018 -4.875 4.75 C-3.96492188 3.85796875 -3.05484375 2.9659375 -2.1171875 2.046875 C-1.41851562 1.37140625 -0.71984375 0.6959375 0 0 Z " fill="#E81614" transform="translate(47,41)"/>
<path d="M0 0 C2.68773429 2.68773429 2.94285676 5.51901211 3.625 9.125 C3.75688721 9.79990479 3.88877441 10.47480957 4.0246582 11.17016602 C4.9019039 15.88302252 5.29219837 20.22742664 5 25 C3.23537317 21.91190305 3 20.76687864 3 17 C2.34 17 1.68 17 1 17 C1.020625 15.783125 1.04125 14.56625 1.0625 13.3125 C1.06822426 10.06684226 0.70549264 7.17471686 0 4 C0 2.68 0 1.36 0 0 Z " fill="#A21C1C" transform="translate(241,96)"/>
<path d="M0 0 C0.84566329 2.4023301 1.12831471 3.62427185 0.29296875 6.0703125 C-0.07183594 6.74835938 -0.43664063 7.42640625 -0.8125 8.125 C-1.16957031 8.80820313 -1.52664062 9.49140625 -1.89453125 10.1953125 C-3 12 -3 12 -5 14 C-5.70710678 15.64991582 -6.37943989 17.31562256 -7 19 C-7.66 19 -8.32 19 -9 19 C-7.6077541 14.37324343 -5.70479016 10.35313769 -3.375 6.125 C-2.74335938 4.97257812 -2.11171875 3.82015625 -1.4609375 2.6328125 C-0.97882812 1.76398438 -0.49671875 0.89515625 0 0 Z " fill="#DE1518" transform="translate(25,68)"/>
<path d="M0 0 C0.99 0.33 1.98 0.66 3 1 C3 1.66 3 2.32 3 3 C0.37964982 4.36389525 -2.24556999 5.71632173 -4.875 7.0625 C-5.99455078 7.64741211 -5.99455078 7.64741211 -7.13671875 8.24414062 C-8.20986328 8.79038086 -8.20986328 8.79038086 -9.3046875 9.34765625 C-10.2944458 9.85824585 -10.2944458 9.85824585 -11.30419922 10.37915039 C-11.86381348 10.58403076 -12.42342773 10.78891113 -13 11 C-13.66 10.67 -14.32 10.34 -15 10 C-14.67 9.34 -14.34 8.68 -14 8 C-12.68 8 -11.36 8 -10 8 C-10 7.34 -10 6.68 -10 6 C-3.375 3 -3.375 3 0 3 C0 2.01 0 1.02 0 0 Z " fill="#B20E10" transform="translate(144,129)"/>
<path d="M0 0 C0 3 0 3 -2.25 5.5 C-6.62027157 9.47297415 -9.00414433 11.31865276 -15 12 C-11.99764638 8.82608332 -8.80246358 6.28747399 -5.25 3.75 C-4.26515625 3.04359375 -3.2803125 2.3371875 -2.265625 1.609375 C-1.51796875 1.07828125 -0.7703125 0.5471875 0 0 Z " fill="#C19EB1" transform="translate(205,220)"/>
<path d="M0 0 C0.33 0 0.66 0 1 0 C0.67 8.91 0.34 17.82 0 27 C-0.33 27 -0.66 27 -1 27 C-0.98259766 25.02966797 -0.98259766 25.02966797 -0.96484375 23.01953125 C-0.95546172 21.28385559 -0.94636196 19.54817839 -0.9375 17.8125 C-0.92912109 16.94818359 -0.92074219 16.08386719 -0.91210938 15.19335938 C-0.89603188 10.99713231 -0.92440962 7.09063114 -2 3 C-1.34 3 -0.68 3 0 3 C0 2.01 0 1.02 0 0 Z " fill="#D40606" transform="translate(68,101)"/>
<path d="M0 0 C2.83439137 -0.10901505 5.66450203 -0.18777904 8.5 -0.25 C9.29148438 -0.28351563 10.08296875 -0.31703125 10.8984375 -0.3515625 C16.99672294 -0.45153439 20.7317737 0.93089569 26 4 C22.98968256 4.93423645 22.13349732 5.04449911 19 4 C19 3.34 19 2.68 19 2 C12.73 1.67 6.46 1.34 0 1 C0 0.67 0 0.34 0 0 Z " fill="#FFF3EF" transform="translate(150,90)"/>
<path d="M0 0 C2.34882224 2.34882224 3.03503024 4.27123667 4.1875 7.375 C4.55230469 8.33148438 4.91710937 9.28796875 5.29296875 10.2734375 C6.01370542 13.05285296 5.98549829 14.35108103 5 17 C2.96564469 13.27034861 2 11.33094958 2 7 C1.34 7 0.68 7 0 7 C0 4.69 0 2.38 0 0 Z " fill="#AB2126" transform="translate(235,79)"/>
<path d="M0 0 C0.99 0.33 1.98 0.66 3 1 C3.625 3.375 3.625 3.375 4 6 C2 8 2 8 -0.625 8.125 C-1.40875 8.08375 -2.1925 8.0425 -3 8 C-2.67 6.35 -2.34 4.7 -2 3 C-1.34 3 -0.68 3 0 3 C0 2.01 0 1.02 0 0 Z " fill="#D2D0DF" transform="translate(142,249)"/>
<path d="M0 0 C-0.33 0.66 -0.66 1.32 -1 2 C-1.66 2 -2.32 2 -3 2 C-3 2.66 -3 3.32 -3 4 C-5.97 3.505 -5.97 3.505 -9 3 C-9 2.01 -9 1.02 -9 0 C-5.93109813 -1.53445094 -3.29905734 -0.54984289 0 0 Z " fill="#DE0202" transform="translate(172,20)"/>
<path d="M0 0 C0.33 0.66 0.66 1.32 1 2 C-0.65 2.66 -2.3 3.32 -4 4 C-3.67 4.99 -3.34 5.98 -3 7 C-3.99 7.99 -4.98 8.98 -6 10 C-6.66 9.34 -7.32 8.68 -8 8 C-8 4 -8 4 -7 2 C-4.6859378 1.26924352 -2.35171131 0.59861742 0 0 Z " fill="#B7B3CD" transform="translate(196,230)"/>
<path d="M0 0 C0.99 0.66 1.98 1.32 3 2 C2.505 2.391875 2.01 2.78375 1.5 3.1875 C-0.45593143 5.55091715 -0.24207973 7.01435003 0 10 C-1.98 10.33 -3.96 10.66 -6 11 C-4.74594274 7.52722605 -3.28994172 4.88731782 -1 2 C-0.67 1.34 -0.34 0.68 0 0 Z " fill="#CACAD8" transform="translate(232,189)"/>
<path d="M0 0 C0.99 0.33 1.98 0.66 3 1 C2.45730469 1.33773437 1.91460937 1.67546875 1.35546875 2.0234375 C0.28232422 2.69246094 0.28232422 2.69246094 -0.8125 3.375 C-1.87404297 4.03628906 -1.87404297 4.03628906 -2.95703125 4.7109375 C-4.65432039 5.78188476 -6.33014358 6.88676239 -8 8 C-8 5.69 -8 3.38 -8 1 C-7.05125 1.020625 -6.1025 1.04125 -5.125 1.0625 C-2.09333717 1.22551826 -2.09333717 1.22551826 0 0 Z " fill="#D1171B" transform="translate(83,90)"/>
<path d="M0 0 C1.87978657 2.73177617 2.01655381 3.88384275 1.5390625 7.234375 C1.23742187 8.39453125 0.93578125 9.5546875 0.625 10.75 C0.32851562 11.92046875 0.03203125 13.0909375 -0.2734375 14.296875 C-0.51320313 15.18890625 -0.75296875 16.0809375 -1 17 C-1.33 17 -1.66 17 -2 17 C-2.3690205 5.47835991 -2.3690205 5.47835991 0 0 Z " fill="#FED3D6" transform="translate(11,94)"/>
<path d="M0 0 C3.4375 0.8125 3.4375 0.8125 7 2 C7.33 2.99 7.66 3.98 8 5 C9.62652316 6.70586575 11.29006566 8.3777546 13 10 C9.74035658 8.51222697 7.06830707 6.64333184 4.25 4.4375 C3.45078125 3.81746094 2.6515625 3.19742188 1.828125 2.55859375 C1.22484375 2.04425781 0.6215625 1.52992188 0 1 C0 0.67 0 0.34 0 0 Z " fill="#B5181C" transform="translate(45,216)"/>
<path d="M0 0 C3.7952131 1.49097658 5.61042731 3.75700849 8 7 C7.67 7.66 7.34 8.32 7 9 C6.01 8.67 5.02 8.34 4 8 C3.66666667 6.66666667 3.33333333 5.33333333 3 4 C2.01 3.67 1.02 3.34 0 3 C0 2.01 0 1.02 0 0 Z " fill="#BF1A1C" transform="translate(205,40)"/>
<path d="M0 0 C0.66 0 1.32 0 2 0 C2 0.66 2 1.32 2 2 C3.32 1.67 4.64 1.34 6 1 C6.66 2.98 7.32 4.96 8 7 C7.01 7 6.02 7 5 7 C0 1.53488372 0 1.53488372 0 0 Z " fill="#BF2120" transform="translate(38,208)"/>
<path d="M0 0 C0.66 0.66 1.32 1.32 2 2 C-7.22551253 6.59225513 -7.22551253 6.59225513 -13 6 C-13 5.67 -13 5.34 -13 5 C-11.96875 4.731875 -10.9375 4.46375 -9.875 4.1875 C-6.3514958 3.19001103 -3.23119173 1.7338102 0 0 Z " fill="#FCE7E1" transform="translate(173,164)"/>
<path d="M0 0 C4.05281712 1.22527029 7.44360764 2.69880494 11 5 C7.06329512 6.31223496 4.87511856 5.24296256 1 4 C0.67 2.68 0.34 1.36 0 0 Z " fill="#B81616" transform="translate(133,123)"/>
<path d="M0 0 C2.61500768 2.36595933 4.38999603 4.86049226 6 8 C5.67 8.66 5.34 9.32 5 10 C4.67 9.01 4.34 8.02 4 7 C2.68 7.33 1.36 7.66 0 8 C0 5.36 0 2.72 0 0 Z " fill="#B11312" transform="translate(225,62)"/>
<path d="M0 0 C0.66 0.33 1.32 0.66 2 1 C0.02 3.97 -1.96 6.94 -4 10 C-4.66 8.68 -5.32 7.36 -6 6 C-4 4 -2 2 0 0 Z " fill="#FFE4DD" transform="translate(31,56)"/>
<path d="M0 0 C1 2 1 2 0.3125 4.5625 C-1 7 -1 7 -3.125 7.8125 C-3.74375 7.874375 -4.3625 7.93625 -5 8 C-5 8.66 -5 9.32 -5 10 C-5.99 9.67 -6.98 9.34 -8 9 C-5.36 6.03 -2.72 3.06 0 0 Z " fill="#A11B20" transform="translate(182,157)"/>
<path d="M0 0 C0.99 0.33 1.98 0.66 3 1 C4.80795432 5.0916861 5.21156222 8.55719328 5 13 C3.49439503 10.14589666 2.36783204 7.31875358 1.375 4.25 C0.98441406 3.05117187 0.98441406 3.05117187 0.5859375 1.828125 C0.39257812 1.22484375 0.19921875 0.6215625 0 0 Z " fill="#B01519" transform="translate(181,99)"/>
<path d="M0 0 C-1.98 0.33 -3.96 0.66 -6 1 C-6 1.66 -6 2.32 -6 3 C-6.66 3 -7.32 3 -8 3 C-8.33 3.66 -8.66 4.32 -9 5 C-10.32 4.34 -11.64 3.68 -13 3 C-11.5903653 2.29819469 -10.17192359 1.61406042 -8.75 0.9375 C-7.96109375 0.55464844 -7.1721875 0.17179687 -6.359375 -0.22265625 C-3.74006478 -1.08564091 -2.55144824 -0.93045933 0 0 Z " fill="#FCD0CB" transform="translate(93,90)"/>
<path d="M0 0 C-1 2 -1 2 -3.3125 3.125 C-6 4 -6 4 -10 4 C-10 3.34 -10 2.68 -10 2 C-6.5980513 -0.09350689 -3.94727588 -0.17942163 0 0 Z " fill="#E60105" transform="translate(87,88)"/>
<path d="M0 0 C0.99 0.33 1.98 0.66 3 1 C0.69 3.31 -1.62 5.62 -4 8 C-4.33 6.68 -4.66 5.36 -5 4 C-2.6875 1.9375 -2.6875 1.9375 0 0 Z " fill="#FEE1DF" transform="translate(45,40)"/>
<path d="M0 0 C1.27445454 0.42683632 2.54445882 0.86697202 3.8125 1.3125 C4.52019531 1.55613281 5.22789062 1.79976562 5.95703125 2.05078125 C8.14472373 3.06724258 9.40896718 4.20820594 11 6 C10.38125 5.814375 9.7625 5.62875 9.125 5.4375 C6.95839822 4.76313824 6.95839822 4.76313824 5 6 C4.34 5.67 3.68 5.34 3 5 C3 4.01 3 3.02 3 2 C2.01 2 1.02 2 0 2 C0 1.34 0 0.68 0 0 Z " fill="#C51A1E" transform="translate(176,21)"/>
<path d="M0 0 C4.455 1.98 4.455 1.98 9 4 C8.01 4.66 7.02 5.32 6 6 C2.21503862 4.48601545 1.9927802 3.9855604 0 0 Z " fill="#FBE0E0" transform="translate(69,234)"/>
<path d="M0 0 C4.455 2.97 4.455 2.97 9 6 C6 7 6 7 3.9375 6.375 C2 5 2 5 0 0 Z " fill="#FBDBD9" transform="translate(50,221)"/>
<path d="M0 0 C-0.8125 1.9375 -0.8125 1.9375 -2 4 C-5.28976808 5.09658936 -6.71303767 4.79953138 -10 4 C-8.66666667 3.33333333 -7.33333333 2.66666667 -6 2 C-5.29875 1.62875 -4.5975 1.2575 -3.875 0.875 C-2 0 -2 0 0 0 Z " fill="#FADAD5" transform="translate(125,143)"/>
<path d="M0 0 C0.66 0 1.32 0 2 0 C2 1.65 2 3.3 2 5 C0.68 5 -0.64 5 -2 5 C-2 2 -2 2 0 0 Z " fill="#E30506" transform="translate(73,94)"/>
<path d="M0 0 C3.25543229 0.34879632 4.01873107 1.02133261 6.25 3.5625 C6.8275 4.366875 7.405 5.17125 8 6 C7.67 6.66 7.34 7.32 7 8 C5.83035398 6.8572081 4.66435444 5.71068285 3.5 4.5625 C2.8503125 3.92441406 2.200625 3.28632812 1.53125 2.62890625 C0 1 0 1 0 0 Z " fill="#FEEEEB" transform="translate(209,42)"/>
<path d="M0 0 C2.31 0 4.62 0 7 0 C4.14693203 2.32472205 1.45925163 3.7508258 -2 5 C-2 4.34 -2 3.68 -2 3 C-1.34 3 -0.68 3 0 3 C0 2.01 0 1.02 0 0 Z " fill="#B71017" transform="translate(122,140)"/>
<path d="M0 0 C0.33 0.66 0.66 1.32 1 2 C0.67 2.99 0.34 3.98 0 5 C-2.0625 5.6875 -2.0625 5.6875 -4 6 C-4 6.66 -4 7.32 -4 8 C-4.66 8 -5.32 8 -6 8 C-4.55746343 4.63408134 -2.66735273 2.48952921 0 0 Z " fill="#FEE3DF" transform="translate(79,94)"/>
<path d="M0 0 C0.66 0.33 1.32 0.66 2 1 C2 1.66 2 2.32 2 3 C2.66 3.33 3.32 3.66 4 4 C0.535 5.485 0.535 5.485 -3 7 C-1.125 2.25 -1.125 2.25 0 0 Z " fill="#F30404" transform="translate(28,65)"/>
<path d="M0 0 C6.875 2.75 6.875 2.75 8 5 C6.02 5.33 4.04 5.66 2 6 C2.33 5.01 2.66 4.02 3 3 C2.01 2.67 1.02 2.34 0 2 C0 1.34 0 0.68 0 0 Z " fill="#F7E3E4" transform="translate(79,239)"/>
<path d="M0 0 C0 0.99 0 1.98 0 3 C-2 5 -2 5 -5.125 5.125 C-6.548125 5.063125 -6.548125 5.063125 -8 5 C-5.59078295 2.59078295 -3.05665491 1.46187844 0 0 Z " fill="#BD99AA" transform="translate(188,232)"/>
<path d="M0 0 C0.66 0 1.32 0 2 0 C2 0.66 2 1.32 2 2 C2.99 2 3.98 2 5 2 C5.33 3.98 5.66 5.96 6 8 C1.125 3.375 1.125 3.375 0 0 Z " fill="#C51C20" transform="translate(27,194)"/>
<path d="M0 0 C0.99 0.33 1.98 0.66 3 1 C3 1.66 3 2.32 3 3 C-1.38461538 6 -1.38461538 6 -4 6 C-3.67 5.01 -3.34 4.02 -3 3 C-2.01 3 -1.02 3 0 3 C0 2.01 0 1.02 0 0 Z " fill="#AF2027" transform="translate(144,129)"/>
<path d="M0 0 C0.66 0 1.32 0 2 0 C1.01 2.97 0.02 5.94 -1 9 C-1.33 9 -1.66 9 -2 9 C-2.125 5.625 -2.125 5.625 -2 2 C-1.34 1.34 -0.68 0.68 0 0 Z " fill="#CD1012" transform="translate(71,100)"/>
<path d="M0 0 C0.66 0 1.32 0 2 0 C0.84414715 3.91211733 -0.35534962 6.8745041 -3 10 C-2.69201674 8.51988629 -2.378482 7.04092675 -2.0625 5.5625 C-1.88847656 4.73878906 -1.71445312 3.91507812 -1.53515625 3.06640625 C-1 1 -1 1 0 0 Z " fill="#FED4D0" transform="translate(19,75)"/>
<path d="M0 0 C0.66 0.33 1.32 0.66 2 1 C-3.14285714 6.57142857 -3.14285714 6.57142857 -7 7 C-4.66666667 4.66666667 -2.33333333 2.33333333 0 0 Z " fill="#E2201F" transform="translate(55,34)"/>
<path d="M0 0 C0.33 0.99 0.66 1.98 1 3 C-1.475 4.485 -1.475 4.485 -4 6 C-4.99 5.34 -5.98 4.68 -7 4 C-4.69 2.68 -2.38 1.36 0 0 Z " fill="#E11816" transform="translate(71,24)"/>
<path d="M0 0 C-6.4 3.07692308 -6.4 3.07692308 -9.4375 2.6875 C-9.953125 2.460625 -10.46875 2.23375 -11 2 C-3.57142857 -1.57142857 -3.57142857 -1.57142857 0 0 Z " fill="#DB1F25" transform="translate(93,17)"/>
<path d="M0 0 C2.97 1.98 2.97 1.98 6 4 C5.01 4.495 5.01 4.495 4 5 C4 5.66 4 6.32 4 7 C3.34 7 2.68 7 2 7 C1.34 4.69 0.68 2.38 0 0 Z " fill="#FDE6E6" transform="translate(44,216)"/>
<path d="M0 0 C0.33 0 0.66 0 1 0 C1 2.64 1 5.28 1 8 C0.01 7.67 -0.98 7.34 -2 7 C-2 5.68 -2 4.36 -2 3 C-1.34 3 -0.68 3 0 3 C0 2.01 0 1.02 0 0 Z " fill="#E50203" transform="translate(68,101)"/>
<path d="M0 0 C5.53846154 0.61538462 5.53846154 0.61538462 7.875 2.5625 C8.431875 3.2740625 8.431875 3.2740625 9 4 C6.69 3.67 4.38 3.34 2 3 C2 2.34 2 1.68 2 1 C1.34 0.67 0.68 0.34 0 0 Z " fill="#FBE0DD" transform="translate(167,91)"/>
<path d="M0 0 C0.99 0.33 1.98 0.66 3 1 C3.33 3.31 3.66 5.62 4 8 C1.10067643 5.60490662 0.49831724 3.68754757 0 0 Z " fill="#AA1016" transform="translate(237,88)"/>
<path d="M0 0 C3.875 1.875 3.875 1.875 5 3 C5.04063832 4.66617115 5.042721 6.33388095 5 8 C2.74754119 5.31158141 1.11786042 3.35358125 0 0 Z " fill="#FBDDD6" transform="translate(224,59)"/>
<path d="M0 0 C0 3.10551666 -0.5393715 4.35261084 -2 7 C-3.32 6.67 -4.64 6.34 -6 6 C-4.02 4.02 -2.04 2.04 0 0 Z " fill="#DA151A" transform="translate(47,41)"/>
</svg>
